<svg width="100" height="100" viewBox="0 0 100 100" fill="none" xmlns="http://www.w3.org/2000/svg">
<path d="M9.20232 26.8875C10.8964 26.8875 12.2698 26.1027 12.2698 25.1347C12.2698 24.1666 10.8964 23.3818 9.20232 23.3818C7.50823 23.3818 6.13489 24.1666 6.13489 25.1347C6.13489 26.1027 7.50823 26.8875 9.20232 26.8875Z" fill="#318BAF"/>
<path d="M78.9168 27.0847C79.5003 28.4083 78.5309 29.8949 77.0844 29.8949H23.4334C21.752 29.8949 20.6325 28.1576 21.3273 26.6265V26.6265L22.6098 23.799L24.0194 20.6932C24.4873 19.6621 25.515 19 26.6473 19H73.4716C74.6152 19 75.6509 19.6753 76.1122 20.7217L77.469 23.799L78.9168 27.0847V27.0847Z" stroke="#318BAF" stroke-width="5"/>
<path d="M13.1461 25.1348H5.25842V29.5168H13.1461V25.1348Z" fill="#318BAF"/>
<path d="M6.88162 30.5H93.1184C95.5383 30.5 97.5 32.4617 97.5 34.8816V74.1184C97.5 76.5383 95.5383 78.5 93.1184 78.5H6.88162C4.46172 78.5 2.5 76.5383 2.5 74.1184V34.8816C2.5 32.4617 4.46172 30.5 6.88162 30.5Z" stroke="#318BAF" stroke-width="5"/>
<path fill-rule="evenodd" clip-rule="evenodd" d="M66.2122 61.1685H100V47.8916H66.2122C67.0514 49.9389 67.5141 52.1805 67.5141 54.5301C67.5141 56.8797 67.0514 59.1212 66.2122 61.1685ZM33.7877 61.1685C32.9485 59.1212 32.4858 56.8797 32.4858 54.5301C32.4858 52.1805 32.9485 49.9389 33.7877 47.8916H0V61.1685H33.7877Z" fill="#318BAF"/>
<path fill-rule="evenodd" clip-rule="evenodd" d="M73.0226 54.5303C73.0226 67.2453 62.715 77.5529 50 77.5529C37.285 77.5529 26.9774 67.2453 26.9774 54.5303C26.9774 41.8153 37.285 31.5078 50 31.5078C62.715 31.5078 73.0226 41.8153 73.0226 54.5303ZM67.5141 54.5301C67.5141 64.2028 59.6727 72.0441 50 72.0441C40.3272 72.0441 32.4858 64.2028 32.4858 54.5301C32.4858 44.8574 40.3272 37.0161 50 37.0161C59.6727 37.0161 67.5141 44.8574 67.5141 54.5301Z" fill="#318BAF"/>
<path d="M89.3359 39.0422C90.2719 39.0422 91.0308 38.2833 91.0308 37.3473C91.0308 36.4112 90.2719 35.6523 89.3359 35.6523C88.3998 35.6523 87.641 36.4112 87.641 37.3473C87.641 38.2833 88.3998 39.0422 89.3359 39.0422Z" fill="#318BAF"/>
</svg>
