<svg width="100" height="100" viewBox="0 0 100 100" fill="none" xmlns="http://www.w3.org/2000/svg">
<path fill-rule="evenodd" clip-rule="evenodd" d="M82.1506 21.5351L68.3497 10.1439C67.4538 9.40445 66.3285 9 65.1669 9H29C22.3726 9 17 14.3726 17 21V80C17 83.0593 18.1448 85.8512 20.0294 87.9706C22.1489 89.8552 24.9407 91 28 91H71.1645C77.7919 91 83.1645 85.6274 83.1645 79V24.5536C83.1645 23.4534 82.8022 22.3957 82.1506 21.5351ZM34.973 64.8086C32.7129 63.9474 30.0972 62.3288 28.3102 59.6612C24.8104 54.4368 25.3729 47.8677 29.7989 43.1669C35.9321 36.6528 43.9402 37.4022 48.676 41.2648C51.2411 43.3569 52.7923 46.1851 53.6897 48.3236C54.1483 49.4164 54.4611 50.3893 54.661 51.0954C54.7613 51.4497 54.8342 51.7404 54.8833 51.9496C54.908 52.0542 54.9267 52.1388 54.9401 52.2011C54.9467 52.2322 54.9521 52.2578 54.9561 52.2775L54.9612 52.3028L54.9631 52.3121L54.9638 52.3159L54.9642 52.3176C54.9643 52.3183 54.9645 52.3191 52.2243 52.8557L54.9645 52.3191C55.2608 53.8324 54.2742 55.2995 52.7609 55.5958C51.248 55.892 49.7814 54.9062 49.4845 53.3936C49.4843 53.3929 49.4842 53.3922 52.1151 52.877L49.4842 53.3922L49.4799 53.3724L49.4686 53.3207C49.4664 53.3111 49.4641 53.3007 49.4615 53.2894C49.4573 53.271 49.4526 53.2504 49.4472 53.2277C49.4154 53.0922 49.3632 52.8829 49.2878 52.6164C49.1362 52.0808 48.8944 51.3279 48.5404 50.4846C47.8128 48.7508 46.7074 46.8654 45.1464 45.5923C42.5088 43.441 37.8401 42.7727 33.8647 46.9949C31.1847 49.8414 30.9302 53.5385 32.9497 56.5532C33.9223 58.0051 35.4553 59.0164 36.9613 59.5902C37.7039 59.8731 38.3631 60.0193 38.8337 60.0695C38.9919 60.0864 39.1078 60.0902 39.1829 60.0894C40.4705 59.6087 41.9474 60.1407 42.6161 61.3853C43.3459 62.7437 42.8363 64.4366 41.4779 65.1664C40.8499 65.5038 40.2021 65.6098 39.7503 65.6493C39.2541 65.6926 38.74 65.6756 38.2413 65.6224C37.2416 65.5157 36.1135 65.2432 34.973 64.8086ZM39.2886 60.0831C39.2888 60.0832 39.2873 60.0835 39.2842 60.084C39.2807 60.0845 39.2749 60.0851 39.2669 60.0859C39.2808 60.0835 39.2884 60.0828 39.2886 60.0831ZM58.5606 33.2146C61.542 33.2952 65.2154 34.1132 68.339 36.4562C74.4796 41.062 76.4881 48.841 73.2763 56.0665C68.804 66.1277 59.259 68.4678 52.2604 65.9356C48.4471 64.5558 45.4791 61.9001 43.5313 59.7426C42.5403 58.6448 41.7702 57.6278 41.2442 56.8798C40.9804 56.5047 40.776 56.1943 40.6337 55.9714C40.5626 55.8598 40.5068 55.77 40.4669 55.7046C40.4469 55.6719 40.4309 55.6453 40.4188 55.6252L40.4037 55.5998L40.3984 55.5909L40.3964 55.5873L40.3955 55.5858C40.3951 55.5851 40.3947 55.5844 42.8032 54.1719L40.3947 55.5844C39.6146 54.2542 40.0605 52.5435 41.3908 51.7634C42.7194 50.9842 44.4275 51.4282 45.2089 52.7546L45.2095 52.7555L45.2104 52.7572L45.2109 52.758L45.2111 52.7583L45.2325 52.7936C45.2543 52.8293 45.2907 52.8882 45.3414 52.9676C45.4429 53.1267 45.6009 53.3671 45.8122 53.6676C46.2363 54.2707 46.8666 55.1035 47.6763 56.0004C49.3301 57.8322 51.5657 59.7455 54.1604 60.6844C58.613 62.2954 64.9797 60.983 68.1734 53.7982C70.3506 48.9002 69.0011 43.9334 64.9882 40.9235C63.0352 39.4586 60.5845 38.8557 58.4097 38.7969C57.3335 38.7678 56.4076 38.8753 55.7455 39.0308C55.4187 39.1076 55.2008 39.1857 55.0811 39.2391C54.0257 40.1936 52.3975 40.2062 51.3261 39.2264C50.1881 38.1857 50.1093 36.4196 51.1499 35.2816C51.664 34.7195 52.2936 34.3705 52.7772 34.1521C53.3015 33.9154 53.8794 33.7328 54.4684 33.5945C55.6485 33.3172 57.0587 33.174 58.5606 33.2146ZM55.0072 39.276C55.0069 39.2759 55.0122 39.2725 55.024 39.2663C55.0134 39.273 55.0075 39.2761 55.0072 39.276Z" fill="#318BAF"/>
</svg>
