<svg width="100" height="100" viewBox="0 0 100 100" fill="none" xmlns="http://www.w3.org/2000/svg">
<circle cx="24.0027" cy="59.8612" r="9.9891" stroke="#318BAF" stroke-width="4.61035"/>
<circle cx="36.2971" cy="23.4907" r="4.61035" fill="#318BAF"/>
<circle cx="50.1282" cy="23.4907" r="4.61035" fill="#318BAF"/>
<circle cx="63.9591" cy="23.4907" r="4.61035" fill="#318BAF"/>
<circle cx="76.2535" cy="59.8612" r="9.9891" stroke="#318BAF" stroke-width="4.61035"/>
<path d="M57.183 94.6949H57.1825C58.3198 85.3143 66.3099 78.0464 75.9974 78.0464C85.6849 78.0464 93.6749 85.3143 94.8123 94.6949H94.8118H94.7817H94.7514H94.721H94.6904H94.6596H94.6287H94.5976H94.5664H94.5349H94.5033H94.4716H94.4397H94.4076H94.3754H94.343H94.3104H94.2777H94.2448H94.2117H94.1785H94.1451H94.1116H94.0779H94.0441H94.0101H93.9759H93.9416H93.9071H93.8724H93.8376H93.8027H93.7676H93.7323H93.6969H93.6613H93.6256H93.5897H93.5536H93.5174H93.4811H93.4445H93.4079H93.3711H93.3341H93.297H93.2597H93.2223H93.1847H93.1469H93.1091H93.071H93.0329H92.9945H92.956H92.9174H92.8786H92.8397H92.8006H92.7614H92.722H92.6825H92.6428H92.603H92.563H92.5229H92.4827H92.4423H92.4017H92.3611H92.3202H92.2792H92.2381H92.1969H92.1555H92.1139H92.0722H92.0304H91.9884H91.9463H91.904H91.8616H91.8191H91.7764H91.7336H91.6906H91.6475H91.6043H91.5609H91.5174H91.4737H91.4299H91.386H91.3419H91.2977H91.2534H91.2089H91.1643H91.1196H91.0747H91.0297H90.9845H90.9392H90.8938H90.8483H90.8026H90.7568H90.7108H90.6647H90.6185H90.5722H90.5257H90.4791H90.4323H90.3855H90.3385H90.2914H90.2441H90.1967H90.1492H90.1016H90.0538H90.0059H89.9579H89.9097H89.8614H89.813H89.7645H89.7159H89.6671H89.6182H89.5691H89.52H89.4707H89.4213H89.3718H89.3221H89.2724H89.2225H89.1725H89.1223H89.0721H89.0217H88.9712H88.9206H88.8698H88.819H88.768H88.7169H88.6657H88.6143H88.5629H88.5113H88.4596H88.4078H88.3559H88.3039H88.2517H88.1994H88.1471H88.0946H88.0419H87.9892H87.9364H87.8834H87.8303H87.7772H87.7239H87.6704H87.6169H87.5633H87.5095H87.4557H87.4017H87.3476H87.2935H87.2392H87.1847H87.1302H87.0756H87.0209H86.966H86.9111H86.856H86.8009H86.7456H86.6902H86.6347H86.5791H86.5234H86.4676H86.4117H86.3557H86.2996H86.2434H86.187H86.1306H86.0741H86.0174H85.9607H85.9039H85.8469H85.7899H85.7327H85.6755H85.6182H85.5607H85.5032H85.4455H85.3878H85.33H85.272H85.214H85.1558H85.0976H85.0393H84.9808H84.9223H84.8637H84.805H84.7462H84.6873H84.6283H84.5692H84.51H84.4507H84.3913H84.3319H84.2723H84.2126H84.1529H84.093H84.0331H83.9731H83.913H83.8528H83.7925H83.7321H83.6716H83.611H83.5504H83.4896H83.4288H83.3679H83.3069H83.2458H83.1846H83.1233H83.062H83.0005H82.939H82.8774H82.8157H82.7539H82.6921H82.6301H82.5681H82.506H82.4438H82.3815H82.3191H82.2567H82.1941H82.1315H82.0688H82.0061H81.9432H81.8803H81.8173H81.7542H81.691H81.6277H81.5644H81.501H81.4375H81.3739H81.3103H81.2466H81.1828H81.1189H81.055H80.9909H80.9268H80.8627H80.7984H80.7341H80.6697H80.6052H80.5407H80.4761H80.4114H80.3466H80.2818H80.2169H80.1519H80.0868H80.0217H79.9565H79.8913H79.826H79.7605H79.6951H79.6295H79.5639H79.4983H79.4325H79.3667H79.3008H79.2349H79.1689H79.1028H79.0367H78.9705H78.9042H78.8378H78.7714H78.705H78.6385H78.5719H78.5052H78.4385H78.3717H78.3049H78.2379H78.171H78.1039H78.0369H77.9697H77.9025H77.8352H77.7679H77.7005H77.633H77.5655H77.498H77.4303H77.3627H77.2949H77.2271H77.1593H77.0914H77.0234H76.9554H76.8873H76.8192H76.751H76.6827H76.6144H76.5461H76.4777H76.4092H76.3407H76.2721H76.2035H76.1349H76.0661H75.9974H75.9286H75.8599H75.7912H75.7226H75.6541H75.5855H75.5171H75.4487H75.3803H75.312H75.2438H75.1756H75.1075H75.0394H74.9714H74.9034H74.8355H74.7676H74.6998H74.6321H74.5644H74.4968H74.4292H74.3617H74.2943H74.2269H74.1595H74.0923H74.0251H73.9579H73.8908H73.8238H73.7568H73.6899H73.6231H73.5563H73.4896H73.4229H73.3563H73.2898H73.2233H73.1569H73.0906H73.0243H72.9581H72.892H72.8259H72.7599H72.6939H72.628H72.5622H72.4965H72.4308H72.3652H72.2997H72.2342H72.1688H72.1035H72.0382H71.973H71.9079H71.8429H71.7779H71.713H71.6481H71.5834H71.5187H71.4541H71.3895H71.3251H71.2607H71.1963H71.1321H71.0679H71.0038H70.9398H70.8758H70.812H70.7482H70.6845H70.6208H70.5573H70.4938H70.4304H70.367H70.3038H70.2406H70.1775H70.1145H70.0516H69.9887H69.9259H69.8632H69.8006H69.7381H69.6756H69.6133H69.551H69.4888H69.4267H69.3646H69.3027H69.2408H69.179H69.1173H69.0557H68.9942H68.9328H68.8714H68.8101H68.749H68.6879H68.6269H68.5659H68.5051H68.4444H68.3837H68.3232H68.2627H68.2023H68.142H68.0818H68.0217H67.9617H67.9017H67.8419H67.7821H67.7225H67.6629H67.6034H67.5441H67.4848H67.4256H67.3665H67.3075H67.2486H67.1898H67.1311H67.0724H67.0139H66.9555H66.8972H66.8389H66.7808H66.7227H66.6648H66.607H66.5492H66.4916H66.434H66.3766H66.3193H66.262H66.2049H66.1478H66.0909H66.034H65.9773H65.9207H65.8641H65.8077H65.7514H65.6952H65.6391H65.583H65.5271H65.4713H65.4156H65.36H65.3046H65.2492H65.1939H65.1387H65.0837H65.0287H64.9739H64.9192H64.8645H64.81H64.7556H64.7013H64.6471H64.593H64.5391H64.4852H64.4315H64.3778H64.3243H64.2709H64.2176H64.1644H64.1114H64.0584H64.0056H63.9528H63.9002H63.8477H63.7953H63.743H63.6909H63.6389H63.5869H63.5351H63.4834H63.4319H63.3804H63.3291H63.2779H63.2268H63.1758H63.1249H63.0742H63.0236H62.9731H62.9227H62.8724H62.8223H62.7723H62.7224H62.6726H62.623H62.5735H62.5241H62.4748H62.4256H62.3766H62.3277H62.2789H62.2303H62.1817H62.1333H62.085H62.0369H61.9889H61.941H61.8932H61.8456H61.798H61.7507H61.7034H61.6563H61.6093H61.5624H61.5157H61.4691H61.4226H61.3763H61.33H61.284H61.238H61.1922H61.1465H61.101H61.0555H61.0103H60.9651H60.9201H60.8752H60.8305H60.7858H60.7414H60.697H60.6528H60.6088H60.5648H60.521H60.4774H60.4339H60.3905H60.3473H60.3042H60.2612H60.2184H60.1757H60.1331H60.0907H60.0485H60.0064H59.9644H59.9226H59.8809H59.8393H59.7979H59.7566H59.7155H59.6745H59.6337H59.593H59.5525H59.5121H59.4718H59.4317H59.3917H59.3519H59.3123H59.2727H59.2334H59.1941H59.1551H59.1161H59.0774H59.0387H59.0002H58.9619H58.9237H58.8857H58.8478H58.8101H58.7725H58.7351H58.6978H58.6607H58.6237H58.5869H58.5502H58.5137H58.4773H58.4411H58.4051H58.3692H58.3335H58.2979H58.2625H58.2272H58.1921H58.1571H58.1223H58.0877H58.0532H58.0189H57.9847H57.9507H57.9168H57.8831H57.8496H57.8162H57.783H57.75H57.7171H57.6844H57.6518H57.6194H57.5872H57.5551H57.5232H57.4914H57.4598H57.4284H57.3971H57.366H57.3351H57.3044H57.2738H57.2433H57.2131H57.183Z" stroke="#318BAF" stroke-width="4.61035"/>
<path d="M5.44443 94.6949H5.44394C6.58131 85.3143 14.5713 78.0464 24.2589 78.0464C33.9464 78.0464 41.9364 85.3143 43.0738 94.6949H43.0733H43.0432H43.0129H42.9825H42.9519H42.9211H42.8902H42.8591H42.8278H42.7964H42.7648H42.7331H42.7012H42.6691H42.6368H42.6044H42.5719H42.5391H42.5063H42.4732H42.44H42.4066H42.3731H42.3394H42.3056H42.2715H42.2374H42.203H42.1686H42.1339H42.0991H42.0642H42.029H41.9938H41.9584H41.9228H41.887H41.8511H41.8151H41.7789H41.7425H41.706H41.6694H41.6325H41.5956H41.5584H41.5212H41.4837H41.4462H41.4084H41.3705H41.3325H41.2943H41.256H41.2175H41.1789H41.1401H41.1012H41.0621H41.0229H40.9835H40.944H40.9043H40.8645H40.8245H40.7844H40.7442H40.7038H40.6632H40.6225H40.5817H40.5407H40.4996H40.4583H40.4169H40.3754H40.3337H40.2918H40.2499H40.2078H40.1655H40.1231H40.0805H40.0379H39.995H39.9521H39.909H39.8657H39.8224H39.7789H39.7352H39.6914H39.6475H39.6034H39.5592H39.5149H39.4704H39.4258H39.381H39.3362H39.2911H39.246H39.2007H39.1553H39.1097H39.064H39.0182H38.9723H38.9262H38.88H38.8336H38.7872H38.7406H38.6938H38.647H38.6H38.5528H38.5056H38.4582H38.4107H38.363H38.3153H38.2674H38.2193H38.1712H38.1229H38.0745H38.026H37.9773H37.9286H37.8796H37.8306H37.7815H37.7322H37.6828H37.6333H37.5836H37.5338H37.4839H37.4339H37.3838H37.3335H37.2832H37.2327H37.182H37.1313H37.0804H37.0295H36.9784H36.9272H36.8758H36.8244H36.7728H36.7211H36.6693H36.6174H36.5653H36.5132H36.4609H36.4085H36.356H36.3034H36.2507H36.1978H36.1449H36.0918H36.0386H35.9853H35.9319H35.8784H35.8248H35.771H35.7172H35.6632H35.6091H35.5549H35.5006H35.4462H35.3917H35.3371H35.2823H35.2275H35.1726H35.1175H35.0623H35.0071H34.9517H34.8962H34.8406H34.7849H34.7291H34.6732H34.6172H34.5611H34.5048H34.4485H34.3921H34.3356H34.2789H34.2222H34.1653H34.1084H34.0514H33.9942H33.937H33.8796H33.8222H33.7647H33.707H33.6493H33.5914H33.5335H33.4754H33.4173H33.3591H33.3007H33.2423H33.1838H33.1252H33.0665H33.0077H32.9487H32.8897H32.8306H32.7715H32.7122H32.6528H32.5933H32.5338H32.4741H32.4144H32.3545H32.2946H32.2346H32.1744H32.1142H32.0539H31.9936H31.9331H31.8725H31.8119H31.7511H31.6903H31.6294H31.5684H31.5073H31.4461H31.3848H31.3235H31.262H31.2005H31.1389H31.0772H31.0154H30.9535H30.8916H30.8296H30.7674H30.7052H30.643H30.5806H30.5181H30.4556H30.393H30.3303H30.2675H30.2047H30.1417H30.0787H30.0156H29.9525H29.8892H29.8259H29.7625H29.699H29.6354H29.5718H29.5081H29.4443H29.3804H29.3164H29.2524H29.1883H29.1241H29.0599H28.9956H28.9312H28.8667H28.8022H28.7375H28.6729H28.6081H28.5433H28.4783H28.4134H28.3483H28.2832H28.218H28.1528H28.0874H28.022H27.9566H27.891H27.8254H27.7597H27.694H27.6282H27.5623H27.4964H27.4304H27.3643H27.2981H27.2319H27.1657H27.0993H27.0329H26.9665H26.8999H26.8333H26.7667H26.7H26.6332H26.5663H26.4994H26.4324H26.3654H26.2983H26.2312H26.164H26.0967H26.0294H25.962H25.8945H25.827H25.7594H25.6918H25.6241H25.5564H25.4886H25.4207H25.3528H25.2849H25.2168H25.1488H25.0806H25.0124H24.9442H24.8759H24.8076H24.7392H24.6707H24.6022H24.5336H24.465H24.3963H24.3276H24.2589H24.1901H24.1214H24.0527H23.9841H23.9155H23.847H23.7786H23.7102H23.6418H23.5735H23.5053H23.4371H23.3689H23.3009H23.2328H23.1649H23.097H23.0291H22.9613H22.8936H22.8259H22.7583H22.6907H22.6232H22.5557H22.4883H22.421H22.3537H22.2865H22.2194H22.1523H22.0853H22.0183H21.9514H21.8845H21.8178H21.751H21.6844H21.6178H21.5513H21.4848H21.4184H21.352H21.2858H21.2196H21.1534H21.0874H21.0213H20.9554H20.8895H20.8237H20.758H20.6923H20.6267H20.5612H20.4957H20.4303H20.365H20.2997H20.2345H20.1694H20.1043H20.0394H19.9745H19.9096H19.8449H19.7802H19.7156H19.651H19.5865H19.5221H19.4578H19.3936H19.3294H19.2653H19.2013H19.1373H19.0735H19.0097H18.9459H18.8823H18.8187H18.7552H18.6918H18.6285H18.5653H18.5021H18.439H18.376H18.313H18.2502H18.1874H18.1247H18.0621H17.9996H17.9371H17.8748H17.8125H17.7503H17.6882H17.6261H17.5642H17.5023H17.4405H17.3788H17.3172H17.2557H17.1942H17.1329H17.0716H17.0104H16.9493H16.8883H16.8274H16.7666H16.7058H16.6452H16.5846H16.5242H16.4638H16.4035H16.3433H16.2832H16.2231H16.1632H16.1034H16.0436H15.9839H15.9244H15.8649H15.8055H15.7463H15.6871H15.628H15.569H15.5101H15.4512H15.3925H15.3339H15.2754H15.217H15.1586H15.1004H15.0423H14.9842H14.9263H14.8684H14.8107H14.7531H14.6955H14.6381H14.5807H14.5235H14.4663H14.4093H14.3524H14.2955H14.2388H14.1822H14.1256H14.0692H14.0129H13.9566H13.9005H13.8445H13.7886H13.7328H13.6771H13.6215H13.566H13.5107H13.4554H13.4002H13.3452H13.2902H13.2354H13.1806H13.126H13.0715H13.0171H12.9628H12.9086H12.8545H12.8005H12.7467H12.6929H12.6393H12.5858H12.5324H12.4791H12.4259H12.3728H12.3199H12.267H12.2143H12.1617H12.1092H12.0568H12.0045H11.9524H11.9003H11.8484H11.7966H11.7449H11.6933H11.6419H11.5906H11.5393H11.4882H11.4373H11.3864H11.3357H11.285H11.2345H11.1842H11.1339H11.0838H11.0338H10.9839H10.9341H10.8845H10.8349H10.7855H10.7362H10.6871H10.6381H10.5892H10.5404H10.4917H10.4432H10.3948H10.3465H10.2984H10.2503H10.2024H10.1547H10.107H10.0595H10.0121H9.96488H9.91775H9.87076H9.82389H9.77715H9.73055H9.68407H9.63772H9.59151H9.54543H9.49948H9.45366H9.40798H9.36243H9.31701H9.27172H9.22657H9.18156H9.13668H9.09193H9.04732H9.00285H8.95851H8.9143H8.87024H8.82631H8.78252H8.73886H8.69534H8.65197H8.60873H8.56563H8.52267H8.47984H8.43716H8.39462H8.35222H8.30996H8.26784H8.22586H8.18403H8.14233H8.10078H8.05937H8.01811H7.97699H7.93601H7.89518H7.85449H7.81394H7.77355H7.73329H7.69318H7.65322H7.61341H7.57374H7.53422H7.49484H7.45562H7.41654H7.37761H7.33883H7.3002H7.26171H7.22338H7.1852H7.14717H7.10928H7.07155H7.03397H6.99655H6.95927H6.92215H6.88517H6.84836H6.81169H6.77518H6.73882H6.70262H6.66657H6.63068H6.59494H6.55936H6.52393H6.48866H6.45355H6.41859H6.38379H6.34915H6.31466H6.28033H6.24617H6.21216H6.17831H6.14462H6.11109H6.07772H6.04451H6.01146H5.97857H5.94584H5.91328H5.88087H5.84863H5.81655H5.78464H5.75289H5.7213H5.68988H5.65862H5.62752H5.59659H5.56583H5.53523H5.5048H5.47453H5.44443Z" stroke="#318BAF" stroke-width="4.61035"/>
<path d="M27.0764 5.30518H73.1799C74.7359 5.30518 75.9973 6.56659 75.9973 8.12262V37.3215C75.9973 38.8776 74.7359 40.139 73.1799 40.139H60.7562C58.3156 40.139 56.0307 41.338 54.6439 43.3464L52.7549 46.0822C51.6665 47.6585 49.3563 47.7126 48.1953 46.1889L45.8154 43.0652C44.4105 41.2213 42.2253 40.139 39.9071 40.139H27.0763C25.5203 40.139 24.2589 38.8776 24.2589 37.3215V8.12262C24.2589 6.56659 25.5203 5.30518 27.0764 5.30518Z" stroke="#318BAF" stroke-width="4.61035"/>
</svg>
