<svg width="100" height="100" viewBox="0 0 100 100" fill="none" xmlns="http://www.w3.org/2000/svg">
<path d="M67.3304 63.4377L74.429 56.5681L83.1304 65.2696M55.6522 73.971L69.2464 87.3738C70.7233 88.8299 73.0961 88.829 74.5719 87.3719L87.2849 74.8199C88.7816 73.3421 88.7893 70.9284 87.302 69.4411L83.1304 65.2696M27.7159 45.5768L13.7339 31.5948C12.2328 30.0936 12.2567 27.6525 13.787 26.1811L26.181 14.2637C27.6695 12.8325 30.0296 12.8557 31.4897 14.3158L35.7304 18.5565M38.2493 34.1275L44.6609 27.487L35.7304 18.5565M28.8609 24.9681L35.7304 18.5565M76.7188 72.1391L83.1304 65.2696M14.3113 76.4899L16.7246 66.6435L71.9101 11C83.2974 14.3929 88.141 17.8574 90 30.9217L37.4565 81.7565M14.3113 76.4899L11 90L23.3652 87.4812M14.3113 76.4899C19.2435 77.8638 23.212 81.3733 23.3652 87.4812M23.3652 87.4812L33.6696 85.4203L37.4565 81.7565M19.904 63.4377C31.9227 66.9235 35.2582 71.2929 37.4565 81.7565" stroke="#318BAF" stroke-width="5.05507"/>
<path d="M19.904 63.4377L71.9101 11C83.2974 14.3929 88.141 17.8574 90 30.9217L37.4565 81.7565C35.2582 71.2929 31.9227 66.9235 19.904 63.4377L16.7246 66.6435L14.3113 76.4899C19.2435 77.8638 23.212 81.3733 23.3652 87.4812L11 90L14.3113 76.4899L16.7246 66.6435L19.904 63.4377Z" fill="#318BAF"/>
<path d="M67.3304 63.4377L74.429 56.5681L83.1304 65.2696M55.6522 73.971L69.2464 87.3738C70.7233 88.8299 73.0961 88.829 74.5719 87.3719L87.2849 74.8199C88.7816 73.3421 88.7893 70.9284 87.302 69.4411L83.1304 65.2696M27.7159 45.5768L13.7339 31.5948C12.2328 30.0936 12.2567 27.6525 13.787 26.1811L26.181 14.2637C27.6695 12.8325 30.0296 12.8557 31.4897 14.3158L35.7304 18.5565M38.2493 34.1275L44.6609 27.487L35.7304 18.5565M28.8609 24.9681L35.7304 18.5565M76.7188 72.1391L83.1304 65.2696M14.3113 76.4899L16.7246 66.6435L71.9101 11C83.2974 14.3929 88.141 17.8574 90 30.9217L37.4565 81.7565C35.2582 71.2929 31.9227 66.9235 19.904 63.4377M14.3113 76.4899L11 90L23.3652 87.4812C23.212 81.3733 19.2435 77.8638 14.3113 76.4899Z" stroke="#318BAF" stroke-width="5.05507"/>
</svg>
