<svg width="100" height="100" viewBox="0 0 100 100" fill="none" xmlns="http://www.w3.org/2000/svg">
<path d="M35.8954 96C37.2865 95.3721 38.2609 93.9214 38.2609 92.2327V81.1523C38.2609 80.7481 38.2922 80.3274 38.3411 79.9006C38.3137 79.9088 38.2883 79.915 38.2609 79.9211C38.2609 79.9211 32.3913 79.9211 31.2174 79.9211C28.2826 79.9211 25.7391 78.69 24.5652 76.2277C23.1957 73.5602 22.6087 69.0459 19.087 66.5836C18.5 66.1733 18.8913 65.5577 20.0652 65.5577C21.2391 65.7629 23.7826 67.4044 25.3478 69.6615C27.1087 71.9186 28.8696 73.7654 32 73.7654C36.8659 73.7654 39.4739 73.5089 41.043 72.6265C42.8704 69.7764 45.4002 67.6096 48.0435 67.6096V67.5583C36.9539 67.1848 29.8693 63.319 26.5707 57.35C19.4 57.4362 13.1567 58.181 9.59391 58.8007C9.48043 58.1297 9.38261 57.4546 9.29848 56.7754C12.8143 56.1681 18.7739 55.4479 25.6257 55.3104C25.4065 54.744 25.2167 54.1633 25.0563 53.5683C18.187 53.2031 12.2587 53.4883 9.03826 53.7673C8.99913 53.0861 8.9463 52.4069 8.93848 51.7175C12.1648 51.4404 17.9326 51.1634 24.6259 51.4897C24.4713 50.4637 24.3715 49.4152 24.3715 48.3236C24.3715 44.8353 25.5454 41.1418 27.6976 38.064C26.7193 34.5757 25.3498 27.1888 28.0889 24.5213C33.3715 24.5213 37.0889 27.1888 38.8498 28.8303C42.1739 27.3919 45.8913 26.5711 50 26.5711C54.1087 26.5711 57.8261 27.3919 60.9565 28.8283C62.7174 27.1867 66.4348 24.5192 71.7174 24.5192C74.6522 27.3919 73.087 34.7788 72.1087 38.0619C74.2609 41.1398 75.4348 44.6281 75.2391 48.3215C75.2391 49.3147 75.1511 50.2729 75.0239 51.2127C81.8698 50.8598 87.7941 51.1429 91.0752 51.422C91.0713 52.1135 91.0106 52.7886 90.9754 53.4719C87.7061 53.1887 81.633 52.8973 74.6209 53.2892C74.4467 53.9787 74.2354 54.6497 73.985 55.3001C80.9228 55.3945 87.0252 56.0983 90.7093 56.7139C90.6252 57.3951 90.5274 58.0702 90.4139 58.7391C86.673 58.1112 80.2967 57.3767 73.042 57.3397C69.7843 63.2452 62.8289 67.0966 51.9565 67.546V67.6096C57.0435 67.6096 61.7391 75.6121 61.7391 81.1523V92.2327C61.7391 93.9214 62.7135 95.3721 64.1046 96C82.0283 89.7786 95 72.05 95 51.1942C95 25.1717 74.8146 4 50 4C25.1854 4 5 25.1717 5 51.1942C5 72.05 17.9717 89.7786 35.8954 96Z" fill="#318BAF"/>
</svg>
