<svg width="100" height="100" viewBox="0 0 100 100" fill="none" xmlns="http://www.w3.org/2000/svg">
<path d="M32.4666 39.049L33.1177 40.4003L33.1835 40.3686L33.2459 40.3307L32.4666 39.049ZM32.4666 39.049C33.1177 40.4003 33.1177 40.4003 33.1175 40.4004L33.1168 40.4007L33.1137 40.4022L33.1013 40.4082L33.0518 40.4321L32.8574 40.5261C32.6869 40.6086 32.4364 40.73 32.1173 40.8851C31.4791 41.1955 30.5664 41.6409 29.4696 42.1806C27.2754 43.2605 24.3472 44.7166 21.4065 46.2239C18.4617 47.7332 15.5215 49.2852 13.2963 50.5587C12.3066 51.125 11.4796 51.6243 10.8636 52.0324C11.3778 52.3484 12.0488 52.7208 12.8541 53.1383C15.0225 54.2623 17.98 55.6193 20.9809 56.9367C23.9751 58.2511 26.9864 59.5148 29.251 60.4505C30.3828 60.9181 31.327 61.3034 31.9879 61.5717C32.3183 61.7058 32.5779 61.8106 32.7546 61.8818L32.956 61.9629L33.0074 61.9835L33.0202 61.9886L33.0233 61.9899L33.024 61.9902C33.0242 61.9902 33.0242 61.9903 32.4666 63.3828M32.4666 39.049C33.2459 40.3307 33.246 40.3306 33.2462 40.3305L33.2467 40.3302L33.2482 40.3293L33.2529 40.3264L33.2694 40.3163L33.3289 40.2797C33.3797 40.2483 33.4522 40.2032 33.5414 40.1469C33.7194 40.0346 33.9658 39.8767 34.2404 39.6935C34.7688 39.341 35.4761 38.8458 35.9825 38.388C36.1942 38.1966 36.5559 37.8528 36.7608 37.4249C36.8625 37.2127 37.0677 36.6862 36.8358 36.0721C36.5809 35.397 36.0074 35.1395 35.6949 35.0519C35.3838 34.9648 35.0817 34.965 34.8649 34.9777C34.6274 34.9915 34.371 35.0288 34.1033 35.0806C33.5677 35.1843 32.8805 35.3672 32.0199 35.6357C28.4961 36.735 22.2167 40.0035 16.8035 43.0475C14.0685 44.5855 11.5074 46.0934 9.55724 47.2881C8.58307 47.8849 7.75424 48.4079 7.12936 48.82C6.81769 49.0256 6.54811 49.2093 6.33289 49.3642C6.14514 49.4993 5.91837 49.6689 5.7535 49.8341C5.72136 49.8663 5.68845 49.8992 5.65509 49.9325C5.44419 50.143 5.21545 50.3712 5.04847 50.5729C4.86304 50.7969 4.5 51.2742 4.5 51.9538C4.5 52.617 4.84817 53.0941 5.02182 53.3163C5.18376 53.5236 5.40627 53.7618 5.61795 53.9884C5.65145 54.0242 5.68468 54.0598 5.71735 54.0949C5.92896 54.3223 6.22777 54.5226 6.42784 54.6525C6.67591 54.8137 6.98682 55 7.34223 55.2041C8.05559 55.6136 9.00343 56.1256 10.1047 56.7012C12.3103 57.8541 15.1759 59.285 18.1094 60.7021C21.0429 62.1192 24.0558 63.5281 26.5562 64.636C28.9922 65.7153 31.098 66.5811 32.1205 66.8236C32.5989 66.9371 33.0455 67.0102 33.4425 67.0126C33.7708 67.0147 34.4129 66.9762 34.9285 66.5031C35.5846 65.901 35.5338 65.1149 35.4227 64.7036C35.3189 64.3195 35.1146 64.0024 34.9717 63.8035C34.6669 63.3792 34.255 62.9728 33.9707 62.7084C33.8191 62.5674 33.6833 62.4481 33.5848 62.3634C33.5353 62.3209 33.4946 62.2867 33.4654 62.2623L33.4303 62.2332L33.4197 62.2244L33.4162 62.2216L33.4149 62.2206L33.4144 62.2201C33.4142 62.22 33.414 62.2198 32.4666 63.3828M32.4666 63.3828L33.414 62.2198L33.2366 62.0753L33.0242 61.9903L32.4666 63.3828ZM67.8488 39.049L67.0078 40.291L67.0987 40.3526L67.1977 40.4003L67.8488 39.049ZM67.8488 39.049C67.1977 40.4003 67.1978 40.4003 67.1979 40.4004L67.1987 40.4007L67.2017 40.4022L67.2141 40.4082L67.2637 40.4321L67.4581 40.5261C67.6286 40.6086 67.879 40.73 68.1981 40.8851C68.8363 41.1955 69.749 41.6409 70.8458 42.1806C73.0401 43.2605 75.9683 44.7166 78.9089 46.2239C81.8537 47.7332 84.7939 49.2852 87.0191 50.5587C88.0088 51.125 88.8358 51.6243 89.4518 52.0324C88.9376 52.3484 88.2666 52.7208 87.4613 53.1383C85.2929 54.2623 82.3354 55.6193 79.3346 56.9367C76.3403 58.2511 73.329 59.5148 71.0645 60.4505C69.9327 60.9181 68.9885 61.3034 68.3276 61.5717C67.9972 61.7058 67.7376 61.8106 67.5609 61.8818L67.3594 61.9629L67.3081 61.9835L67.2953 61.9886L67.2922 61.9899L67.2914 61.9902C67.2913 61.9902 67.2912 61.9903 67.8488 63.3828M67.8488 39.049C67.0078 40.291 67.0076 40.2909 67.0073 40.2907L67.0068 40.2904L67.0055 40.2894L67.0015 40.2868L66.9888 40.2781L66.9452 40.2481C66.9085 40.2227 66.8569 40.1866 66.7938 40.1418C66.668 40.0523 66.4941 39.9261 66.3 39.7778C65.934 39.4979 65.4143 39.0777 65.0319 38.6516C64.8616 38.4619 64.5864 38.1299 64.4398 37.7105C64.3612 37.4855 64.278 37.1181 64.3814 36.6912C64.496 36.2181 64.7921 35.8662 65.1329 35.6504C65.6768 35.3058 66.3047 35.3208 66.6448 35.3431C67.0764 35.3714 67.5949 35.4639 68.1993 35.6092C69.5284 35.9285 71.785 36.9453 74.2863 38.1919C76.8471 39.4682 79.8318 41.0723 82.6979 42.6705C85.5654 44.2695 88.3267 45.8696 90.4434 47.1409C91.5008 47.7759 92.4045 48.3332 93.0831 48.7697C93.4215 48.9874 93.713 49.1808 93.9434 49.3423C94.1396 49.4797 94.3874 49.6592 94.5619 49.8341C94.5941 49.8664 94.627 49.8993 94.6604 49.9326C94.8713 50.143 95.1 50.3713 95.2669 50.5729C95.4524 50.7969 95.8154 51.2742 95.8154 51.9538C95.8154 52.617 95.4672 53.0941 95.2936 53.3163C95.1317 53.5236 94.9092 53.7617 94.6975 53.9883C94.664 54.0242 94.6308 54.0598 94.5981 54.0949C94.3938 54.3144 94.1083 54.5111 93.9104 54.6427C93.6689 54.8033 93.367 54.989 93.022 55.1923C92.3296 55.6003 91.4108 56.11 90.3413 56.6831C88.1993 57.8309 85.41 59.2555 82.5256 60.6692C79.6418 62.0826 76.6499 63.4916 74.1039 64.6059C71.6158 65.6949 69.4016 66.5718 68.1559 66.8324C67.582 66.9524 67.0816 67.0248 66.6596 67.0346C66.321 67.0424 65.6995 67.0267 65.1735 66.6478C64.8531 66.417 64.5954 66.0688 64.4964 65.6294C64.4058 65.2274 64.4773 64.8796 64.5524 64.6543C64.6918 64.2363 64.9567 63.9074 65.123 63.718C65.4919 63.298 65.9902 62.893 66.3365 62.6274C66.521 62.486 66.6863 62.3661 66.8059 62.2812C66.8659 62.2386 66.9151 62.2043 66.9502 62.1801L66.992 62.1515L67.0043 62.1431L67.0082 62.1404L67.0096 62.1395L67.0101 62.1392C67.0104 62.139 67.0106 62.1389 67.8488 63.3828M67.8488 63.3828L67.2912 61.9903L67.143 62.0496L67.0106 62.1389L67.8488 63.3828ZM9.91558 51.3561C9.91567 51.3561 9.91728 51.3578 9.92014 51.3612C9.91692 51.3578 9.91548 51.3561 9.91558 51.3561ZM34.1245 36.0103C34.1277 36.0061 34.1295 36.0039 34.1296 36.004C34.1296 36.004 34.1281 36.0061 34.1245 36.0103ZM40.4089 67.9143C40.3518 68.4234 40.3811 69.1094 40.8111 69.6946C41.3034 70.3647 42.042 70.5411 42.6245 70.4919C43.1605 70.4466 43.6344 70.2207 43.9965 69.9811C44.3762 69.7299 44.73 69.4001 45.0345 69.0212C45.1544 68.8719 45.2506 68.6982 45.2995 68.6091C45.3657 68.4883 45.4399 68.3434 45.5191 68.1831C45.6783 67.861 45.879 67.4335 46.1125 66.9227C46.5806 65.8987 47.1973 64.5023 47.9084 62.8626C49.3315 59.5813 51.1432 55.3012 52.9207 51.0233C54.698 46.7461 56.4444 42.4635 57.736 39.1785C58.3811 37.5379 58.917 36.1353 59.2874 35.1029C59.4717 34.5892 59.6214 34.1496 59.7238 33.811C59.7743 33.644 59.8204 33.4782 59.8532 33.3289C59.8694 33.255 59.8873 33.1628 59.899 33.0636C59.9072 32.994 59.9297 32.794 59.8886 32.5574C59.8081 32.0936 59.6212 31.5864 59.2334 31.1748C58.8187 30.7347 58.2606 30.5 57.6707 30.5C56.6094 30.5 55.7776 31.2224 55.2567 31.8985C55.1451 32.0435 55.0542 32.2118 55.007 32.3003C54.9435 32.4191 54.872 32.5621 54.7953 32.7209C54.641 33.0399 54.4457 33.4637 54.218 33.9706C53.7616 34.9868 53.1588 36.3729 52.462 38.0015C51.0678 41.2606 49.2873 45.5143 47.5294 49.7738C45.7715 54.0332 44.0338 58.304 42.725 61.5974C42.0711 63.2431 41.5217 64.651 41.1299 65.6936C40.9344 66.2136 40.7746 66.6523 40.6596 66.9882C40.6024 67.1553 40.5525 67.3082 40.5139 67.4388C40.4857 67.5342 40.4302 67.7243 40.4089 67.9143Z" fill="#318BAF" stroke="#318BAF" stroke-width="3"/>
</svg>
