<svg width="100" height="100" viewBox="0 0 100 100" fill="none" xmlns="http://www.w3.org/2000/svg">
<path d="M49.5471 72.9049L49.5126 72.9035H49.4781C44.3405 72.9035 41.5757 72.5181 40.191 72.0347C39.8382 71.9115 39.6344 71.8018 39.5233 71.7292C39.5761 71.5985 39.6765 71.4051 39.854 71.1301C39.9697 70.9509 40.0972 70.768 40.2411 70.5625L40.2681 70.5241C40.3985 70.3381 40.546 70.1277 40.6805 69.9212C40.9158 69.5599 41.3501 68.8737 41.4178 68.0876C41.4582 67.6181 41.3743 67.0711 41.0379 66.5642C40.7176 66.0817 40.2723 65.7928 39.8729 65.6176C31.3203 61.8664 25.3322 53.2562 25.3322 43.2264C25.3322 29.7362 36.1586 18.8291 49.4781 18.8291C62.7976 18.8291 73.624 29.7362 73.624 43.2264C73.624 53.2562 67.6358 61.8664 59.0832 65.6176C58.6733 65.7974 58.2555 66.0793 57.9399 66.5173C57.617 66.9655 57.4891 67.4552 57.4714 67.8986C57.4405 68.6743 57.7497 69.3906 57.9407 69.8048C58.0489 70.0398 58.1699 70.2779 58.2759 70.4866L58.2839 70.5024C58.3973 70.7258 58.4974 70.9232 58.5877 71.1176C58.7772 71.5252 58.8561 71.781 58.8746 71.9408C58.8762 71.9551 58.8772 71.9669 58.8777 71.9766C58.8755 71.9787 58.8732 71.9809 58.8706 71.9832C58.8484 72.0034 58.8112 72.0334 58.753 72.0708C58.6345 72.1471 58.4408 72.246 58.1385 72.3495C56.8527 72.7899 54.299 73.0925 49.5471 72.9049Z" stroke="#318BAF" stroke-width="3.5"/>
<path d="M46.2096 73.6482V51.4321C46.2096 51.4321 47.4667 44.7353 44.4497 42.2211C41.4327 39.7069 33.6388 43.4782 37.4101 48.2551C41.1813 53.032 51.9701 51.0207 51.9701 51.0207C51.9701 51.0207 58.529 52.2778 61.2946 48.2551C64.0602 44.2324 57.5233 38.4498 54.0035 42.2211C50.4837 45.9923 52.495 55.0433 52.495 55.0433M49.2266 23.8677C62.5867 26.261 66.204 30.945 67.8314 43.4782M52.495 65.8543V73.6482" stroke="#318BAF" stroke-width="3.5" stroke-linecap="round"/>
<rect x="39.9143" y="81.1807" width="18.1218" height="4.0425" stroke="#318BAF" stroke-width="3.5"/>
<rect x="41.9257" y="74.644" width="14.0992" height="4.0425" stroke="#318BAF" stroke-width="3.5"/>
<path d="M42.9314 86.7119H55.0192V92.7562C55.0046 92.7943 54.9854 92.8404 54.9608 92.893C54.8604 93.1072 54.6703 93.4278 54.3253 93.7623C53.6712 94.3966 52.2513 95.2799 49.2267 95.2799C46.2061 95.2799 44.6143 94.3964 43.8032 93.6949C43.3827 93.3312 43.1298 92.9801 42.9886 92.7423C42.967 92.7059 42.9479 92.6721 42.9314 92.6414V86.7119Z" stroke="#318BAF" stroke-width="3.5"/>
<circle cx="42.6899" cy="25.6276" r="1.5085" fill="#318BAF"/>
<circle cx="52.2436" cy="60.323" r="1.5085" fill="#318BAF"/>
<path d="M27.3534 64.5972L20.5652 71.3854" stroke="#318BAF" stroke-width="3.5" stroke-linecap="round"/>
<path d="M77.6368 14.5654L70.8485 21.3537" stroke="#318BAF" stroke-width="3.5" stroke-linecap="round"/>
<path d="M48.9995 3.00002L48.9971 12.6001" stroke="#318BAF" stroke-width="3.5" stroke-linecap="round"/>
<path d="M71.1638 64.8485L77.6294 71.9446" stroke="#318BAF" stroke-width="3.5" stroke-linecap="round"/>
<path d="M20.8804 14.5653L27.3461 21.6614" stroke="#318BAF" stroke-width="3.5" stroke-linecap="round"/>
<path d="M8.99987 42.8471L18.5953 43.1454" stroke="#318BAF" stroke-width="3.5" stroke-linecap="round"/>
<path d="M80.4 42.9698L89.9999 43.0221" stroke="#318BAF" stroke-width="3.5" stroke-linecap="round"/>
</svg>
