<svg width="100" height="100" viewBox="0 0 100 100" fill="none" xmlns="http://www.w3.org/2000/svg">
<path d="M9.93849 85.536C9.93849 86.8328 11.1238 88 12.4408 88H26.9282C28.2452 88 29.4305 86.8328 29.4305 85.536V38.5903C29.4305 37.1638 28.2452 36.1263 26.9282 36.1263H12.4408C11.1238 36.1263 9.93849 37.1638 9.93849 38.5903V85.536Z" fill="#318BAF"/>
<path d="M29.9407 21.3747C29.9407 27.0808 25.1994 31.6198 19.4045 31.6198C13.6096 31.6198 9 27.0808 9 21.3747C9 15.6686 13.6096 11 19.4045 11C25.1994 11 29.9407 15.6686 29.9407 21.3747Z" fill="#318BAF"/>
<path d="M41.766 85.5418C41.766 86.8356 42.7743 88 43.8946 88H55.6582C57.2267 88 57.6748 86.7062 57.6748 85.5418V60.7015C57.6748 55.3971 61.708 51.6451 66.1894 51.6451C71.2309 51.6451 73.8077 56.1733 73.8077 61.3484V85.5418C73.8077 86.8356 74.704 88 75.9363 88H87.924C89.0443 88 90.0526 86.8356 90.0526 85.5418V61.9953C90.0526 47.2463 82.6584 34.9556 68.7662 34.9556C60.5877 34.9556 55.4341 39.8719 52.9694 42.9769L51.1768 37.8018C50.8407 36.8962 49.8324 36.2493 49.1602 36.2493H43.8946C42.7743 36.2493 41.766 37.2843 41.766 38.7075V85.5418Z" fill="#318BAF"/>
</svg>
