<svg width="100" height="100" viewBox="0 0 100 100" fill="none" xmlns="http://www.w3.org/2000/svg">
<path d="M29.4111 12.4463C33.1758 15.065 43.4879 28.4875 43.4879 30.6151C43.4878 32.7427 36.9406 37.6538 37.1042 40.4361C37.2679 43.2184 42.6695 48.7843 45.9431 52.2213C49.2167 55.6583 55.7641 60.5694 58.0556 60.4054C60.3472 60.2415 64.603 53.6947 67.3856 54.3492C70.1682 55.0036 83.9176 65.9709 85.0633 68.4259C86.2091 70.8809 79.9891 83.3207 68.695 82.9937C57.4009 82.6666 37.1042 63.8425 34.3216 61.2238C31.539 58.6052 15.1707 39.4537 14.516 29.3057C13.8612 19.1576 25.6464 9.82767 29.4111 12.4463Z" stroke="#2E7D9D" stroke-width="7.13757"/>
</svg>
