<svg width="100" height="100" viewBox="0 0 100 100" fill="none" xmlns="http://www.w3.org/2000/svg">
<path fill-rule="evenodd" clip-rule="evenodd" d="M32.7878 82.8462V90H67.7933V82.8462L57.3956 80.4231V63.1518C57.0784 62.2427 56.7609 61.322 56.4476 60.4021C55.1206 56.5063 53.8516 52.5776 52.9777 49.5648C52.5445 48.0711 52.1881 46.7335 51.9739 45.7153C51.8712 45.227 51.7732 44.6842 51.7381 44.1874C51.722 43.9605 51.7032 43.5515 51.7762 43.0901C51.8129 42.8581 51.8954 42.4601 52.111 42.0164C52.3282 41.5696 52.7854 40.8687 53.6662 40.4034C54.8087 39.7997 55.8973 40.0115 56.1042 40.0518L56.1201 40.0549C56.4966 40.1264 56.8181 40.2411 57.0228 40.3207C57.1456 40.3685 57.2704 40.4212 57.3956 40.4773V19.2692H71.8368L74.0319 31.1538H82.5811V9H18V31.1538H26.5492L28.8598 19.2692H43.1855V80.4231L32.7878 82.8462Z" fill="#318BAF"/>
<path d="M65.8616 75.0125C64.755 74.4899 54.6962 43.8336 55.3013 43.4981C55.9064 43.1625 79.7444 59.3731 80.3528 62.0967C80.9613 64.8202 72.6619 60.8995 69.9568 62.3297C67.2516 63.76 66.9682 75.5352 65.8616 75.0125Z" fill="#318BAF" stroke="#318BAF" stroke-width="3"/>
</svg>
