<svg width="1124" height="419" viewBox="0 0 1124 419" fill="none" xmlns="http://www.w3.org/2000/svg">
<path fill-rule="evenodd" clip-rule="evenodd" d="M43.9835 0.00834345C40.776 0.224163 40.4201 4.76198 37.2682 5.35723C35.5859 5.6754 34.2317 4.68943 32.6665 5.12277C30.5681 5.7039 28.6167 7.88354 28.0348 10.1305C27.9439 10.1019 27.8532 10.0733 27.7971 10.1305C27.7406 10.188 27.8536 10.3169 27.7971 10.3744C27.6841 10.4895 27.4308 10.2594 27.3178 10.3744C27.2613 10.432 27.3743 10.5609 27.3178 10.6184C27.2049 10.7335 26.9515 10.5034 26.8386 10.6184C26.7821 10.6759 26.895 10.8049 26.8386 10.8624C26.7544 10.9481 25.8059 10.7782 25.6404 10.8624C25.5394 10.9139 25.5018 11.055 25.4008 11.1064C25.3918 11.111 25.3803 11.1076 25.3708 11.1102C25.6608 10.838 25.8961 10.5104 25.9942 10.0427C23.9468 10.5356 21.7707 12.9233 20.9339 15.4297C21.4812 16.9161 21.0822 17.4574 20.7036 18.9428C22.1136 21.5887 25.7651 20.5079 27.8346 22.4579C26.1936 24.3777 23.596 25.3245 22.0834 27.376C20.2363 33.6155 14.3354 35.7273 9.43179 38.8536C7.66522 41.4868 4.29283 42.2351 4.37143 45.4129C4.4414 48.2667 8.77865 51.8011 7.13094 54.5475C5.4746 54.0908 3.76497 53.6511 2.76139 53.1426V54.313C4.38897 54.4496 7.8091 54.3724 7.59151 57.1247H4.37143C4.36185 56.8026 4.47997 56.6097 4.6017 56.4213C3.71698 57.7067 0.389162 56.5052 0 58.2951C1.79149 58.2912 5.11394 56.899 7.82178 57.8262C8.25503 59.6493 9.01246 61.1434 9.89239 62.5117C9.17064 62.4014 9.28356 63.1429 8.74101 63.2151C7.6502 68.9197 10.3351 72.6302 12.6519 75.6287C13.2193 75.6599 13.7613 75.6636 14.0335 75.3942C13.9875 76.0647 14.0036 76.6739 14.7225 76.5665C15.6235 76.3362 14.5619 75.5608 15.183 75.1616C14.9855 76.1425 16.212 75.673 16.5628 76.0976C16.9232 75.7618 16.7449 74.8774 17.4839 74.9272C17.5059 75.2951 17.4537 75.738 17.9444 75.6287C18.5579 73.3556 19.8491 72.2782 21.8553 72.8189C19.205 73.7636 19.9383 77.7654 21.8553 78.9092C21.1096 81.2936 22.1593 84.7425 23.9259 84.5307C22.9406 83.4044 23.5071 80.4542 23.9259 78.9092C24.6745 84.5485 26.154 89.443 30.1358 91.7913C28.8686 92.3749 27.7178 93.0778 26.6854 93.8996C27.678 95.0927 30.1372 93.9294 31.0326 93.709C31.0443 93.7931 31.0633 93.8809 31.0326 93.9434C31.0073 93.9949 30.938 94.014 30.9127 94.0654C30.8949 94.1018 30.9127 94.1468 30.9127 94.1874V94.3056C29.0213 97.5491 27.1021 101.478 28.2955 106.08C29.2377 109.713 32.3796 113.259 33.8164 115.918C33.594 113.099 32.626 111.038 31.9761 108.655C34.0878 111.58 34.0566 116.686 37.2667 118.493C36.4635 116.032 35.1282 114.114 34.277 111.701H35.4264C33.366 109.39 32.2774 104.94 33.6536 101.385C33.6581 101.384 33.665 101.389 33.6685 101.385C33.6782 101.375 33.6687 101.357 33.6685 101.343C33.6789 101.317 33.686 101.289 33.6966 101.263C33.7299 101.27 33.7667 101.285 33.7883 101.263C33.8166 101.234 33.7705 101.177 33.7883 101.141C33.8602 100.995 34.0759 100.921 34.1478 100.775C34.1657 100.739 34.1299 100.689 34.1478 100.653C34.1716 100.604 34.313 100.477 34.4155 100.38C33.7983 104.511 33.8883 110.077 36.3475 112.17C37.3703 116.617 38.4768 121.738 40.4868 124.586C40.7792 125 40.4937 126.296 41.6382 125.522C39.7806 121.715 40.2112 114.672 41.8685 110.532C42.1039 111.539 42.301 112.465 42.4676 113.324C42.5258 113.057 42.5858 112.787 42.6548 112.51C42.6565 112.503 42.6526 112.494 42.6548 112.487C42.6559 112.484 42.6607 112.483 42.6623 112.48C42.704 112.313 42.7287 112.16 42.7746 111.99C42.7755 112.039 42.7744 112.056 42.7746 112.102C42.7643 112.2 42.761 112.292 42.7521 112.388C42.7236 112.42 42.6806 112.442 42.6623 112.48C42.6597 112.49 42.6574 112.5 42.6548 112.51C42.6096 112.69 42.7124 112.921 42.6548 113.097C42.6369 113.152 42.5602 113.168 42.535 113.219C42.5171 113.256 42.535 113.301 42.535 113.341V113.702C42.9339 115.832 43.1218 117.47 43.1808 118.711C44.1733 122.836 46.3509 125.971 47.6197 129.973C47.9906 131.143 48.4303 132.354 49.2297 133.488C47.5148 125.816 47.3276 124.565 47.3276 124.565C48.2137 126.659 48.931 129.467 49.4562 131.614C50.3716 131.141 49.5839 128.932 50.6076 128.57C50.7313 130.551 50.9859 132.4 52.2177 133.254C52.0691 132.061 51.1088 129.649 52.4479 129.039C51.7348 133.033 53.1593 136.276 55.4377 137.939C54.8501 135.413 52.7479 133.184 53.3671 130.209C54.4128 130.692 54.1149 134.559 55.4377 133.253C56.1767 135.156 57.2085 136.76 58.6578 137.939C59.3086 137.57 58.1385 136.685 58.888 136.3C61.2863 138.728 61.9483 143.093 60.4981 147.073C61.9646 146.38 62.0731 144.305 62.5687 142.622C63.0154 145.444 60.8877 146.812 60.9586 148.478C62.0657 148.814 61.9782 146.722 62.5687 147.308C62.4834 148.548 61.5804 148.954 61.6495 150.352C63.5071 149.277 63.2678 146.067 64.8695 144.731C65.6335 146.592 62.3796 148.757 64.1787 150.119C64.1366 148.671 64.5123 147.646 65.0998 146.839C65.7478 150.256 66.0384 153.708 66.2493 156.911C66.4314 159.669 67.1102 162.461 67.4007 165.344C67.7611 168.928 66.8809 173.034 67.1704 176.822C67.5893 182.308 69.7956 186.399 66.9401 190.408C65.9279 189.221 64.8412 189.561 63.2596 189.003C62.5838 189.382 61.6174 189.724 62.1101 190.642C62.1763 190.662 62.2172 190.657 62.2693 190.663C62.2792 190.712 62.2864 190.763 62.3048 190.81C62.3153 190.836 62.3521 190.845 62.3647 190.871C62.3687 190.878 62.3661 190.969 62.3647 191.054C62.3277 191.041 62.2956 191.016 62.2599 191C61.8698 190.759 61.4888 190.508 61.1928 190.171C60.857 190.146 60.5385 190.139 60.2342 190.146C58.5155 190.188 57.2823 190.724 56.3253 191.542C56.3217 191.543 56.3174 191.54 56.314 191.542C56.2147 191.643 56.2297 191.635 56.2466 191.614C56.2635 191.593 56.2824 191.558 56.1942 191.603C56.1223 191.639 56.0864 191.749 56.0145 191.786C55.9966 191.794 55.9687 191.771 55.9546 191.786C55.9303 191.81 55.9613 191.858 55.9546 191.891C55.9486 191.896 55.9418 191.902 55.9359 191.908C55.921 191.905 55.9044 191.898 55.8947 191.908C55.8919 191.911 55.8956 191.938 55.8947 191.948C54.5837 193.298 53.8201 195.206 52.9105 196.965C48.8578 197.504 51.2841 205.119 54.9811 203.991C55.1594 205.605 56.7615 205.769 57.2819 207.035C59.1597 206.556 61.2622 206.037 63.4937 206.568C63.6437 206.036 63.5209 205.78 63.3645 205.56C63.3674 205.563 63.3703 205.566 63.3739 205.568C63.3868 205.575 63.4803 205.568 63.4993 205.568H64.0928C64.1069 205.568 64.1259 205.578 64.1359 205.568C64.1459 205.558 64.1259 205.536 64.1359 205.526C64.1459 205.516 64.1648 205.526 64.1789 205.526C64.2188 205.526 64.3664 205.534 64.3905 205.526C64.4094 205.519 64.4138 205.491 64.4317 205.482C64.4569 205.469 64.4978 205.502 64.5178 205.482C64.5278 205.472 64.5078 205.448 64.5178 205.438C64.5319 205.424 64.5879 205.452 64.602 205.438C64.612 205.428 64.592 205.406 64.602 205.396C64.612 205.386 64.6332 205.406 64.6432 205.396C64.6532 205.386 64.6332 205.362 64.6432 205.352C64.6573 205.338 64.7152 205.367 64.7293 205.352C64.7393 205.342 64.7293 205.325 64.7293 205.31C64.7434 205.31 64.7579 205.317 64.7705 205.31C64.7884 205.302 64.7957 205.276 64.8136 205.267C64.8232 205.262 64.8736 205.265 64.909 205.267C65.1485 206.216 66.9177 206.419 67.4046 206.334C67.3989 206.307 67.3889 206.284 67.3821 206.258H67.4401C67.4543 206.258 67.4713 206.268 67.4813 206.258C67.4913 206.248 67.4713 206.226 67.4813 206.216C67.4913 206.206 67.5144 206.226 67.5244 206.216C67.5344 206.206 67.5144 206.182 67.5244 206.172C67.5344 206.162 67.5548 206.179 67.5674 206.172C67.5853 206.163 67.5908 206.139 67.6086 206.13C67.6254 206.121 67.7273 206.139 67.7359 206.13C67.7459 206.12 67.7259 206.096 67.7359 206.086C67.7459 206.076 67.769 206.096 67.779 206.086C67.789 206.076 67.769 206.053 67.779 206.042C67.789 206.032 67.8102 206.053 67.8202 206.042C67.8302 206.032 67.8102 206.011 67.8202 206C67.8401 205.98 67.8863 206.021 67.9063 206C67.9163 205.99 67.8963 205.967 67.9063 205.957C67.9163 205.947 67.9375 205.967 67.9475 205.957C67.9575 205.947 67.9375 205.923 67.9475 205.913C67.9575 205.903 67.9806 205.923 67.9905 205.913C68.0005 205.903 67.9805 205.881 67.9905 205.871C68.0005 205.861 68.0236 205.881 68.0336 205.871C68.0536 205.851 68.0136 205.803 68.0336 205.783C68.0436 205.773 68.0648 205.793 68.0748 205.783C68.0848 205.773 68.0648 205.751 68.0748 205.741C68.0848 205.731 68.1079 205.751 68.1178 205.741C68.1294 205.729 68.1063 205.591 68.1178 205.568C68.1268 205.55 68.1501 205.544 68.159 205.526C68.1654 205.513 68.159 205.496 68.159 205.482V204.973C68.2989 204.837 68.4669 204.71 68.7806 204.7C68.8745 205.264 68.3605 205.209 68.5503 205.871C70.9696 205.936 72.6923 204.662 75.4529 205.167C76.1842 203.96 77.8745 203.729 78.6729 202.59C78.3741 199.039 79.8926 197.339 80.4197 194.63C80.4222 194.627 80.4256 194.625 80.4271 194.622C80.4318 194.612 80.4301 194.601 80.4271 194.59C80.429 194.58 80.431 194.571 80.4328 194.561C80.4406 194.561 80.4514 194.567 80.4571 194.561C80.4642 194.554 80.4571 194.541 80.4571 194.531V194.439C80.2889 194.05 80.5387 194.292 80.7436 193.922C82.883 190.146 83.624 185.642 83.7333 180.571C83.7439 180.08 83.2305 179.483 83.2746 178.93C83.3954 177.424 84.6395 174.97 85.1149 172.841C86.2958 167.553 87.2427 161.062 87.8744 155.274C89.2183 152.269 91.1696 149.883 92.4761 146.84C92.4531 147.563 91.6887 149.214 92.9348 149.183C93.1054 148.108 93.0167 146.767 93.3953 145.903C95.7178 148.761 92.1002 149.503 91.3247 152.228C90.0796 156.605 89.5432 159.687 92.7063 163.001C93.3618 162.95 92.5892 162.413 92.6989 162.176C92.7419 162.2 92.8188 162.138 92.8561 162.176C92.8961 162.217 92.8162 162.309 92.8561 162.349C92.8961 162.39 92.976 162.324 93.0265 162.349C93.0281 162.35 93.0287 162.352 93.0302 162.353C93.2283 162.96 93.3556 163.638 93.3953 164.406C98.4697 167.126 103.09 170.311 107.429 173.777C107.451 173.409 107.399 172.965 107.89 173.074C111.784 173.948 119.277 173.953 121.462 172.371C121.344 172.337 121.214 172.318 121.09 172.292C121.098 172.286 121.108 172.279 121.112 172.27C121.119 172.257 121.106 172.241 121.112 172.228C121.121 172.209 121.147 172.202 121.155 172.184C121.162 172.171 121.15 172.156 121.155 172.142C121.165 172.111 121.187 172.085 121.197 172.054C121.201 172.041 121.19 172.025 121.197 172.012C121.205 171.994 121.231 171.987 121.24 171.968C121.249 171.95 121.244 171.924 121.24 171.898C121.391 171.899 121.535 171.909 121.696 171.9C123.838 169.762 126.736 167.887 127.448 163.703C127.321 163.697 127.246 163.64 127.17 163.583C127.171 163.551 127.176 163.482 127.17 163.471C127.162 163.452 127.136 163.445 127.127 163.427C127.115 163.401 127.147 163.361 127.127 163.341C127.117 163.331 127.096 163.351 127.086 163.341C127.076 163.331 127.093 163.312 127.086 163.299C127.078 163.281 127.052 163.273 127.043 163.255C127.032 163.232 127.054 163.192 127.043 163.169C127.035 163.151 127.009 163.144 127 163.126C126.985 163.096 127.015 162.925 127 162.91C126.99 162.9 126.969 162.92 126.959 162.91C126.938 162.889 126.98 162.802 126.959 162.78C126.949 162.77 126.926 162.791 126.916 162.78C126.896 162.76 126.936 162.715 126.916 162.695C126.906 162.685 126.885 162.705 126.875 162.695C126.873 162.693 126.875 162.674 126.875 162.666C126.986 162.701 127.054 162.718 127.213 162.769C126.779 161.649 126.688 160.182 125.373 159.959C125.1 160.729 123.958 160.355 123.761 159.725C124.157 159.737 124.352 159.545 124.452 159.256C122.762 156.752 116.471 156.953 113.871 158.552C112.206 157.984 111.12 156.825 108.578 157.148C105.273 151.788 115.946 146.889 116.861 142.392C116.675 142.382 116.503 142.36 116.342 142.325C116.34 142.301 116.342 142.278 116.342 142.254C116.382 142.254 116.434 142.283 116.462 142.254C116.49 142.226 116.434 142.161 116.462 142.132C116.518 142.075 116.63 142.169 116.702 142.132C116.725 142.121 116.813 142.021 116.878 141.953C119.979 142.777 124.588 139.792 128.829 140.516C129.226 140.374 128.812 139.406 129.29 139.346C131.677 140.355 135.04 139.395 137.112 138.642C136.952 138.182 135.829 138.699 135.732 138.173C136.657 138.012 137.045 138.397 137.803 138.408C140.457 135.962 146.017 136.296 149.535 135.831C149.603 136.464 148.573 137.169 149.305 137.704C149.582 136.809 150.556 135.395 151.375 135.831C151.184 136.417 150.742 136.752 150.683 137.472C150.999 141.912 152.217 145.436 153.905 148.48C154.333 148.512 154.672 148.633 154.824 148.947C156.773 156.097 159.648 162.306 167.017 163.937C169.244 168.776 173.779 171.264 178.06 174.009C177.944 176.236 180.119 176.128 181.05 177.288C181.485 183.037 181.298 190.957 174.608 190.874C174.092 190.307 173.555 189.76 172.998 189.234C171.211 189.211 169.87 189.642 168.396 189.938C168.177 190.374 169.086 190.719 168.396 190.874C165.028 189.094 160.671 192.704 161.956 196.263C160.7 196.803 160.005 198.112 160.805 199.541C160.142 199.881 159.145 199.88 159.195 200.946C159.677 201.516 160.217 200.739 160.575 201.181C160.689 202.781 162.216 202.943 163.334 203.521C163.875 203.447 163.472 202.412 164.255 202.585C163.774 203.103 164.075 204.146 164.485 204.459C165.154 204.475 165.778 204.445 166.099 204.107C166.128 204.105 166.16 204.094 166.185 204.107C166.236 204.132 166.255 204.203 166.305 204.229C166.377 204.265 166.488 204.171 166.545 204.229C166.573 204.257 166.516 204.322 166.545 204.351C166.562 204.368 166.674 204.359 166.788 204.351C166.517 204.508 166.332 204.809 166.326 205.395C167.736 205.535 171.61 206.527 173.444 204.473C173.454 204.473 173.47 204.472 173.485 204.473C173.944 204.619 174.209 205.119 174.606 204.694C174.582 204.511 174.538 204.367 174.492 204.229H175.172C175.201 204.229 175.231 204.232 175.26 204.229C175.272 204.303 175.288 204.366 175.297 204.459C178.176 204.346 180.826 204 183.577 203.756C183.684 203.53 183.815 203.331 183.946 203.131C184.036 203.131 184.156 203.133 184.158 203.131C184.186 203.102 184.13 203.037 184.158 203.009C184.198 202.968 184.358 203.049 184.397 203.009C184.426 202.98 184.369 202.915 184.397 202.887C184.426 202.858 184.482 202.905 184.517 202.887C185.016 202.633 184.389 202.895 184.637 202.643C184.665 202.614 184.729 202.671 184.757 202.643C184.785 202.614 184.729 202.549 184.757 202.521C184.785 202.492 184.848 202.549 184.877 202.521C184.933 202.463 184.82 202.334 184.877 202.277C184.905 202.248 184.968 202.305 184.997 202.277C185.053 202.219 184.94 202.09 184.997 202.033C184.999 202.03 185.006 202.034 185.01 202.033C185.114 202.249 185.275 202.408 185.648 202.351C185.675 201.888 185.793 201.553 185.933 201.179H186.195C186.227 201.179 186.259 201.182 186.292 201.179C186.229 201.255 186.173 201.339 186.103 201.409C186.279 202.167 186.742 202.634 187.485 202.814C187.844 202.321 188.29 201.918 188.864 201.644C188.849 200.196 189.102 198.08 188.174 198.832C187.929 197.959 189.037 198.462 188.864 197.662C191.078 191.406 196.341 188.255 198.754 182.202C200.187 180.537 201.052 178.294 202.435 176.579C202.286 174.648 202.857 173.39 202.207 172.128C197.15 168.473 192.572 161.515 189.325 155.498C188.863 154.641 188.16 153.429 187.945 152.452C187.876 152.144 188.418 152.037 188.404 151.75C188.366 150.942 187.466 149.951 187.945 149.173C188.47 149.238 188.808 149.116 188.865 148.704C188.523 148.505 188.371 148.116 188.406 147.534C191.376 144.545 194.551 141.767 196.917 138.165C200.368 141.521 204.718 143.964 210.031 145.425C210.641 146.445 211.328 147.383 212.791 147.532C215.589 149.915 217.555 153.474 220.612 155.73C224.088 158.294 228.716 159.425 232.575 161.821C232.913 161.889 233.335 161.573 233.631 161.478C233.641 161.482 233.659 161.477 233.666 161.486C233.706 161.526 233.626 161.616 233.666 161.657C233.725 161.717 233.837 161.648 233.925 161.638C233.821 161.895 233.437 161.869 233.264 162.056C235.196 165.476 238.784 167.211 241.546 169.785C243.495 171.727 242.72 174.661 243.845 176.812C244.325 177.73 245.567 177.697 246.606 178.685C248.453 180.442 248.193 183.32 250.287 184.074C250.958 185.579 252.362 187.581 251.667 189.696C251.007 189.275 250.592 188.604 249.366 188.758C248.958 189.026 248.318 189.567 248.907 190.165C249.114 190.249 249.244 190.258 249.338 190.227V190.321C249.378 190.321 249.338 190.484 249.338 190.443V190.931C249.378 190.931 249.338 191.094 249.338 191.053V190.931C249.258 190.931 249.394 191.117 249.338 191.175C249.309 191.204 249.246 191.146 249.218 191.175C249.213 191.18 249.219 191.188 249.218 191.194C248.933 190.983 248.614 190.898 248.274 190.927C246.772 191.054 244.92 193.188 244.309 194.389C244.323 195.235 244.883 195.523 245 196.263C244.062 196.947 243.245 197.754 243.39 199.541C243.478 199.611 243.589 199.658 243.706 199.698C243.705 199.874 243.699 200.064 243.706 200.081C243.732 200.132 243.801 200.151 243.826 200.203C243.844 200.239 243.808 200.288 243.826 200.325C243.852 200.376 243.921 200.395 243.946 200.447C243.982 200.519 243.89 200.633 243.946 200.691C243.974 200.72 244.038 200.662 244.066 200.691C244.074 200.699 244.063 200.726 244.066 200.74C243.575 201.283 243.38 201.963 243.62 202.82C245.336 203.655 247.698 204.998 249.796 204.696C249.803 204.703 249.808 204.712 249.817 204.717C249.854 204.735 250.123 204.717 250.177 204.717H250.895C250.895 204.676 251.055 204.717 251.015 204.717C251.066 204.691 251.085 204.621 251.135 204.595C251.159 204.583 251.186 204.591 251.214 204.595C251.215 204.629 251.21 204.659 251.212 204.694C254.433 204.149 255.766 202.471 258.573 203.055C258.67 202.607 258.657 202.046 259.264 202.117C259.365 202.56 258.951 203.527 259.724 203.287C260.068 202.285 261.01 201.893 261.396 200.935H261.559C261.599 200.935 261.651 200.964 261.679 200.935C261.707 200.906 261.651 200.842 261.679 200.813C261.724 200.767 261.853 200.807 261.948 200.813C261.773 201.178 261.704 201.602 261.789 202.115C263.009 202.186 262.483 200.479 263.63 200.475C263.594 201.057 263.586 201.612 264.088 201.646C265.221 200.016 267.18 199.889 267.54 197.898C268.185 194.33 263.244 191.136 264.779 187.591C262.998 186.671 263.959 182.961 262.939 181.268C264.184 174.209 261.449 166.605 256.454 164.846C256.428 164.816 256.406 164.781 256.371 164.764C256.321 164.738 256.259 164.764 256.203 164.764C256.146 164.706 256.104 164.627 256.033 164.591C255.982 164.565 255.915 164.616 255.864 164.591C255.663 164.488 255.559 164.187 255.36 164.08C253.412 161.707 250.106 159.873 249.596 156.907C247.155 155.646 246.602 152.461 244.766 150.582C242.357 139.513 238.022 131.528 234.413 122.006C234.49 114.793 229.916 109.59 227.743 103.268C232.177 104.291 236.785 103.746 241.315 105.142C244.474 104.773 248.056 104.891 250.977 104.907C251.654 104.123 252.735 103.939 253.737 103.735C259.808 102.498 264.878 99.9568 269.611 96.943C271.218 95.0535 272.588 91.7131 274.211 90.6181C274.572 87.6716 275.908 84.6718 276.053 81.249C276.605 68.2118 263.802 56.6269 253.276 54.0776C250.216 53.3358 247.234 53.457 244.766 51.2659C243.048 51.3762 242.626 50.9606 241.085 50.5644C240.994 50.9675 241.426 51.1634 241.085 51.2659C239.921 50.3504 237.08 50.876 237.174 49.8609C235.465 50.5236 232.366 49.0226 231.193 49.8609C231.333 50.266 232.283 49.8429 232.342 50.3299C227.817 51.1087 224.568 53.1888 221.531 55.4824C222.033 55.5029 223.02 54.8409 223.143 55.2479C220.589 57.4107 217.896 59.4327 215.552 61.8072C215.988 61.794 216.502 61.6096 217.06 61.3669C217.066 61.3858 217.072 61.4047 217.06 61.4165C217.04 61.4368 216.994 61.3961 216.974 61.4165C216.954 61.4368 216.994 61.4838 216.974 61.5041C216.934 61.5448 216.846 61.4635 216.806 61.5041C216.786 61.5245 216.826 61.5696 216.806 61.5899C216.786 61.6102 216.742 61.5696 216.722 61.5899C216.702 61.6102 216.742 61.6554 216.722 61.6757C216.702 61.696 216.655 61.6554 216.636 61.6757C216.616 61.696 216.655 61.7411 216.636 61.7615C216.596 61.8022 216.507 61.7208 216.467 61.7615C216.447 61.7818 216.48 61.8234 216.467 61.8492C216.449 61.8855 216.399 61.8986 216.381 61.9349C216.368 61.9607 216.381 61.992 216.381 62.0207V62.4287C215.278 62.6279 214.285 62.9407 214.174 64.15C214.567 63.9499 215.072 63.7509 215.619 63.5743C215.648 63.5649 215.674 63.5532 215.703 63.5438C215.706 63.5552 215.71 63.5671 215.703 63.5743C215.683 63.5947 215.639 63.554 215.619 63.5743C215.599 63.5947 215.632 63.6344 215.619 63.6601C215.601 63.6965 215.553 63.7095 215.535 63.7459C215.509 63.7973 215.575 63.8787 215.535 63.9194C215.515 63.9397 215.47 63.899 215.451 63.9194C215.431 63.9397 215.47 63.9848 215.451 64.0051C215.431 64.025 215.387 63.9878 215.366 64.0051C215.363 64.0418 215.354 64.0909 215.364 64.0909C215.393 64.0909 215.344 64.0255 215.364 64.0051H215.366C215.371 63.9505 215.364 63.9198 215.28 64.0909C215.263 64.1251 215.298 64.3325 215.28 64.3502C215.26 64.3705 215.216 64.3298 215.196 64.3502C215.168 64.379 215.162 64.3975 215.17 64.4112C214.135 64.4754 213.578 64.5747 213.255 65.7893C214.046 65.3733 215.111 65.2369 215.524 64.436H215.864C215.976 64.8481 215.954 64.9898 215.784 65.5568C214.657 66.1267 212.95 66.1062 212.564 67.4306C215.174 66.3345 216.512 65.1044 220.155 66.0238C219.779 67.0915 221.271 66.765 220.614 67.4306C233.527 71.0944 236.902 60.1122 248.45 60.1679C249.443 59.2641 251.66 59.4064 253.511 59.9334C259.895 61.7517 269.421 70.8703 270.305 79.6093C270.81 84.6102 267.755 89.1122 265.245 91.0868C263.073 92.7948 259.464 94.3669 256.732 94.8364C255.21 95.0979 253.302 94.7927 251.672 95.0689C249.634 95.4144 247.666 95.8668 245.23 95.5379C237.771 94.5316 232.534 90.1093 226.827 86.6378C216.337 80.2568 205.537 73.8494 195.31 69.5375V68.836C190.372 68.9727 185.832 66.8754 181.048 66.0243C173.744 64.7243 166.221 64.2617 157.583 65.0884C151.199 65.6993 143.446 66.5718 137.108 66.9622C132.349 67.255 124.956 67.4305 122.155 64.8538C122.021 64.7299 122.549 64.4023 122.385 64.1505C121.306 62.4932 119.045 61.6971 116.634 61.5751C117.425 61.0598 118.988 61.4229 119.854 61.5751C119.895 60.2839 117.975 60.9903 117.325 60.4028C117.838 59.8318 118.996 57.8046 117.555 57.3586C117.81 58.0095 117.975 59.34 117.095 59.4669C118.118 56.4043 114.63 55.1389 114.564 53.142C114.175 52.6774 113.508 52.4989 112.954 52.2042C112.398 49.2791 107.434 48.9826 106.283 51.5027C107.854 49.8894 111.775 50.3625 112.034 52.2042C111.288 52.0685 110.962 52.3635 110.422 52.4386C109.495 50.3022 106.713 51.7123 105.132 52.2042C105.012 51.8577 104.791 51.6147 104.671 51.2682C106.99 50.3586 110.848 47.1479 112.723 50.5648C111.855 44.4786 105.098 51.3895 101.681 51.5027C101.561 51.1562 101.34 50.9113 101.221 50.5648C101.745 50.2427 102.086 51.1689 102.142 50.5648C101.797 50.2906 101.199 50.2742 100.99 49.8633C101.766 49.9424 103.31 50.4557 103.982 49.8633C102.566 49.2719 105.706 49.707 105.362 48.691C102.555 49.3595 98.2314 49.4718 98.0004 46.8172C99.42 48.4676 104.643 49.4545 106.052 47.0516C104.05 47.6275 100.937 48.3183 99.3802 46.8172C102.17 47.8595 104.185 46.1338 106.741 45.6468C103.644 45.7688 98.3895 48.5392 98.0004 43.304C98.4576 43.3069 98.2918 43.9437 98.9196 43.7729C99.8983 41.3047 101.983 40.0059 101.22 37.2136C100.599 34.9406 98.4054 34.593 96.6207 33.2315C96.7539 33.2185 96.8668 33.1848 96.9932 33.1648H97.0718C97.0785 33.1648 97.0857 33.1671 97.0924 33.1648C97.1074 33.1597 97.1201 33.1477 97.1355 33.1438C97.2863 33.1054 97.0271 33.2097 97.2403 33.1229C97.2432 33.1218 97.2451 33.1202 97.248 33.1191C98.569 32.613 99.5046 31.8657 100.037 30.9327C100.972 30.6176 101.844 30.7671 102.6 32.2956C102.653 31.3821 102.107 31.0806 101.911 30.4218C99.6637 29.156 98.4354 31.4117 96.6209 31.5922C90.4642 32.2052 92.9438 25.3738 89.7183 21.2849C90.1238 21.4888 90.4314 22.0686 90.6394 21.2849C89.2443 18.4431 87.2352 16.2261 84.2143 15.0401C84.2097 15.028 84.2157 15.054 84.2012 15.0096C84.1792 14.9423 84.2394 15.018 84.1712 14.9486C84.1667 14.9396 84.1757 14.9272 84.1712 14.9181C84.1586 14.8924 84.124 14.8828 84.1113 14.8571C84.1068 14.8481 84.1169 14.8351 84.1113 14.8266C84.0957 14.8027 84.0671 14.7896 84.0514 14.7656C84.0459 14.7571 84.0559 14.7442 84.0514 14.7351C84.0451 14.7223 84.0278 14.7175 84.0215 14.7046C84.017 14.6956 84.026 14.6832 84.0215 14.6741C83.9592 14.5472 84.0236 14.7067 83.9615 14.6436C83.9545 14.6364 83.9661 14.6222 83.9615 14.6131C83.9552 14.6003 83.9379 14.5955 83.9316 14.5826C83.931 14.5815 83.9317 14.5801 83.9316 14.5788C84.4099 14.7205 84.8375 14.8475 85.1185 14.9601C84.8089 13.011 82.0968 13.5103 80.7472 12.6193C81.3482 12.6856 81.7354 12.5327 81.6664 11.9159C80.7184 11.6494 79.0481 12.4734 77.2968 12.1503C75.4632 11.2846 75.5247 8.48991 73.6163 7.69936C71.9079 3.01688 63.0265 1.36853 58.9537 4.69713C58.9622 4.63199 58.9921 4.56087 58.9499 4.51795C58.8935 4.46044 58.7818 4.55432 58.7103 4.51795C58.6093 4.46651 58.5717 4.3254 58.4707 4.27395C58.4033 4.23966 58.3031 4.31274 58.2442 4.27395C59.5574 3.72198 60.7541 3.05173 62.1138 2.54695C61.8838 2.01992 60.8585 3.05326 60.502 2.31249C61.0435 2.02164 62.1585 1.54004 61.6533 0.907558C60.4633 2.03179 59.0021 2.90276 57.3924 3.32088C57.3945 3.31235 57.3977 3.30339 57.3924 3.298C57.3783 3.28362 57.3504 3.3071 57.3325 3.298C57.3072 3.28514 57.2926 3.25733 57.2726 3.237C57.2526 3.21667 57.2379 3.18886 57.2127 3.176C57.1948 3.16691 57.1669 3.19038 57.1528 3.176C57.1387 3.16163 57.1669 3.12938 57.1528 3.115C57.1387 3.10063 57.1107 3.1241 57.0929 3.115C57.0692 3.10295 57.0586 3.07234 57.0367 3.05782C58.2737 2.99665 59.3272 2.39584 60.0433 0.673095C58.5509 1.10253 57.213 2.27517 55.4416 2.07803C54.5828 1.98238 54.1474 1.21602 53.371 0.907624C52.0527 0.383032 50.7622 0.135942 49.5444 0.152758C47.0002 0.187889 44.7818 1.38709 43.2652 3.60306H43.0144C42.9944 3.60306 42.9723 3.59396 42.9545 3.60306C42.9292 3.61592 42.9198 3.6512 42.8946 3.66406C42.8588 3.68225 42.8105 3.64587 42.7747 3.66406C43.6204 2.42973 44.5942 1.32726 45.5492 0.20429C44.9582 0.0345857 44.4423 -0.0228803 43.9841 0.00795111L43.9835 0.00834345ZM251.016 204.721H250.896C250.896 204.762 250.98 204.739 251.016 204.721ZM249.338 190.447V190.325C249.298 190.325 249.338 190.407 249.338 190.447ZM43.1783 118.714C42.943 117.736 42.773 116.703 42.6991 115.588C42.681 115.574 42.6621 115.561 42.6523 115.541C42.6165 115.468 42.7088 115.354 42.6523 115.297C42.624 115.268 42.5607 115.325 42.5325 115.297C42.5042 115.268 42.5325 115.215 42.5325 115.175V113.705C42.508 113.574 42.491 113.462 42.4651 113.328C40.7756 121.087 43.457 124.57 43.1783 118.714V118.714ZM44.0901 3.4116C44.0898 3.41532 44.0927 3.42035 44.0901 3.42304C44.0888 3.42434 44.0752 3.42246 44.0713 3.42304C44.0776 3.41932 44.0839 3.41534 44.0901 3.4116ZM7.81937 59.0008C5.32241 59.2682 2.87529 59.5889 2.06821 61.578C3.93829 60.6713 5.93491 59.8928 7.81937 59.0008ZM215.954 63.4671C215.955 63.4758 215.96 63.4861 215.954 63.4919C215.941 63.5052 215.905 63.4956 215.875 63.4919C215.902 63.4839 215.927 63.4749 215.954 63.4671ZM29.6738 99.0564C29.623 102.099 30.4696 105.351 30.8233 108.66C29.5513 106.425 28.5792 102.248 29.6738 99.0564ZM245.63 195.205C245.666 195.212 245.714 195.178 245.741 195.205C245.76 195.225 245.745 195.26 245.741 195.29C245.724 195.303 245.701 195.316 245.686 195.329C245.674 195.283 245.648 195.247 245.63 195.205L245.63 195.205Z" fill="black"/>
<path fill-rule="evenodd" clip-rule="evenodd" d="M1080.02 0.00834345C1083.22 0.224163 1083.58 4.76198 1086.73 5.35723C1088.41 5.6754 1089.77 4.68943 1091.33 5.12277C1093.43 5.7039 1095.38 7.88354 1095.97 10.1305C1096.06 10.1019 1096.15 10.0733 1096.2 10.1305C1096.26 10.188 1096.15 10.3169 1096.2 10.3744C1096.32 10.4895 1096.57 10.2594 1096.68 10.3744C1096.74 10.432 1096.63 10.5609 1096.68 10.6184C1096.8 10.7335 1097.05 10.5034 1097.16 10.6184C1097.22 10.6759 1097.1 10.8049 1097.16 10.8624C1097.25 10.9481 1098.19 10.7782 1098.36 10.8624C1098.46 10.9139 1098.5 11.055 1098.6 11.1064C1098.61 11.111 1098.62 11.1076 1098.63 11.1102C1098.34 10.838 1098.1 10.5104 1098.01 10.0427C1100.05 10.5356 1102.23 12.9233 1103.07 15.4297C1102.52 16.9161 1102.92 17.4574 1103.3 18.9428C1101.89 21.5887 1098.23 20.5079 1096.17 22.4579C1097.81 24.3777 1100.4 25.3245 1101.92 27.376C1103.76 33.6155 1109.66 35.7273 1114.57 38.8536C1116.33 41.4868 1119.71 42.2351 1119.63 45.4129C1119.56 48.2667 1115.22 51.8011 1116.87 54.5475C1118.53 54.0908 1120.24 53.6511 1121.24 53.1426V54.313C1119.61 54.4496 1116.19 54.3724 1116.41 57.1247H1119.63C1119.64 56.8026 1119.52 56.6097 1119.4 56.4213C1120.28 57.7067 1123.61 56.5052 1124 58.2951C1122.21 58.2912 1118.89 56.899 1116.18 57.8262C1115.74 59.6493 1114.99 61.1434 1114.11 62.5117C1114.83 62.4014 1114.72 63.1429 1115.26 63.2151C1116.35 68.9197 1113.66 72.6302 1111.35 75.6287C1110.78 75.6599 1110.24 75.6636 1109.97 75.3942C1110.01 76.0647 1110 76.6739 1109.28 76.5665C1108.38 76.3362 1109.44 75.5608 1108.82 75.1616C1109.01 76.1425 1107.79 75.673 1107.44 76.0976C1107.08 75.7618 1107.26 74.8774 1106.52 74.9272C1106.49 75.2951 1106.55 75.738 1106.06 75.6287C1105.44 73.3556 1104.15 72.2782 1102.14 72.8189C1104.8 73.7636 1104.06 77.7654 1102.14 78.9092C1102.89 81.2936 1101.84 84.7425 1100.07 84.5307C1101.06 83.4044 1100.49 80.4542 1100.07 78.9092C1099.33 84.5485 1097.85 89.443 1093.86 91.7913C1095.13 92.3749 1096.28 93.0778 1097.31 93.8996C1096.32 95.0927 1093.86 93.9294 1092.97 93.709C1092.96 93.7931 1092.94 93.8809 1092.97 93.9434C1092.99 93.9949 1093.06 94.014 1093.09 94.0654C1093.11 94.1018 1093.09 94.1468 1093.09 94.1874V94.3056C1094.98 97.5491 1096.9 101.478 1095.7 106.08C1094.76 109.713 1091.62 113.259 1090.18 115.918C1090.41 113.099 1091.37 111.038 1092.02 108.655C1089.91 111.58 1089.94 116.686 1086.73 118.493C1087.54 116.032 1088.87 114.114 1089.72 111.701H1088.57C1090.63 109.39 1091.72 104.94 1090.35 101.385C1090.34 101.384 1090.34 101.389 1090.33 101.385C1090.32 101.375 1090.33 101.357 1090.33 101.343C1090.32 101.317 1090.31 101.289 1090.3 101.263C1090.27 101.27 1090.23 101.285 1090.21 101.263C1090.18 101.234 1090.23 101.177 1090.21 101.141C1090.14 100.995 1089.92 100.921 1089.85 100.775C1089.83 100.739 1089.87 100.689 1089.85 100.653C1089.83 100.604 1089.69 100.477 1089.58 100.38C1090.2 104.511 1090.11 110.077 1087.65 112.17C1086.63 116.617 1085.52 121.738 1083.51 124.586C1083.22 125 1083.51 126.296 1082.36 125.522C1084.22 121.715 1083.79 114.672 1082.13 110.532C1081.9 111.539 1081.7 112.465 1081.53 113.324C1081.47 113.057 1081.41 112.787 1081.35 112.51C1081.34 112.503 1081.35 112.494 1081.35 112.487C1081.34 112.484 1081.34 112.483 1081.34 112.48C1081.3 112.313 1081.27 112.16 1081.23 111.99C1081.22 112.039 1081.23 112.056 1081.23 112.102C1081.24 112.2 1081.24 112.292 1081.25 112.388C1081.28 112.42 1081.32 112.442 1081.34 112.48C1081.34 112.49 1081.34 112.5 1081.35 112.51C1081.39 112.69 1081.29 112.921 1081.35 113.097C1081.36 113.152 1081.44 113.168 1081.47 113.219C1081.48 113.256 1081.47 113.301 1081.47 113.341V113.702C1081.07 115.832 1080.88 117.47 1080.82 118.711C1079.83 122.836 1077.65 125.971 1076.38 129.973C1076.01 131.143 1075.57 132.354 1074.77 133.488C1076.49 125.816 1076.67 124.565 1076.67 124.565C1075.79 126.659 1075.07 129.467 1074.54 131.614C1073.63 131.141 1074.42 128.932 1073.39 128.57C1073.27 130.551 1073.01 132.4 1071.78 133.254C1071.93 132.061 1072.89 129.649 1071.55 129.039C1072.27 133.033 1070.84 136.276 1068.56 137.939C1069.15 135.413 1071.25 133.184 1070.63 130.209C1069.59 130.692 1069.89 134.559 1068.56 133.253C1067.82 135.156 1066.79 136.76 1065.34 137.939C1064.69 137.57 1065.86 136.685 1065.11 136.3C1062.71 138.728 1062.05 143.093 1063.5 147.073C1062.04 146.38 1061.93 144.305 1061.43 142.622C1060.98 145.444 1063.11 146.812 1063.04 148.478C1061.93 148.814 1062.02 146.722 1061.43 147.308C1061.52 148.548 1062.42 148.954 1062.35 150.352C1060.49 149.277 1060.73 146.067 1059.13 144.731C1058.37 146.592 1061.62 148.757 1059.82 150.119C1059.86 148.671 1059.49 147.646 1058.9 146.839C1058.25 150.256 1057.96 153.708 1057.75 156.911C1057.57 159.669 1056.89 162.461 1056.6 165.344C1056.24 168.928 1057.12 173.034 1056.83 176.822C1056.41 182.308 1054.2 186.399 1057.06 190.408C1058.07 189.221 1059.16 189.561 1060.74 189.003C1061.42 189.382 1062.38 189.724 1061.89 190.642C1061.82 190.662 1061.78 190.657 1061.73 190.663C1061.72 190.712 1061.71 190.763 1061.7 190.81C1061.68 190.836 1061.65 190.845 1061.64 190.871C1061.63 190.878 1061.63 190.969 1061.64 191.054C1061.67 191.041 1061.7 191.016 1061.74 191C1062.13 190.759 1062.51 190.508 1062.81 190.171C1063.14 190.146 1063.46 190.139 1063.77 190.146C1065.48 190.188 1066.72 190.724 1067.67 191.542C1067.68 191.543 1067.68 191.54 1067.69 191.542C1067.79 191.643 1067.77 191.635 1067.75 191.614C1067.74 191.593 1067.72 191.558 1067.81 191.603C1067.88 191.639 1067.91 191.749 1067.99 191.786C1068 191.794 1068.03 191.771 1068.05 191.786C1068.07 191.81 1068.04 191.858 1068.05 191.891C1068.05 191.896 1068.06 191.902 1068.06 191.908C1068.08 191.905 1068.1 191.898 1068.11 191.908C1068.11 191.911 1068.1 191.938 1068.11 191.948C1069.42 193.298 1070.18 195.206 1071.09 196.965C1075.14 197.504 1072.72 205.119 1069.02 203.991C1068.84 205.605 1067.24 205.769 1066.72 207.035C1064.84 206.556 1062.74 206.037 1060.51 206.568C1060.36 206.036 1060.48 205.78 1060.64 205.56C1060.63 205.563 1060.63 205.566 1060.63 205.568C1060.61 205.575 1060.52 205.568 1060.5 205.568H1059.91C1059.89 205.568 1059.87 205.578 1059.86 205.568C1059.85 205.558 1059.87 205.536 1059.86 205.526C1059.85 205.516 1059.84 205.526 1059.82 205.526C1059.78 205.526 1059.63 205.534 1059.61 205.526C1059.59 205.519 1059.59 205.491 1059.57 205.482C1059.54 205.469 1059.5 205.502 1059.48 205.482C1059.47 205.472 1059.49 205.448 1059.48 205.438C1059.47 205.424 1059.41 205.452 1059.4 205.438C1059.39 205.428 1059.41 205.406 1059.4 205.396C1059.39 205.386 1059.37 205.406 1059.36 205.396C1059.35 205.386 1059.37 205.362 1059.36 205.352C1059.34 205.338 1059.28 205.367 1059.27 205.352C1059.26 205.342 1059.27 205.325 1059.27 205.31C1059.26 205.31 1059.24 205.317 1059.23 205.31C1059.21 205.302 1059.2 205.276 1059.19 205.267C1059.18 205.262 1059.13 205.265 1059.09 205.267C1058.85 206.216 1057.08 206.419 1056.6 206.334C1056.6 206.307 1056.61 206.284 1056.62 206.258H1056.56C1056.55 206.258 1056.53 206.268 1056.52 206.258C1056.51 206.248 1056.53 206.226 1056.52 206.216C1056.51 206.206 1056.49 206.226 1056.48 206.216C1056.47 206.206 1056.49 206.182 1056.48 206.172C1056.47 206.162 1056.45 206.179 1056.43 206.172C1056.41 206.163 1056.41 206.139 1056.39 206.13C1056.37 206.121 1056.27 206.139 1056.26 206.13C1056.25 206.12 1056.27 206.096 1056.26 206.086C1056.25 206.076 1056.23 206.096 1056.22 206.086C1056.21 206.076 1056.23 206.053 1056.22 206.042C1056.21 206.032 1056.19 206.053 1056.18 206.042C1056.17 206.032 1056.19 206.011 1056.18 206C1056.16 205.98 1056.11 206.021 1056.09 206C1056.08 205.99 1056.1 205.967 1056.09 205.957C1056.08 205.947 1056.06 205.967 1056.05 205.957C1056.04 205.947 1056.06 205.923 1056.05 205.913C1056.04 205.903 1056.02 205.923 1056.01 205.913C1056 205.903 1056.02 205.881 1056.01 205.871C1056 205.861 1055.98 205.881 1055.97 205.871C1055.95 205.851 1055.99 205.803 1055.97 205.783C1055.96 205.773 1055.94 205.793 1055.93 205.783C1055.92 205.773 1055.94 205.751 1055.93 205.741C1055.92 205.731 1055.89 205.751 1055.88 205.741C1055.87 205.729 1055.89 205.591 1055.88 205.568C1055.87 205.55 1055.85 205.544 1055.84 205.526C1055.83 205.513 1055.84 205.496 1055.84 205.482V204.973C1055.7 204.837 1055.53 204.71 1055.22 204.7C1055.13 205.264 1055.64 205.209 1055.45 205.871C1053.03 205.936 1051.31 204.662 1048.55 205.167C1047.82 203.96 1046.13 203.729 1045.33 202.59C1045.63 199.039 1044.11 197.339 1043.58 194.63C1043.58 194.627 1043.57 194.625 1043.57 194.622C1043.57 194.612 1043.57 194.601 1043.57 194.59C1043.57 194.58 1043.57 194.571 1043.57 194.561C1043.56 194.561 1043.55 194.567 1043.54 194.561C1043.54 194.554 1043.54 194.541 1043.54 194.531V194.439C1043.71 194.05 1043.46 194.292 1043.26 193.922C1041.12 190.146 1040.38 185.642 1040.27 180.571C1040.26 180.08 1040.77 179.483 1040.73 178.93C1040.6 177.424 1039.36 174.97 1038.89 172.841C1037.7 167.553 1036.76 161.062 1036.13 155.274C1034.78 152.269 1032.83 149.883 1031.52 146.84C1031.55 147.563 1032.31 149.214 1031.07 149.183C1030.89 148.108 1030.98 146.767 1030.6 145.903C1028.28 148.761 1031.9 149.503 1032.68 152.228C1033.92 156.605 1034.46 159.687 1031.29 163.001C1030.64 162.95 1031.41 162.413 1031.3 162.176C1031.26 162.2 1031.18 162.138 1031.14 162.176C1031.1 162.217 1031.18 162.309 1031.14 162.349C1031.1 162.39 1031.02 162.324 1030.97 162.349C1030.97 162.35 1030.97 162.352 1030.97 162.353C1030.77 162.96 1030.64 163.638 1030.6 164.406C1025.53 167.126 1020.91 170.311 1016.57 173.777C1016.55 173.409 1016.6 172.965 1016.11 173.074C1012.22 173.948 1004.72 173.953 1002.54 172.371C1002.66 172.337 1002.79 172.318 1002.91 172.292C1002.9 172.286 1002.89 172.279 1002.89 172.27C1002.88 172.257 1002.89 172.241 1002.89 172.228C1002.88 172.209 1002.85 172.202 1002.84 172.184C1002.84 172.171 1002.85 172.156 1002.84 172.142C1002.83 172.111 1002.81 172.085 1002.8 172.054C1002.8 172.041 1002.81 172.025 1002.8 172.012C1002.79 171.994 1002.77 171.987 1002.76 171.968C1002.75 171.95 1002.76 171.924 1002.76 171.898C1002.61 171.899 1002.47 171.909 1002.3 171.9C1000.16 169.762 997.264 167.887 996.552 163.703C996.679 163.697 996.754 163.64 996.83 163.583C996.829 163.551 996.824 163.482 996.83 163.471C996.838 163.452 996.864 163.445 996.873 163.427C996.885 163.401 996.853 163.361 996.873 163.341C996.883 163.331 996.904 163.351 996.914 163.341C996.924 163.331 996.907 163.312 996.914 163.299C996.922 163.281 996.948 163.273 996.957 163.255C996.968 163.232 996.946 163.192 996.957 163.169C996.965 163.151 996.991 163.144 997 163.126C997.015 163.096 996.985 162.925 997 162.91C997.01 162.9 997.031 162.92 997.041 162.91C997.062 162.889 997.02 162.802 997.041 162.78C997.051 162.77 997.074 162.791 997.084 162.78C997.104 162.76 997.064 162.715 997.084 162.695C997.094 162.685 997.115 162.705 997.125 162.695C997.127 162.693 997.125 162.674 997.125 162.666C997.014 162.701 996.946 162.718 996.787 162.769C997.221 161.649 997.312 160.182 998.627 159.959C998.9 160.729 1000.04 160.355 1000.24 159.725C999.843 159.737 999.648 159.545 999.548 159.256C1001.24 156.752 1007.53 156.953 1010.13 158.552C1011.79 157.984 1012.88 156.825 1015.42 157.148C1018.73 151.788 1008.05 146.889 1007.14 142.392C1007.33 142.382 1007.5 142.36 1007.66 142.325C1007.66 142.301 1007.66 142.278 1007.66 142.254C1007.62 142.254 1007.57 142.283 1007.54 142.254C1007.51 142.226 1007.57 142.161 1007.54 142.132C1007.48 142.075 1007.37 142.169 1007.3 142.132C1007.27 142.121 1007.19 142.021 1007.12 141.953C1004.02 142.777 999.412 139.792 995.171 140.516C994.774 140.374 995.188 139.406 994.71 139.346C992.323 140.355 988.96 139.395 986.888 138.642C987.048 138.182 988.171 138.699 988.268 138.173C987.343 138.012 986.955 138.397 986.197 138.408C983.543 135.962 977.983 136.296 974.465 135.831C974.397 136.464 975.427 137.169 974.695 137.704C974.418 136.809 973.444 135.395 972.625 135.831C972.816 136.417 973.258 136.752 973.317 137.472C973.001 141.912 971.783 145.436 970.095 148.48C969.667 148.512 969.328 148.633 969.176 148.947C967.227 156.097 964.352 162.306 956.983 163.937C954.756 168.776 950.221 171.264 945.94 174.009C946.056 176.236 943.881 176.128 942.95 177.288C942.515 183.037 942.702 190.957 949.392 190.874C949.908 190.307 950.445 189.76 951.002 189.234C952.789 189.211 954.13 189.642 955.604 189.938C955.823 190.374 954.914 190.719 955.604 190.874C958.972 189.094 963.329 192.704 962.044 196.263C963.3 196.803 963.995 198.112 963.195 199.541C963.858 199.881 964.855 199.88 964.805 200.946C964.323 201.516 963.783 200.739 963.425 201.181C963.311 202.781 961.784 202.943 960.666 203.521C960.125 203.447 960.528 202.412 959.745 202.585C960.226 203.103 959.925 204.146 959.515 204.459C958.846 204.475 958.222 204.445 957.901 204.107C957.872 204.105 957.84 204.094 957.815 204.107C957.764 204.132 957.745 204.203 957.695 204.229C957.623 204.265 957.512 204.171 957.455 204.229C957.427 204.257 957.484 204.322 957.455 204.351C957.438 204.368 957.326 204.359 957.212 204.351C957.483 204.508 957.668 204.809 957.674 205.395C956.264 205.535 952.39 206.527 950.556 204.473C950.546 204.473 950.53 204.472 950.515 204.473C950.056 204.619 949.791 205.119 949.394 204.694C949.418 204.511 949.462 204.367 949.508 204.229H948.828C948.799 204.229 948.769 204.232 948.74 204.229C948.728 204.303 948.712 204.366 948.703 204.459C945.824 204.346 943.174 204 940.423 203.756C940.316 203.53 940.185 203.331 940.054 203.131C939.964 203.131 939.844 203.133 939.842 203.131C939.814 203.102 939.87 203.037 939.842 203.009C939.802 202.968 939.642 203.049 939.603 203.009C939.574 202.98 939.631 202.915 939.603 202.887C939.574 202.858 939.518 202.905 939.483 202.887C938.984 202.633 939.611 202.895 939.363 202.643C939.335 202.614 939.271 202.671 939.243 202.643C939.215 202.614 939.271 202.549 939.243 202.521C939.215 202.492 939.152 202.549 939.123 202.521C939.067 202.463 939.18 202.334 939.123 202.277C939.095 202.248 939.032 202.305 939.003 202.277C938.947 202.219 939.06 202.09 939.003 202.033C939.001 202.03 938.994 202.034 938.99 202.033C938.886 202.249 938.725 202.408 938.352 202.351C938.325 201.888 938.207 201.553 938.067 201.179H937.805C937.773 201.179 937.741 201.182 937.708 201.179C937.771 201.255 937.827 201.339 937.897 201.409C937.721 202.167 937.258 202.634 936.515 202.814C936.156 202.321 935.71 201.918 935.136 201.644C935.151 200.196 934.898 198.08 935.826 198.832C936.071 197.959 934.963 198.462 935.136 197.662C932.922 191.406 927.659 188.255 925.246 182.202C923.813 180.537 922.948 178.294 921.565 176.579C921.714 174.648 921.143 173.39 921.793 172.128C926.85 168.473 931.428 161.515 934.675 155.498C935.137 154.641 935.84 153.429 936.055 152.452C936.124 152.144 935.582 152.037 935.596 151.75C935.634 150.942 936.534 149.951 936.055 149.173C935.53 149.238 935.192 149.116 935.135 148.704C935.477 148.505 935.629 148.116 935.594 147.534C932.624 144.545 929.449 141.767 927.083 138.165C923.632 141.521 919.282 143.964 913.969 145.425C913.359 146.445 912.672 147.383 911.209 147.532C908.411 149.915 906.445 153.474 903.388 155.73C899.912 158.294 895.284 159.425 891.425 161.821C891.087 161.889 890.665 161.573 890.369 161.478C890.359 161.482 890.341 161.477 890.334 161.486C890.294 161.526 890.374 161.616 890.334 161.657C890.275 161.717 890.163 161.648 890.075 161.638C890.179 161.895 890.563 161.869 890.736 162.056C888.804 165.476 885.216 167.211 882.454 169.785C880.505 171.727 881.28 174.661 880.155 176.812C879.675 177.73 878.433 177.697 877.394 178.685C875.547 180.442 875.807 183.32 873.713 184.074C873.042 185.579 871.638 187.581 872.333 189.696C872.993 189.275 873.408 188.604 874.634 188.758C875.042 189.026 875.682 189.567 875.093 190.165C874.886 190.249 874.756 190.258 874.662 190.227V190.321C874.622 190.321 874.662 190.484 874.662 190.443V190.931C874.622 190.931 874.662 191.094 874.662 191.053V190.931C874.742 190.931 874.606 191.117 874.662 191.175C874.691 191.204 874.754 191.146 874.782 191.175C874.787 191.18 874.781 191.188 874.782 191.194C875.067 190.983 875.386 190.898 875.726 190.927C877.228 191.054 879.08 193.188 879.691 194.389C879.677 195.235 879.117 195.523 879 196.263C879.938 196.947 880.755 197.754 880.61 199.541C880.522 199.611 880.411 199.658 880.294 199.698C880.295 199.874 880.301 200.064 880.294 200.081C880.268 200.132 880.199 200.151 880.174 200.203C880.156 200.239 880.192 200.288 880.174 200.325C880.148 200.376 880.079 200.395 880.054 200.447C880.018 200.519 880.11 200.633 880.054 200.691C880.026 200.72 879.962 200.662 879.934 200.691C879.926 200.699 879.937 200.726 879.934 200.74C880.425 201.283 880.62 201.963 880.38 202.82C878.664 203.655 876.302 204.998 874.204 204.696C874.197 204.703 874.192 204.712 874.183 204.717C874.146 204.735 873.877 204.717 873.823 204.717H873.105C873.105 204.676 872.945 204.717 872.985 204.717C872.934 204.691 872.915 204.621 872.865 204.595C872.841 204.583 872.814 204.591 872.786 204.595C872.785 204.629 872.79 204.659 872.788 204.694C869.567 204.149 868.234 202.471 865.427 203.055C865.33 202.607 865.343 202.046 864.736 202.117C864.635 202.56 865.049 203.527 864.276 203.287C863.932 202.285 862.99 201.893 862.604 200.935H862.441C862.401 200.935 862.349 200.964 862.321 200.935C862.293 200.906 862.349 200.842 862.321 200.813C862.276 200.767 862.147 200.807 862.052 200.813C862.227 201.178 862.296 201.602 862.211 202.115C860.991 202.186 861.517 200.479 860.37 200.475C860.406 201.057 860.414 201.612 859.912 201.646C858.779 200.016 856.82 199.889 856.46 197.898C855.815 194.33 860.756 191.136 859.221 187.591C861.002 186.671 860.041 182.961 861.061 181.268C859.816 174.209 862.551 166.605 867.546 164.846C867.572 164.816 867.594 164.781 867.629 164.764C867.679 164.738 867.741 164.764 867.797 164.764C867.854 164.706 867.896 164.627 867.967 164.591C868.018 164.565 868.085 164.616 868.136 164.591C868.337 164.488 868.441 164.187 868.64 164.08C870.588 161.707 873.894 159.873 874.404 156.907C876.845 155.646 877.398 152.461 879.234 150.582C881.643 139.513 885.978 131.528 889.587 122.006C889.51 114.793 894.084 109.59 896.257 103.268C891.823 104.291 887.215 103.746 882.685 105.142C879.526 104.773 875.944 104.891 873.023 104.907C872.346 104.123 871.265 103.939 870.263 103.735C864.192 102.498 859.122 99.9568 854.389 96.943C852.782 95.0535 851.412 91.7131 849.789 90.6181C849.428 87.6716 848.092 84.6718 847.947 81.249C847.395 68.2118 860.198 56.6269 870.724 54.0776C873.784 53.3358 876.766 53.457 879.234 51.2659C880.952 51.3762 881.374 50.9606 882.915 50.5644C883.006 50.9675 882.574 51.1634 882.915 51.2659C884.079 50.3504 886.92 50.876 886.826 49.8609C888.535 50.5236 891.634 49.0226 892.807 49.8609C892.667 50.266 891.717 49.8429 891.658 50.3299C896.183 51.1087 899.432 53.1888 902.469 55.4824C901.967 55.5029 900.98 54.8409 900.857 55.2479C903.411 57.4107 906.104 59.4327 908.448 61.8072C908.012 61.794 907.498 61.6096 906.94 61.3669C906.934 61.3858 906.928 61.4047 906.94 61.4165C906.96 61.4368 907.006 61.3961 907.026 61.4165C907.046 61.4368 907.006 61.4838 907.026 61.5041C907.066 61.5448 907.154 61.4635 907.194 61.5041C907.214 61.5245 907.174 61.5696 907.194 61.5899C907.214 61.6102 907.258 61.5696 907.278 61.5899C907.298 61.6102 907.258 61.6554 907.278 61.6757C907.298 61.696 907.345 61.6554 907.364 61.6757C907.384 61.696 907.345 61.7411 907.364 61.7615C907.404 61.8022 907.493 61.7208 907.533 61.7615C907.553 61.7818 907.52 61.8234 907.533 61.8492C907.551 61.8855 907.601 61.8986 907.619 61.9349C907.632 61.9607 907.619 61.992 907.619 62.0207V62.4287C908.722 62.6279 909.715 62.9407 909.826 64.15C909.433 63.9499 908.928 63.7509 908.381 63.5743C908.352 63.5649 908.326 63.5532 908.297 63.5438C908.294 63.5552 908.29 63.5671 908.297 63.5743C908.317 63.5947 908.361 63.554 908.381 63.5743C908.401 63.5947 908.368 63.6344 908.381 63.6601C908.399 63.6965 908.447 63.7095 908.465 63.7459C908.491 63.7973 908.425 63.8787 908.465 63.9194C908.485 63.9397 908.53 63.899 908.549 63.9194C908.569 63.9397 908.53 63.9848 908.549 64.0051C908.569 64.025 908.613 63.9878 908.634 64.0051C908.637 64.0418 908.646 64.0909 908.636 64.0909C908.607 64.0909 908.656 64.0255 908.636 64.0051H908.634C908.629 63.9505 908.636 63.9198 908.72 64.0909C908.737 64.1251 908.702 64.3325 908.72 64.3502C908.74 64.3705 908.784 64.3298 908.804 64.3502C908.832 64.379 908.838 64.3975 908.83 64.4112C909.865 64.4754 910.422 64.5747 910.745 65.7893C909.954 65.3733 908.889 65.2369 908.476 64.436H908.136C908.024 64.8481 908.046 64.9898 908.216 65.5568C909.343 66.1267 911.05 66.1062 911.436 67.4306C908.826 66.3345 907.488 65.1044 903.845 66.0238C904.221 67.0915 902.729 66.765 903.386 67.4306C890.473 71.0944 887.098 60.1122 875.55 60.1679C874.557 59.2641 872.34 59.4064 870.489 59.9334C864.105 61.7517 854.579 70.8703 853.695 79.6093C853.19 84.6102 856.245 89.1122 858.755 91.0868C860.927 92.7948 864.536 94.3669 867.268 94.8364C868.79 95.0979 870.698 94.7927 872.328 95.0689C874.366 95.4144 876.334 95.8668 878.77 95.5379C886.229 94.5316 891.466 90.1093 897.173 86.6378C907.663 80.2568 918.463 73.8494 928.69 69.5375V68.836C933.628 68.9727 938.168 66.8754 942.952 66.0243C950.256 64.7243 957.779 64.2617 966.417 65.0884C972.801 65.6993 980.554 66.5718 986.892 66.9622C991.651 67.255 999.044 67.4305 1001.85 64.8538C1001.98 64.7299 1001.45 64.4023 1001.61 64.1505C1002.69 62.4932 1004.96 61.6971 1007.37 61.5751C1006.58 61.0598 1005.01 61.4229 1004.15 61.5751C1004.1 60.2839 1006.03 60.9903 1006.68 60.4028C1006.16 59.8318 1005 57.8046 1006.44 57.3586C1006.19 58.0095 1006.03 59.34 1006.91 59.4669C1005.88 56.4043 1009.37 55.1389 1009.44 53.142C1009.82 52.6774 1010.49 52.4989 1011.05 52.2042C1011.6 49.2791 1016.57 48.9826 1017.72 51.5027C1016.15 49.8894 1012.23 50.3625 1011.97 52.2042C1012.71 52.0685 1013.04 52.3635 1013.58 52.4386C1014.51 50.3022 1017.29 51.7123 1018.87 52.2042C1018.99 51.8577 1019.21 51.6147 1019.33 51.2682C1017.01 50.3586 1013.15 47.1479 1011.28 50.5648C1012.15 44.4786 1018.9 51.3895 1022.32 51.5027C1022.44 51.1562 1022.66 50.9113 1022.78 50.5648C1022.26 50.2427 1021.91 51.1689 1021.86 50.5648C1022.2 50.2906 1022.8 50.2742 1023.01 49.8633C1022.23 49.9424 1020.69 50.4557 1020.02 49.8633C1021.43 49.2719 1018.29 49.707 1018.64 48.691C1021.44 49.3595 1025.77 49.4718 1026 46.8172C1024.58 48.4676 1019.36 49.4545 1017.95 47.0516C1019.95 47.6275 1023.06 48.3183 1024.62 46.8172C1021.83 47.8595 1019.82 46.1338 1017.26 45.6468C1020.36 45.7688 1025.61 48.5392 1026 43.304C1025.54 43.3069 1025.71 43.9437 1025.08 43.7729C1024.1 41.3047 1022.02 40.0059 1022.78 37.2136C1023.4 34.9406 1025.59 34.593 1027.38 33.2315C1027.25 33.2185 1027.13 33.1848 1027.01 33.1648H1026.93C1026.92 33.1648 1026.91 33.1671 1026.91 33.1648C1026.89 33.1597 1026.88 33.1477 1026.86 33.1438C1026.71 33.1054 1026.97 33.2097 1026.76 33.1229C1026.76 33.1218 1026.75 33.1202 1026.75 33.1191C1025.43 32.613 1024.5 31.8657 1023.96 30.9327C1023.03 30.6176 1022.16 30.7671 1021.4 32.2956C1021.35 31.3821 1021.89 31.0806 1022.09 30.4218C1024.34 29.156 1025.56 31.4117 1027.38 31.5922C1033.54 32.2052 1031.06 25.3738 1034.28 21.2849C1033.88 21.4888 1033.57 22.0686 1033.36 21.2849C1034.76 18.4431 1036.76 16.2261 1039.79 15.0401C1039.79 15.028 1039.78 15.054 1039.8 15.0096C1039.82 14.9423 1039.76 15.018 1039.83 14.9486C1039.83 14.9396 1039.82 14.9272 1039.83 14.9181C1039.84 14.8924 1039.88 14.8828 1039.89 14.8571C1039.89 14.8481 1039.88 14.8351 1039.89 14.8266C1039.9 14.8027 1039.93 14.7896 1039.95 14.7656C1039.95 14.7571 1039.94 14.7442 1039.95 14.7351C1039.95 14.7223 1039.97 14.7175 1039.98 14.7046C1039.98 14.6956 1039.97 14.6832 1039.98 14.6741C1040.04 14.5472 1039.98 14.7067 1040.04 14.6436C1040.05 14.6364 1040.03 14.6222 1040.04 14.6131C1040.04 14.6003 1040.06 14.5955 1040.07 14.5826C1040.07 14.5815 1040.07 14.5801 1040.07 14.5788C1039.59 14.7205 1039.16 14.8475 1038.88 14.9601C1039.19 13.011 1041.9 13.5103 1043.25 12.6193C1042.65 12.6856 1042.26 12.5327 1042.33 11.9159C1043.28 11.6494 1044.95 12.4734 1046.7 12.1503C1048.54 11.2846 1048.48 8.48991 1050.38 7.69936C1052.09 3.01688 1060.97 1.36853 1065.05 4.69713C1065.04 4.63199 1065.01 4.56087 1065.05 4.51795C1065.11 4.46044 1065.22 4.55432 1065.29 4.51795C1065.39 4.46651 1065.43 4.3254 1065.53 4.27395C1065.6 4.23966 1065.7 4.31274 1065.76 4.27395C1064.44 3.72198 1063.25 3.05173 1061.89 2.54695C1062.12 2.01992 1063.14 3.05326 1063.5 2.31249C1062.96 2.02164 1061.84 1.54004 1062.35 0.907558C1063.54 2.03179 1065 2.90276 1066.61 3.32088C1066.61 3.31235 1066.6 3.30339 1066.61 3.298C1066.62 3.28362 1066.65 3.3071 1066.67 3.298C1066.69 3.28514 1066.71 3.25733 1066.73 3.237C1066.75 3.21667 1066.76 3.18886 1066.79 3.176C1066.81 3.16691 1066.83 3.19038 1066.85 3.176C1066.86 3.16163 1066.83 3.12938 1066.85 3.115C1066.86 3.10063 1066.89 3.1241 1066.91 3.115C1066.93 3.10295 1066.94 3.07234 1066.96 3.05782C1065.73 2.99665 1064.67 2.39584 1063.96 0.673095C1065.45 1.10253 1066.79 2.27517 1068.56 2.07803C1069.42 1.98238 1069.85 1.21602 1070.63 0.907624C1071.95 0.383032 1073.24 0.135942 1074.46 0.152758C1077 0.187889 1079.22 1.38709 1080.73 3.60306H1080.99C1081.01 3.60306 1081.03 3.59396 1081.05 3.60306C1081.07 3.61592 1081.08 3.6512 1081.11 3.66406C1081.14 3.68225 1081.19 3.64587 1081.23 3.66406C1080.38 2.42973 1079.41 1.32726 1078.45 0.20429C1079.04 0.0345857 1079.56 -0.0228803 1080.02 0.00795111L1080.02 0.00834345ZM872.984 204.721H873.104C873.104 204.762 873.02 204.739 872.984 204.721ZM874.662 190.447V190.325C874.702 190.325 874.662 190.407 874.662 190.447ZM1080.82 118.714C1081.06 117.736 1081.23 116.703 1081.3 115.588C1081.32 115.574 1081.34 115.561 1081.35 115.541C1081.38 115.468 1081.29 115.354 1081.35 115.297C1081.38 115.268 1081.44 115.325 1081.47 115.297C1081.5 115.268 1081.47 115.215 1081.47 115.175V113.705C1081.49 113.574 1081.51 113.462 1081.53 113.328C1083.22 121.087 1080.54 124.57 1080.82 118.714V118.714ZM1079.91 3.4116C1079.91 3.41532 1079.91 3.42035 1079.91 3.42304C1079.91 3.42434 1079.92 3.42246 1079.93 3.42304C1079.92 3.41932 1079.92 3.41534 1079.91 3.4116ZM1116.18 59.0008C1118.68 59.2682 1121.12 59.5889 1121.93 61.578C1120.06 60.6713 1118.07 59.8928 1116.18 59.0008ZM908.046 63.4671C908.045 63.4758 908.04 63.4861 908.046 63.4919C908.059 63.5052 908.095 63.4956 908.125 63.4919C908.098 63.4839 908.073 63.4749 908.046 63.4671ZM1094.33 99.0564C1094.38 102.099 1093.53 105.351 1093.18 108.66C1094.45 106.425 1095.42 102.248 1094.33 99.0564ZM878.37 195.205C878.334 195.212 878.286 195.178 878.259 195.205C878.24 195.225 878.255 195.26 878.259 195.29C878.276 195.303 878.299 195.316 878.314 195.329C878.326 195.283 878.352 195.247 878.37 195.205L878.37 195.205Z" fill="black"/>
<path d="M250.829 75.7153H296.973V207.035H343.589V75.7153H390.679V29.3394H250.829V75.7153Z" fill="black"/>
<path d="M572.16 207.035H605.762L687.873 29.576H636.761L586.358 138.181L552.52 64.3579H532.88L499.041 138.181L448.875 29.576H397.763L479.637 207.035H513.239L542.581 143.859L572.16 207.035Z" fill="black"/>
<path d="M688.067 118.542C688.067 167.521 727.585 207.035 776.568 207.035C825.55 207.035 865.304 167.521 865.304 118.542C865.304 69.5634 825.55 29.576 776.568 29.576C727.585 29.576 688.067 69.5634 688.067 118.542ZM818.925 118.305C818.925 141.493 799.994 160.659 776.568 160.659C753.378 160.659 734.447 141.493 734.447 118.305C734.447 94.8808 753.378 75.9519 776.568 75.9519C799.994 75.9519 818.925 94.8808 818.925 118.305Z" fill="black"/>
<path d="M63.3778 241.541H58.8818V419H169.625V414.504H63.3778V241.541Z" fill="black"/>
<path d="M301.61 419V241.541H297.114V419H301.61Z" fill="black"/>
<path d="M430.876 330.27C430.876 379.486 470.393 419 519.613 419C568.832 419 608.586 379.486 608.586 330.27C608.586 281.055 568.832 241.541 519.613 241.541C470.393 241.541 430.876 281.055 430.876 330.27ZM435.372 330.27C435.372 283.421 472.76 246.037 519.613 246.037C566.466 246.037 604.09 283.421 604.09 330.27C604.09 377.12 566.466 414.504 519.613 414.504C472.76 414.504 435.372 377.12 435.372 330.27Z" fill="black"/>
<path d="M872.216 419H879.552V241.541H874.819V414.268L737.809 241.541H730V419H734.733V246.273L872.216 419Z" fill="black"/>
<path d="M1087.45 287.207C1087.45 262.126 1067.1 241.541 1042.02 241.541C1016.93 241.541 996.583 261.89 996.583 286.97C996.583 312.051 1016.93 332.4 1042.02 332.4C1064.73 332.4 1082.95 350.856 1082.95 373.57C1082.95 396.285 1064.73 414.504 1042.02 414.504C1019.3 414.504 1001.08 396.049 1001.08 373.334H996.583C996.583 398.415 1016.93 419 1042.02 419C1067.1 419 1087.45 398.651 1087.45 373.57C1087.45 348.49 1067.1 328.141 1042.02 328.141C1019.3 328.141 1001.08 309.922 1001.08 287.207C1001.08 264.492 1019.3 246.273 1042.02 246.273C1064.73 246.273 1082.95 264.492 1082.95 287.207H1087.45Z" fill="black"/>
</svg>
