<?xml version="1.0" encoding="utf-8"?>
<!-- Generator: Adobe Illustrator 22.1.0, SVG Export Plug-In . SVG Version: 6.00 Build 0)  -->
<svg version="1.1" id="Layer_1" xmlns="http://www.w3.org/2000/svg" xmlns:xlink="http://www.w3.org/1999/xlink" x="0px" y="0px"
	 viewBox="0 0 259.2 259.2" style="enable-background:new 0 0 259.2 259.2;" xml:space="preserve">
<style type="text/css">
	.st0{fill:#011627;}
</style>
<g id="Layer_x0020_1">
	<g id="_2744712251296">
		<path class="st0" d="M124.6,34.5c0-2.9,2.3-5,5-5c2.9,0,5,2.3,5,5v154.8c0,2.9-2.3,5-5,5c-1.5,0-2.8-0.6-3.7-1.5l-47.8-48
			c-2.1-2-2.1-5.2,0-7.2c2-2.1,5.2-2.1,7.2,0l39.2,39.2V34.5z"/>
		<path class="st0" d="M124.6,34.5c0-2.9,2.3-5,5-5c2.9,0,5,2.3,5,5V177l39.2-39.2c2-2.1,5.2-2.1,7.2,0c2.1,2,2.1,5.2,0,7.2
			l-47.8,48c-0.9,0.9-2.2,1.5-3.7,1.5c-2.9,0-5-2.3-5-5C124.6,189.4,124.6,34.5,124.6,34.5z M247.1,165.6c0-2.9,2.3-5,5-5
			c2.9,0,5,2.3,5,5v88.6c0,2.9-2.3,5-5,5H7.1c-2.9,0-5-2.3-5-5v-88.6c0-2.9,2.3-5,5-5s5,2.3,5,5v83.5h235V165.6z"/>
	</g>
</g>
</svg>
