<svg width="640" height="389" viewBox="0 0 640 389" fill="none" xmlns="http://www.w3.org/2000/svg">
<path d="M476.44 234L471 228.878L471.511 228.197L472.022 228.679C471.943 228.364 471.929 228.033 471.979 227.711C472.044 227.386 472.182 227.085 472.38 226.836C472.64 226.477 472.991 226.215 473.387 226.085C473.788 225.96 474.213 225.973 474.607 226.122C475.048 226.282 475.456 226.539 475.807 226.877C476.185 227.222 476.494 227.654 476.712 228.143C476.907 228.576 476.981 229.065 476.923 229.546C476.872 229.993 476.708 230.414 476.45 230.761C476.279 230.997 476.058 231.181 475.807 231.298C475.578 231.404 475.333 231.456 475.086 231.451L477 233.253L476.44 234ZM473.496 230.074C473.868 230.485 474.356 230.737 474.876 230.786C475.064 230.794 475.25 230.754 475.421 230.669C475.593 230.583 475.744 230.455 475.865 230.294C475.988 230.129 476.076 229.935 476.122 229.725C476.168 229.516 476.17 229.298 476.129 229.088C475.989 228.502 475.671 227.989 475.23 227.637C474.856 227.227 474.366 226.975 473.845 226.923C473.657 226.911 473.47 226.947 473.297 227.03C473.125 227.112 472.972 227.238 472.85 227.398C472.729 227.567 472.645 227.765 472.605 227.977C472.564 228.188 472.567 228.407 472.614 228.617C472.748 229.203 473.06 229.718 473.496 230.074V230.074Z" fill="#3F3D56"/>
<path d="M477.877 229L477.034 225.333L474 225.033L474.707 224.064L476.149 224.264C476.423 224.303 476.648 224.34 476.827 224.376C476.754 224.09 476.693 223.833 476.644 223.604L476.268 221.925L476.944 221L477.659 224.389L481 224.722L480.306 225.673L478.388 225.417L477.873 225.345L478.562 228.062L477.877 229Z" fill="#3F3D56"/>
<path d="M460.688 239.804L456.858 244.374L461.414 248.216L465.244 243.646L460.688 239.804Z" fill="#3F3D56"/>
<path d="M466.815 232.493L462.985 237.062L467.541 240.904L471.371 236.335L466.815 232.493Z" fill="#3F3D56"/>
<path d="M476.44 234L471 228.878L471.511 228.197L472.022 228.679C471.943 228.364 471.929 228.033 471.979 227.711C472.044 227.386 472.182 227.085 472.38 226.836C472.64 226.477 472.991 226.215 473.387 226.085C473.788 225.96 474.213 225.973 474.607 226.122C475.048 226.282 475.456 226.539 475.807 226.877C476.185 227.222 476.494 227.654 476.712 228.143C476.907 228.576 476.981 229.065 476.923 229.546C476.872 229.993 476.708 230.414 476.45 230.761C476.279 230.997 476.058 231.181 475.807 231.298C475.578 231.404 475.333 231.456 475.086 231.451L477 233.253L476.44 234ZM473.496 230.074C473.868 230.485 474.356 230.737 474.876 230.786C475.064 230.794 475.25 230.754 475.421 230.669C475.593 230.583 475.744 230.455 475.865 230.294C475.988 230.129 476.076 229.935 476.122 229.725C476.168 229.516 476.17 229.298 476.129 229.088C475.989 228.502 475.671 227.989 475.23 227.637C474.856 227.227 474.366 226.975 473.845 226.923C473.657 226.911 473.47 226.947 473.297 227.03C473.125 227.112 472.972 227.238 472.85 227.398C472.729 227.567 472.645 227.765 472.605 227.977C472.564 228.188 472.567 228.407 472.614 228.617C472.748 229.203 473.06 229.718 473.496 230.074V230.074Z" fill="#3F3D56"/>
<path d="M477.877 229L477.034 225.333L474 225.033L474.707 224.064L476.149 224.264C476.423 224.303 476.648 224.34 476.827 224.376C476.754 224.09 476.693 223.833 476.644 223.604L476.268 221.925L476.944 221L477.659 224.389L481 224.722L480.306 225.673L478.388 225.417L477.873 225.345L478.562 228.062L477.877 229Z" fill="#3F3D56"/>
<path d="M460.688 239.804L456.858 244.374L461.414 248.216L465.244 243.646L460.688 239.804Z" fill="#3F3D56"/>
<path d="M466.815 232.493L462.985 237.062L467.541 240.904L471.371 236.335L466.815 232.493Z" fill="#3F3D56"/>
<path d="M591 374H50V375H591V374Z" fill="#3F3D56"/>
<path d="M337.5 99C341.642 99 345 96.0898 345 92.5C345 88.9101 341.642 86 337.5 86C333.358 86 330 88.9101 330 92.5C330 96.0898 333.358 99 337.5 99Z" fill="#888787"/>
<path d="M169.683 113.325C169.645 110.687 168.838 108.123 167.367 105.966C165.896 103.809 163.829 102.161 161.436 101.236C164.179 100.091 166.448 97.9931 167.851 95.304C169.254 92.6149 169.702 89.5041 169.118 86.5098C168.534 83.5156 166.954 80.8263 164.653 78.9073C162.351 76.9883 159.472 75.9603 156.514 76.0012C153.556 76.042 150.705 77.1492 148.453 79.1311C146.202 81.113 144.693 83.845 144.187 86.8543C143.681 89.8636 144.21 92.9609 145.682 95.6103C147.154 98.2597 149.476 100.294 152.248 101.363C149.878 102.351 147.853 104.055 146.437 106.252C145.022 108.449 144.283 111.037 144.317 113.675C144.352 116.314 145.157 118.88 146.629 121.037C148.101 123.194 150.17 124.842 152.564 125.764C149.821 126.909 147.552 129.007 146.149 131.696C144.746 134.385 144.298 137.496 144.882 140.49C145.466 143.484 147.046 146.174 149.347 148.093C151.649 150.012 154.528 151.04 157.486 150.999C160.444 150.958 163.295 149.851 165.547 147.869C167.798 145.887 169.307 143.155 169.813 140.146C170.319 137.136 169.79 134.039 168.318 131.39C166.846 128.74 164.524 126.706 161.752 125.637C164.12 124.647 166.144 122.942 167.558 120.745C168.973 118.549 169.714 115.962 169.683 113.325V113.325ZM145.154 89.2576C145.123 87.0182 145.705 84.8153 146.832 82.9018C147.96 80.9884 149.587 79.4421 151.527 78.4406C153.468 77.4391 155.642 77.023 157.801 77.2401C159.96 77.4572 162.016 78.2987 163.733 79.6679C165.45 81.0372 166.757 82.8786 167.506 84.9806C168.255 87.0827 168.414 89.3601 167.965 91.5513C167.516 93.7424 166.477 95.7585 164.969 97.3677C163.46 98.9769 161.542 100.114 159.436 100.649C157.715 100.301 155.943 100.326 154.232 100.721C151.689 100.147 149.408 98.7023 147.76 96.6213C146.112 94.5404 145.193 91.9453 145.154 89.2576V89.2576ZM168.846 137.742C168.877 139.982 168.295 142.185 167.168 144.098C166.04 146.012 164.413 147.558 162.473 148.559C160.532 149.561 158.358 149.977 156.199 149.76C154.04 149.543 151.984 148.701 150.267 147.332C148.55 145.963 147.243 144.121 146.494 142.019C145.745 139.917 145.586 137.64 146.035 135.449C146.484 133.258 147.523 131.242 149.031 129.632C150.54 128.023 152.458 126.886 154.564 126.351C156.285 126.699 158.057 126.674 159.768 126.279C162.311 126.853 164.592 128.298 166.24 130.379C167.888 132.46 168.807 135.055 168.846 137.742V137.742ZM159.752 125.05C158.031 124.703 156.26 124.728 154.549 125.122C152.003 124.553 149.719 123.109 148.071 121.027C146.422 118.946 145.505 116.348 145.47 113.659C145.436 110.97 146.285 108.349 147.879 106.222C149.473 104.095 151.718 102.589 154.248 101.95C155.969 102.297 157.74 102.272 159.451 101.878C161.997 102.447 164.281 103.891 165.929 105.973C167.578 108.054 168.495 110.652 168.53 113.341C168.564 116.03 167.715 118.651 166.121 120.778C164.527 122.905 162.282 124.411 159.752 125.05H159.752Z" fill="#888787"/>
<path d="M113.767 162H104V277.12V287H113.767H166V277.12H113.767V162Z" fill="#318BAF"/>
<path d="M199.925 162H190V287H253V162H199.925ZM243.075 277.12H199.925V171.88H243.075V277.12Z" fill="#318BAF"/>
<path d="M425.233 163H373V288H435V163H425.233ZM425.233 278.12H382.767V172.88H425.233V278.12Z" fill="#318BAF"/>
<path d="M329.182 225.285H321.121V235.165H329.182V278.12H286.758V172.88H338.94V163H286.758H277V172.88V278.12V288H286.758H329.182H338.94V278.12V235.165H347V225.285H338.94H329.182Z" fill="#318BAF"/>
<path d="M143 151H140V152H143V151Z" fill="#3F3D56"/>
<path d="M389 152H382.54V151H389V152ZM376.081 152H369.622V151H376.081V152ZM363.162 152H356.703V151H363.162V152ZM350.243 152H343.784V151H350.243V152ZM337.325 152H330.865V151H337.325V152ZM324.405 152H317.946V151H324.405V152ZM311.486 152H305.027V151H311.486V152ZM298.568 152H292.108V151H298.568V152ZM285.649 152H279.189V151H285.649V152ZM272.73 152H266.27V151H272.73L272.73 152ZM259.811 152H253.351V151H259.811V152ZM246.892 152H240.433V151H246.892V152ZM233.973 152H227.514V151H233.973V152ZM221.054 152H214.595V151H221.054V152ZM208.135 152H201.676V151H208.135V152ZM195.216 152H188.757V151H195.216L195.216 152ZM182.297 152H175.838V151H182.297V152ZM169.378 152H162.919V151H169.378V152ZM156.46 152H150V151H156.46V152Z" fill="#3F3D56"/>
<path d="M398 151H396V152H398V151Z" fill="#3F3D56"/>
<path d="M446 178H445V182H446V178Z" fill="#3F3D56"/>
<path d="M446 262H445V255.273H446V262ZM446 248.545H445V241.818H446V248.545ZM446 235.091H445V228.364H446V235.091ZM446 221.636H445V214.909H446V221.636ZM446 208.182H445V201.455H446V208.182ZM446 194.727H445V188H446V194.727Z" fill="#3F3D56"/>
<path d="M446 268H445V271H446V268Z" fill="#3F3D56"/>
<path d="M104 115H103V335H104V115Z" fill="#888787"/>
<path d="M435 115H434V335H435V115Z" fill="#888787"/>
<path d="M488 287H50V288H488V287Z" fill="#888787"/>
<path d="M488 162H50V163H488V162Z" fill="#888787"/>
<path d="M521.334 109.727C521.374 110.493 521.233 111.258 520.922 111.957C520.498 112.612 519.928 113.155 519.258 113.542L514.401 116.884C512.969 117.87 511.35 119.617 512.269 121.11C512.623 121.591 513.103 121.962 513.654 122.18C518.629 124.616 524.307 125.079 529.824 124.99C533.343 124.933 537.023 124.615 540.002 122.704C541.42 121.794 542.644 120.543 544.201 119.912C545.278 119.476 546.678 119.157 546.954 118.008C547.328 116.451 545.32 115.589 543.87 114.972C540.768 113.651 538.613 110.598 537.603 107.327C536.593 104.055 536.586 100.555 536.745 97.1293C536.788 96.885 536.783 96.6344 536.73 96.3922C536.677 96.1499 536.577 95.921 536.436 95.7187C536.114 95.4507 535.711 95.3061 535.296 95.31C531.952 94.9662 528.586 94.9082 525.233 95.1368C523.985 95.124 522.756 95.4504 521.672 96.0824C519.632 97.5083 520.79 99.9252 521.005 101.932C521.279 104.52 521.389 107.124 521.334 109.727V109.727Z" fill="#9F616A"/>
<path d="M542 44C540.256 46.0837 537.868 47.4231 535.276 47.7714C530.793 48.4571 534.315 56 534.315 56C534.315 56 533.035 53.2571 535.596 50.8571C538.158 48.4571 542 47.0857 542 44Z" fill="#2F2E41"/>
<path d="M532.5 63C535.538 63 538 60.3137 538 57C538 53.6863 535.538 51 532.5 51C529.462 51 527 53.6863 527 57C527 60.3137 529.462 63 532.5 63Z" fill="#2F2E41"/>
<path d="M539.923 63C535.267 60.6626 527.256 58.8243 523 58.9557L524.077 55C527.845 57.4601 535.813 59.3328 541 59.0443L539.923 63Z" fill="#318BAF"/>
<path d="M527 101C538.598 101 548 91.598 548 80C548 68.402 538.598 59 527 59C515.402 59 506 68.402 506 80C506 91.598 515.402 101 527 101Z" fill="#2F2E41"/>
<path d="M521 345H511V361H521V345Z" fill="#9F616A"/>
<path d="M548 345H538V361H548V345Z" fill="#9F616A"/>
<path d="M507.83 172.333L503 188.044L552 189L548.082 172.333L535.258 164L507.83 172.333Z" fill="#9F616A"/>
<path d="M525.5 104C534.06 104 541 97.0604 541 88.5C541 79.9396 534.06 73 525.5 73C516.94 73 510 79.9396 510 88.5C510 97.0604 516.94 104 525.5 104Z" fill="#9F616A"/>
<path d="M497.49 152C496.392 154.698 495.864 157.587 495.938 160.491C496.074 163.858 497.145 168.165 496.478 171.086C493.898 182.387 490.071 199.168 483.154 208.32C481.53 210.469 478.354 211.653 475.945 213.281C473.536 214.908 471.244 216.688 469.938 219.568C468.923 221.808 468.957 224.528 469.034 227.071C469.077 228.473 469.216 230.075 470.456 231C470.714 230.894 470.932 230.713 471.08 230.481C471.229 230.249 471.301 229.978 471.287 229.705C471.349 229.128 471.231 228.54 471.332 227.946C471.45 227.422 471.685 226.93 472.022 226.507C472.358 226.084 472.787 225.74 473.277 225.5C478.926 222.079 484.969 219.094 487.963 213.139C490.956 207.183 493.227 201.872 497.28 196.627C498.425 195.302 499.488 193.912 500.465 192.464C502.04 189.813 503.225 186.956 503.983 183.98C505.64 177.743 506.387 171.176 506.893 164.815C507.151 161.563 507.133 158.08 504.614 155.978C502.285 154.034 499.45 154.28 497.49 152Z" fill="#9F616A"/>
<path d="M565.774 144C566.545 146.894 566.804 149.909 566.539 152.9C566.215 156.522 565.124 160.13 565.614 163.731C567.511 177.664 565.442 192.079 566.508 206.108C566.758 209.401 567.777 213.046 567.958 216.345C568.139 219.643 567.771 223.084 566.157 225.93C564.901 228.143 562.98 229.849 561.096 231.513C560.057 232.43 558.688 233.405 557.444 232.826C557.334 232.567 557.306 232.278 557.364 232.002C557.423 231.725 557.564 231.475 557.768 231.288C558.139 230.875 558.628 230.586 558.97 230.147C559.629 229.299 559.602 228.098 559.528 227.01C559.09 220.55 558.176 213.927 559.872 207.695C561.564 201.482 560.525 194.698 558.801 188.494C558.34 186.836 557.74 185.221 557.339 183.546C556.645 180.641 556.565 177.621 556.488 174.629L556.014 156.168C555.934 153.023 556.118 149.314 558.64 147.575C560.973 145.967 563.938 146.196 565.774 144Z" fill="#9F616A"/>
<path d="M551.25 182.856C548.159 184.541 545.033 186.24 541.64 187.18C538.088 188.164 534.362 188.284 530.678 188.397C526.281 188.835 521.844 188.207 517.742 186.567L504.364 182C494.9 204.729 491.18 229.915 496.316 253.994C498.186 262.761 496.227 271.842 496.231 280.807C496.175 283.984 496.29 287.162 496.577 290.326C496.842 292.767 497.31 295.182 497.631 297.616C499.587 312.444 496.057 327.617 498.261 342.411C498.563 344.442 501.026 345.566 502.985 346.183C503.973 346.466 504.982 346.669 506.002 346.79C511.189 347.55 516.436 348.311 521.655 347.812C522.93 347.69 524.441 347.299 524.829 346.078C525.138 345.105 524.575 343.941 525.106 343.068C528.494 337.499 525.969 329.868 526.318 323.358C527.238 306.137 526.112 288.826 527.701 271.654C528.005 268.367 527.572 265.465 527.869 262.177L528.072 259.944L528.686 253.161C529.053 262.616 529.447 271.844 529.814 281.299C529.921 284.049 530.033 286.834 530.839 289.465C531.266 290.857 531.883 292.19 532.233 293.604C532.557 295.132 532.722 296.69 532.728 298.253L534.293 339.906C534.285 341.405 534.178 342.901 533.973 344.386C533.82 346.09 533.789 348.098 535.13 349.161C535.83 349.641 536.653 349.909 537.501 349.934C540.052 350.173 542.613 349.722 545.136 349.272C547.689 348.817 552.995 348.363 555.548 347.908C555.935 347.858 556.312 347.752 556.667 347.592C557.819 347.003 558.104 345.478 557.995 344.189C557.886 342.9 557.529 341.571 557.928 340.341C563.097 324.384 556.822 306.864 557.986 290.131C559.023 275.23 558.877 260.275 558.73 245.338C558.644 236.505 558.046 227.865 558.231 219.034C558.456 208.274 559.257 197.003 554.698 187.253C553.893 185.532 552.85 183.882 551.25 182.856Z" fill="#2F2E41"/>
<path d="M521.966 354.165C521.966 354.165 511.864 349.294 510.122 354.165C508.381 359.035 504.897 370.515 508.729 373.298C509.968 374.2 511.42 374.766 512.943 374.942C514.466 375.117 516.009 374.895 517.421 374.298C519.896 373.248 522.319 371.921 521.966 370.863C521.269 368.775 521.966 354.165 521.966 354.165Z" fill="#2F2E41"/>
<path d="M537.037 354.165C537.037 354.165 547.812 349.294 549.67 354.165C551.527 359.035 555.243 370.515 551.156 373.298C549.834 374.2 548.286 374.766 546.661 374.942C545.036 375.117 543.39 374.895 541.884 374.298C539.245 373.248 536.66 371.921 537.037 370.863C537.78 368.775 537.037 354.165 537.037 354.165Z" fill="#2F2E41"/>
<path d="M549.667 117.062C535.089 116.804 520.507 117.354 505.99 118.709C504.91 118.741 503.846 118.985 502.861 119.428C502.036 119.925 501.314 120.574 500.733 121.34C494.236 129.083 490.471 138.727 490.015 148.797C489.96 150.099 490.011 151.539 490.899 152.498C494.924 156.844 500.026 160.017 503.215 165C503.955 166.345 504.851 167.599 505.885 168.737C505.296 172.298 505.208 175.923 505.625 179.508C507.738 176.764 510.899 174.962 514.206 173.891C517.513 172.821 520.997 172.422 524.453 172.029C529.496 171.455 534.893 170.942 539.387 173.287C542.913 175.127 545.483 178.556 549.192 180C549.694 176.913 549.983 173.796 550.058 170.671C550.163 166.293 553.472 163.062 555.215 159.04C555.689 157.853 556.267 156.709 556.94 155.621C558.706 152.948 561.582 151.151 564.62 150.094C567.658 149.037 570.883 148.651 574.079 148.27C575.533 146.239 575.065 143.642 574.054 141.361C573.044 139.081 571.357 137.177 569.896 135.151C567.059 131.216 565.022 126.729 561.904 123.01C560.431 121.186 558.57 119.707 556.455 118.679C554.34 117.65 552.022 117.098 549.667 117.062V117.062Z" fill="#2F2E41"/>
<path d="M531 64C531 64 523.778 73.5143 509.334 75.6286C494.889 77.7428 506.238 101 506.238 101C506.238 101 502.111 92.5429 510.365 85.1429C518.619 77.7429 531 73.5143 531 64Z" fill="#2F2E41"/>
<path d="M531.374 64C531.374 64 535.236 78.6829 541.028 80.7805C546.82 82.8781 543.924 104.902 534.27 107C534.27 107 542.476 94.939 537.649 85.5C532.822 76.061 529.926 68.7195 531.374 64Z" fill="#2F2E41"/>
<path d="M531 64C531 64 523.778 73.5143 509.334 75.6286C494.889 77.7428 506.238 101 506.238 101C506.238 101 502.111 92.5429 510.365 85.1429C518.619 77.7429 531 73.5143 531 64Z" fill="#2F2E41"/>
<path d="M531.374 64C531.374 64 535.236 78.6829 541.028 80.7805C546.82 82.8781 543.924 104.902 534.27 107C534.27 107 542.476 94.939 537.649 85.5C532.822 76.061 529.926 68.7195 531.374 64Z" fill="#2F2E41"/>
<path d="M279 143V136.113H279.711V136.76C279.859 136.527 280.053 136.332 280.28 136.191C280.516 136.057 280.781 135.992 281.048 136.001C281.417 135.993 281.781 136.108 282.089 136.329C282.396 136.557 282.634 136.879 282.77 137.255C282.926 137.671 283.004 138.116 283 138.565C283.006 139.038 282.92 139.507 282.746 139.941C282.594 140.327 282.337 140.654 282.008 140.879C281.705 141.09 281.352 141.203 280.991 141.204C280.748 141.209 280.507 141.148 280.291 141.026C280.094 140.916 279.92 140.763 279.781 140.576V143L279 143ZM279.707 138.631C279.67 139.135 279.797 139.638 280.067 140.051C280.171 140.195 280.303 140.31 280.454 140.39C280.605 140.47 280.771 140.511 280.939 140.511C281.111 140.51 281.281 140.467 281.436 140.385C281.59 140.302 281.725 140.182 281.831 140.035C282.109 139.605 282.24 139.084 282.201 138.56C282.236 138.054 282.109 137.551 281.839 137.135C281.739 136.99 281.608 136.871 281.458 136.789C281.308 136.707 281.142 136.663 280.974 136.662C280.801 136.667 280.631 136.715 280.478 136.802C280.325 136.889 280.192 137.014 280.091 137.166C279.81 137.591 279.674 138.109 279.707 138.631V138.631Z" fill="#3F3D56"/>
<path d="M284 141L286.342 138.401L284.175 136H285.533L286.517 137.172C286.702 137.395 286.851 137.582 286.964 137.733C287.141 137.525 287.304 137.342 287.453 137.182L288.533 136H289.831L287.616 138.354L290 141H288.666L287.35 139.446L287 139.027L285.316 141L284 141Z" fill="#3F3D56"/>
<path d="M255 136H249V141H255V136Z" fill="#3F3D56"/>
<path d="M265 136H259V141H265V136Z" fill="#3F3D56"/>
<path d="M275 136H268V141H275V136Z" fill="#3F3D56"/>
</svg>
