<svg width="640" height="389" viewBox="0 0 640 389" fill="none" xmlns="http://www.w3.org/2000/svg">
<path d="M361 98.7871H359.028V44.4493C359.028 36.1084 355.733 28.1092 349.868 22.2113C344.003 16.3134 336.048 13 327.754 13H213.274C209.167 13 205.1 13.8134 201.306 15.3939C197.512 16.9744 194.064 19.2909 191.16 22.2112C188.256 25.1315 185.952 28.5985 184.381 32.4141C182.809 36.2297 182 40.3192 182 44.4492V342.551C182 346.681 182.809 350.77 184.381 354.586C185.952 358.401 188.256 361.868 191.16 364.789C194.064 367.709 197.512 370.026 201.306 371.606C205.1 373.187 209.167 374 213.274 374H327.754C336.048 374 344.003 370.687 349.868 364.789C355.733 358.891 359.027 350.892 359.027 342.551V137.466H361L361 98.7871Z" fill="#D7D7D7"/>
<path d="M329.608 21H314.64C315.329 22.6961 315.591 24.5362 315.405 26.3584C315.219 28.1805 314.59 29.9287 313.574 31.449C312.557 32.9693 311.184 34.215 309.576 35.0764C307.968 35.9377 306.173 36.3883 304.351 36.3885H238.662C236.839 36.3883 235.045 35.9377 233.436 35.0764C231.828 34.215 230.455 32.9693 229.438 31.449C228.422 29.9287 227.793 28.1805 227.607 26.3584C227.421 24.5362 227.684 22.6961 228.372 21H214.392C208.188 21 202.238 23.477 197.851 27.8861C193.465 32.2952 191 38.2753 191 44.5107V342.489C191 345.577 191.605 348.634 192.781 351.486C193.956 354.339 195.679 356.931 197.851 359.114C200.024 361.297 202.602 363.029 205.44 364.21C208.279 365.392 211.32 366 214.392 366H329.608C332.68 366 335.721 365.392 338.56 364.21C341.398 363.029 343.976 361.297 346.149 359.114C348.321 356.931 350.044 354.339 351.219 351.486C352.395 348.634 353 345.577 353 342.489V342.489V44.5107C353 41.4232 352.395 38.366 351.219 35.5135C350.044 32.6611 348.321 30.0693 346.149 27.8861C343.976 25.7029 341.398 23.9712 338.56 22.7896C335.721 21.6081 332.68 21 329.608 21V21Z" fill="white"/>
<path d="M509.507 375H131.493C131.363 375 131.237 374.947 131.145 374.854C131.052 374.76 131 374.633 131 374.5C131 374.367 131.052 374.24 131.145 374.146C131.237 374.053 131.363 374 131.493 374H509.507C509.637 374 509.763 374.053 509.855 374.146C509.948 374.24 510 374.367 510 374.5C510 374.633 509.948 374.76 509.855 374.854C509.763 374.947 509.637 375 509.507 375Z" fill="#3F3D56"/>
<path d="M341.411 104H201.589C200.903 103.999 200.245 103.725 199.759 103.238C199.274 102.751 199.001 102.091 199 101.402V66.5982C199.001 65.9094 199.274 65.249 199.759 64.7619C200.245 64.2748 200.903 64.0008 201.589 64H341.411C342.097 64.0008 342.755 64.2748 343.241 64.7619C343.726 65.249 343.999 65.9094 344 66.5982V101.402C343.999 102.091 343.726 102.751 343.241 103.238C342.755 103.725 342.097 103.999 341.411 104V104ZM201.589 65.0393C201.177 65.0397 200.782 65.2041 200.491 65.4964C200.2 65.7886 200.036 66.1849 200.036 66.5982V101.402C200.036 101.815 200.2 102.211 200.491 102.504C200.782 102.796 201.177 102.96 201.589 102.961H341.411C341.823 102.96 342.218 102.796 342.509 102.504C342.8 102.211 342.964 101.815 342.964 101.402V66.5982C342.964 66.1849 342.8 65.7886 342.509 65.4964C342.218 65.2041 341.823 65.0397 341.411 65.0393H201.589Z" fill="#3F3D56"/>
<path d="M341.411 242H201.589C200.903 241.999 200.245 241.724 199.759 241.234C199.274 240.744 199.001 240.08 199 239.388V174.612C199.001 173.92 199.274 173.256 199.759 172.766C200.245 172.276 200.903 172.001 201.589 172H341.411C342.097 172.001 342.755 172.276 343.241 172.766C343.726 173.256 343.999 173.92 344 174.612V239.388C343.999 240.08 343.726 240.744 343.241 241.234C342.755 241.724 342.097 241.999 341.411 242V242ZM201.589 173.045C201.177 173.045 200.782 173.211 200.491 173.505C200.2 173.798 200.036 174.197 200.036 174.612V239.388C200.036 239.803 200.2 240.202 200.491 240.495C200.782 240.789 201.177 240.955 201.589 240.955H341.411C341.823 240.955 342.218 240.789 342.509 240.495C342.8 240.202 342.964 239.803 342.964 239.388V174.612C342.964 174.197 342.8 173.798 342.509 173.505C342.218 173.211 341.823 173.045 341.411 173.045L201.589 173.045Z" fill="#3F3D56"/>
<path d="M340.423 158H278.577C277.894 157.999 277.239 157.725 276.756 157.238C276.273 156.751 276.001 156.091 276 155.402V120.598C276.001 119.909 276.273 119.249 276.756 118.762C277.239 118.275 277.894 118.001 278.577 118H340.423C341.106 118.001 341.761 118.275 342.244 118.762C342.727 119.249 342.999 119.909 343 120.598V155.402C342.999 156.091 342.727 156.751 342.244 157.238C341.761 157.725 341.106 157.999 340.423 158ZM278.577 119.039C278.167 119.04 277.774 119.204 277.484 119.496C277.194 119.789 277.031 120.185 277.031 120.598V155.402C277.031 155.815 277.194 156.211 277.484 156.504C277.774 156.796 278.167 156.96 278.577 156.961H340.423C340.833 156.96 341.226 156.796 341.516 156.504C341.806 156.211 341.969 155.815 341.969 155.402V120.598C341.969 120.185 341.806 119.789 341.516 119.496C341.226 119.204 340.833 119.04 340.423 119.039L278.577 119.039Z" fill="#E6E6E6"/>
<path d="M264.385 326H201.615C200.922 325.999 200.257 325.726 199.767 325.24C199.277 324.753 199.001 324.094 199 323.407V258.593C199.001 257.906 199.277 257.247 199.767 256.76C200.257 256.274 200.922 256.001 201.615 256H264.385C265.078 256.001 265.743 256.274 266.233 256.76C266.723 257.247 266.999 257.906 267 258.593V323.407C266.999 324.094 266.723 324.754 266.233 325.24C265.743 325.726 265.078 325.999 264.385 326V326ZM201.615 257.037C201.199 257.038 200.8 257.202 200.506 257.493C200.212 257.785 200.047 258.181 200.046 258.593V323.407C200.047 323.819 200.212 324.215 200.506 324.507C200.8 324.798 201.199 324.962 201.615 324.963H264.385C264.801 324.962 265.2 324.798 265.494 324.507C265.788 324.215 265.953 323.819 265.954 323.407V258.593C265.953 258.181 265.788 257.785 265.494 257.493C265.2 257.202 264.801 257.038 264.385 257.037H201.615Z" fill="#E6E6E6"/>
<path d="M340.423 326H278.577C277.894 325.999 277.239 325.726 276.756 325.24C276.273 324.753 276.001 324.094 276 323.407V258.593C276.001 257.906 276.273 257.247 276.756 256.76C277.239 256.274 277.894 256.001 278.577 256H340.423C341.106 256.001 341.761 256.274 342.244 256.76C342.727 257.247 342.999 257.906 343 258.593V323.407C342.999 324.094 342.727 324.753 342.244 325.24C341.761 325.726 341.106 325.999 340.423 326V326ZM278.577 257.037C278.167 257.038 277.774 257.202 277.484 257.493C277.194 257.785 277.031 258.181 277.031 258.593V323.407C277.031 323.819 277.194 324.215 277.484 324.507C277.774 324.798 278.167 324.962 278.577 324.963H340.423C340.833 324.962 341.226 324.798 341.516 324.507C341.806 324.215 341.969 323.819 341.969 323.407V258.593C341.969 258.181 341.806 257.785 341.516 257.493C341.226 257.202 340.833 257.038 340.423 257.037H278.577Z" fill="#E6E6E6"/>
<path d="M222.5 205C228.299 205 233 200.299 233 194.5C233 188.701 228.299 184 222.5 184C216.701 184 212 188.701 212 194.5C212 200.299 216.701 205 222.5 205Z" fill="#318BAF"/>
<path d="M246.77 188C246.301 188 245.851 188.158 245.519 188.439C245.187 188.721 245 189.102 245 189.5C245 189.898 245.187 190.279 245.519 190.561C245.851 190.842 246.301 191 246.77 191H330.234C330.703 190.999 331.152 190.841 331.483 190.559C331.814 190.278 332 189.897 332 189.5C332 189.103 331.814 188.722 331.483 188.441C331.152 188.159 330.703 188.001 330.234 188H246.77Z" fill="#318BAF"/>
<path d="M246.753 198C246.524 197.999 246.296 198.051 246.084 198.151C245.871 198.251 245.678 198.397 245.515 198.583C245.352 198.768 245.223 198.988 245.135 199.231C245.046 199.473 245 199.733 245 199.996C245 200.258 245.044 200.519 245.132 200.761C245.219 201.004 245.348 201.225 245.51 201.411C245.672 201.597 245.865 201.745 246.077 201.846C246.289 201.947 246.516 201.999 246.746 202H282.247C282.477 202 282.705 201.949 282.918 201.849C283.13 201.748 283.324 201.601 283.486 201.415C283.649 201.23 283.778 201.009 283.867 200.766C283.955 200.523 284 200.263 284 200C284 199.737 283.955 199.477 283.867 199.234C283.778 198.991 283.649 198.77 283.486 198.585C283.324 198.399 283.13 198.252 282.918 198.151C282.705 198.051 282.477 198 282.247 198H246.753Z" fill="#318BAF"/>
<path d="M214.422 215C213.086 215 212 215.897 212 217C212 218.103 213.086 219 214.422 219H328.578C329.914 219 331 218.103 331 217C331 215.897 329.914 215 328.578 215H214.422Z" fill="#CCCCCC"/>
<path d="M214.422 226C213.086 226 212 226.673 212 227.5C212 228.327 213.086 229 214.422 229H328.578C329.914 229 331 228.327 331 227.5C331 226.673 329.914 226 328.578 226H214.422Z" fill="#CCCCCC"/>
<path d="M223.5 93C229.299 93 234 88.299 234 82.5C234 76.701 229.299 72 223.5 72C217.701 72 213 76.701 213 82.5C213 88.299 217.701 93 223.5 93Z" fill="#318BAF"/>
<path d="M247.766 75C247.297 75.0013 246.848 75.2125 246.517 75.5875C246.186 75.9624 246 76.4704 246 77C246 77.5296 246.186 78.0376 246.517 78.4125C246.848 78.7875 247.297 78.9987 247.766 79H331.224C331.457 79.0008 331.687 78.9499 331.902 78.85C332.118 78.7501 332.313 78.6033 332.478 78.418C332.643 78.2326 332.774 78.0123 332.864 77.7698C332.953 77.5272 333 77.267 333 77.0042C333 76.7414 332.955 76.481 332.866 76.238C332.778 75.995 332.648 75.7741 332.483 75.588C332.319 75.4019 332.124 75.2541 331.909 75.1532C331.694 75.0523 331.464 75.0003 331.231 75C331.229 75 331.227 75 331.224 75H247.766Z" fill="#318BAF"/>
<path d="M247.746 86C247.282 86.0009 246.838 86.1594 246.511 86.4406C246.184 86.7218 246 87.1028 246 87.5C246 87.8972 246.184 88.2782 246.511 88.5594C246.838 88.8406 247.282 88.9991 247.746 89H283.244C283.474 89.0006 283.702 88.9624 283.915 88.8875C284.128 88.8126 284.321 88.7025 284.484 88.5635C284.647 88.4245 284.777 88.2593 284.865 88.0773C284.954 87.8954 285 87.7003 285 87.5032C285 87.306 284.956 87.1108 284.868 86.9285C284.78 86.7463 284.652 86.5806 284.489 86.441C284.327 86.3014 284.134 86.1906 283.922 86.1149C283.709 86.0393 283.482 86.0002 283.252 86C283.249 86 283.247 86 283.244 86H247.746Z" fill="#318BAF"/>
<path d="M264 158H206L219.649 133.965C219.894 133.534 220.246 133.176 220.67 132.927C221.093 132.679 221.574 132.548 222.063 132.548C222.552 132.548 223.033 132.679 223.457 132.927C223.881 133.176 224.232 133.534 224.477 133.965L230.308 144.232L240.222 126.774C240.529 126.235 240.969 125.787 241.5 125.475C242.03 125.164 242.632 125 243.245 125C243.857 125 244.459 125.164 244.989 125.475C245.52 125.787 245.96 126.235 246.267 126.774L264 158ZM207.785 156.952H262.215L245.374 127.298C245.158 126.918 244.848 126.602 244.474 126.383C244.1 126.163 243.676 126.048 243.245 126.048C242.813 126.048 242.389 126.163 242.015 126.383C241.641 126.602 241.331 126.918 241.115 127.298L230.308 146.327L223.585 134.488C223.43 134.217 223.209 133.991 222.942 133.835C222.675 133.678 222.372 133.595 222.063 133.595C221.755 133.595 221.452 133.678 221.185 133.835C220.918 133.991 220.696 134.217 220.542 134.488L207.785 156.952Z" fill="#E6E6E6"/>
<path d="M338 158H280L293.649 133.965C293.894 133.534 294.246 133.176 294.67 132.927C295.093 132.679 295.574 132.548 296.063 132.548C296.553 132.548 297.033 132.679 297.457 132.927C297.881 133.176 298.232 133.534 298.477 133.965L304.308 144.232L314.222 126.774C314.529 126.235 314.969 125.787 315.5 125.475C316.03 125.164 316.632 125 317.245 125C317.857 125 318.459 125.164 318.989 125.475C319.52 125.787 319.96 126.235 320.267 126.774L338 158ZM281.785 156.952H336.215L319.374 127.298C319.158 126.918 318.848 126.602 318.474 126.383C318.1 126.163 317.676 126.048 317.245 126.048C316.813 126.048 316.389 126.163 316.015 126.383C315.641 126.602 315.331 126.918 315.115 127.298L304.308 146.327L297.584 134.488C297.43 134.217 297.209 133.991 296.942 133.835C296.675 133.678 296.372 133.595 296.063 133.595C295.755 133.595 295.452 133.678 295.185 133.835C294.918 133.991 294.696 134.217 294.542 134.488L281.785 156.952Z" fill="#E6E6E6"/>
<path d="M264.385 158H201.615C200.922 157.999 200.257 157.725 199.767 157.238C199.277 156.751 199.001 156.091 199 155.402V120.598C199.001 119.909 199.277 119.249 199.767 118.762C200.257 118.275 200.922 118.001 201.615 118H264.385C265.078 118.001 265.743 118.275 266.233 118.762C266.723 119.249 266.999 119.909 267 120.598V155.402C266.999 156.091 266.723 156.751 266.233 157.238C265.743 157.725 265.078 157.999 264.385 158V158ZM201.615 119.039C201.199 119.04 200.8 119.204 200.506 119.496C200.212 119.789 200.047 120.185 200.046 120.598V155.402C200.047 155.815 200.212 156.211 200.506 156.504C200.8 156.796 201.199 156.96 201.615 156.961H264.385C264.801 156.96 265.2 156.796 265.494 156.504C265.788 156.211 265.953 155.815 265.954 155.402V120.598C265.953 120.185 265.788 119.789 265.494 119.496C265.2 119.204 264.801 119.04 264.385 119.039L201.615 119.039Z" fill="#E6E6E6"/>
<path d="M214.798 269C214.562 269 214.328 269.051 214.11 269.151C213.892 269.252 213.694 269.399 213.527 269.585C213.36 269.77 213.227 269.991 213.137 270.234C213.047 270.477 213 270.737 213 271C213 271.263 213.047 271.523 213.137 271.766C213.227 272.009 213.36 272.23 213.527 272.415C213.694 272.601 213.892 272.748 214.11 272.849C214.328 272.949 214.562 273 214.798 273H251.205C251.681 273 252.138 272.789 252.474 272.414C252.811 272.039 253 271.53 253 271C253 270.47 252.811 269.961 252.474 269.586C252.138 269.211 251.681 269 251.205 269H214.798Z" fill="#E6E6E6"/>
<path d="M214.798 279C214.562 279 214.328 279.051 214.11 279.151C213.892 279.252 213.694 279.399 213.527 279.585C213.36 279.77 213.227 279.991 213.137 280.234C213.047 280.477 213 280.737 213 281C213 281.263 213.047 281.523 213.137 281.766C213.227 282.009 213.36 282.23 213.527 282.415C213.694 282.601 213.892 282.748 214.11 282.849C214.328 282.949 214.562 283 214.798 283H251.208C251.684 282.999 252.139 282.788 252.475 282.413C252.811 282.038 253 281.53 253 281C253 280.47 252.811 279.962 252.475 279.587C252.139 279.212 251.684 279.001 251.208 279H214.798Z" fill="#E6E6E6"/>
<path d="M233 312C230.824 312 228.698 311.355 226.889 310.146C225.08 308.937 223.67 307.22 222.837 305.21C222.005 303.2 221.787 300.988 222.211 298.854C222.636 296.72 223.683 294.76 225.222 293.222C226.76 291.683 228.72 290.636 230.854 290.211C232.988 289.787 235.2 290.005 237.21 290.837C239.22 291.67 240.937 293.08 242.146 294.889C243.355 296.698 244 298.824 244 301C243.997 303.916 242.837 306.712 240.775 308.775C238.712 310.837 235.916 311.997 233 312V312ZM233 291.03C231.028 291.03 229.1 291.614 227.461 292.71C225.821 293.806 224.543 295.363 223.789 297.185C223.034 299.006 222.836 301.011 223.221 302.945C223.606 304.879 224.556 306.656 225.95 308.05C227.344 309.445 229.121 310.394 231.055 310.779C232.989 311.164 234.994 310.966 236.816 310.211C238.637 309.457 240.195 308.179 241.29 306.539C242.386 304.9 242.97 302.972 242.97 301V301C242.967 298.357 241.916 295.822 240.047 293.953C238.178 292.084 235.643 291.033 233 291.03V291.03Z" fill="#E6E6E6"/>
<path d="M327.247 312C327.477 312 327.705 311.962 327.918 311.887C328.13 311.811 328.324 311.701 328.486 311.562C328.649 311.422 328.778 311.257 328.867 311.075C328.955 310.892 329 310.697 329 310.5C329 310.303 328.955 310.108 328.867 309.925C328.778 309.743 328.649 309.578 328.486 309.438C328.324 309.299 328.13 309.189 327.918 309.113C327.705 309.038 327.477 309 327.247 309H291.75C291.286 309 290.841 309.158 290.513 309.439C290.184 309.721 290 310.102 290 310.5C290 310.898 290.184 311.279 290.513 311.561C290.841 311.842 291.286 312 291.75 312H327.247Z" fill="#E6E6E6"/>
<path d="M327.247 302C327.477 302 327.705 301.949 327.918 301.849C328.13 301.748 328.324 301.601 328.486 301.415C328.649 301.23 328.778 301.009 328.867 300.766C328.955 300.523 329 300.263 329 300C329 299.737 328.955 299.477 328.867 299.234C328.778 298.991 328.649 298.77 328.486 298.585C328.324 298.399 328.13 298.252 327.918 298.151C327.705 298.051 327.477 298 327.247 298H291.75C291.286 298 290.841 298.211 290.513 298.586C290.184 298.961 290 299.47 290 300C290 300.53 290.184 301.039 290.513 301.414C290.841 301.789 291.286 302 291.75 302H327.247Z" fill="#E6E6E6"/>
<path d="M310 269C312.176 269 314.302 269.645 316.111 270.854C317.92 272.063 319.33 273.78 320.163 275.79C320.995 277.8 321.213 280.012 320.789 282.146C320.364 284.28 319.317 286.24 317.778 287.778C316.24 289.317 314.28 290.364 312.146 290.789C310.012 291.213 307.8 290.995 305.79 290.163C303.78 289.33 302.063 287.92 300.854 286.111C299.645 284.302 299 282.176 299 280V280C299.003 277.084 300.163 274.288 302.225 272.225C304.288 270.163 307.084 269.003 310 269V269ZM310 289.97C311.972 289.97 313.9 289.386 315.539 288.29C317.179 287.195 318.457 285.637 319.211 283.816C319.966 281.994 320.164 279.989 319.779 278.055C319.394 276.121 318.445 274.344 317.05 272.95C315.656 271.556 313.879 270.606 311.945 270.221C310.011 269.836 308.006 270.034 306.185 270.789C304.363 271.543 302.806 272.821 301.71 274.461C300.614 276.1 300.03 278.028 300.03 280V280C300.033 282.643 301.084 285.178 302.953 287.047C304.822 288.916 307.357 289.967 310 289.97V289.97Z" fill="#E6E6E6"/>
<path d="M396.988 374.377C422.873 374.335 443.856 373.114 443.853 371.65C443.851 370.185 422.865 369.032 396.979 369.074C371.094 369.116 350.111 370.337 350.114 371.801C350.116 373.266 371.102 374.419 396.988 374.377Z" fill="#E6E6E6"/>
<path d="M436.841 280.712L437.643 285.825C437.752 286.519 437.686 287.228 437.451 287.894C437.215 288.561 436.817 289.167 436.286 289.665C435.756 290.163 435.108 290.539 434.395 290.763C433.682 290.987 432.923 291.054 432.177 290.957V290.957C431.454 290.862 430.763 290.617 430.155 290.239C429.548 289.86 429.04 289.359 428.669 288.771C428.299 288.184 428.076 287.527 428.016 286.847C427.957 286.168 428.062 285.486 428.326 284.85L431.047 278.281L429.599 233.972L438 231L436.841 280.712Z" fill="#FFB8B8"/>
<path d="M414.5 208C420.299 208 425 203.075 425 197C425 190.925 420.299 186 414.5 186C408.701 186 404 190.925 404 197C404 203.075 408.701 208 414.5 208Z" fill="#FFB8B8"/>
<path d="M427 217L408 216.182C410.109 211.275 410.946 206.528 410.054 202H422.635C421.974 206.271 423.8 211.398 427 217Z" fill="#FFB8B8"/>
<path d="M424.325 258.87L395.154 261L396.214 244.597C392.852 236.641 393.389 230.895 397.346 227.088L397.704 221.547C397.819 219.773 398.49 218.079 399.622 216.705C400.754 215.33 402.291 214.343 404.016 213.882L409.07 212.533C415.615 216.348 420.833 216.296 424.593 212L430.609 215.066C432.066 215.809 433.262 216.975 434.037 218.41C434.813 219.845 435.131 221.481 434.951 223.1L424.325 258.87Z" fill="#575A88"/>
<path d="M379.509 260.276L371.229 264.594C370.52 264.963 369.707 265.085 368.92 264.941C368.134 264.796 367.418 264.393 366.89 263.797V263.797C366.477 263.33 366.194 262.764 366.07 262.155C365.947 261.546 365.986 260.916 366.185 260.327C366.384 259.738 366.736 259.211 367.204 258.8C367.672 258.388 368.241 258.106 368.854 257.981L374.665 256.801L392.696 249.851L395.657 229L404 231.139L402.385 255.731L379.509 260.276Z" fill="#FFB8B8"/>
<path d="M438 232.634L428.556 238L428 216.537L429.628 216C430.728 216 431.816 216.209 432.832 216.615C433.848 217.022 434.771 217.617 435.548 218.368C436.325 219.119 436.942 220.01 437.363 220.991C437.783 221.972 438 223.024 438 224.086V232.634Z" fill="#575A88"/>
<path d="M431.512 364L423.882 362.789C422.341 336.332 419.238 311.633 413.698 289.676C400.886 306.905 390.146 332.299 380.973 363.866L372 361.456L395.488 257.536L423.462 257C434.903 272.898 431.554 321.996 431.512 364Z" fill="#2F2E41"/>
<path d="M376.41 372.961L363.237 371.096C362.871 371.045 362.521 370.915 362.209 370.716C361.898 370.517 361.631 370.253 361.428 369.942C361.226 369.631 361.091 369.28 361.032 368.913C360.974 368.545 360.994 368.169 361.092 367.81V367.81C361.225 367.317 361.498 366.874 361.877 366.535C362.256 366.197 362.725 365.978 363.226 365.905L365.567 365.563L372.968 361L379.09 362.648L380.906 368.057C381.046 368.698 381.03 369.363 380.859 369.997C380.689 370.631 380.369 371.213 379.927 371.695C379.486 372.177 378.935 372.543 378.322 372.764C377.71 372.984 377.054 373.052 376.41 372.961V372.961Z" fill="#2F2E41"/>
<path d="M429.41 372.961L416.237 371.096C415.871 371.045 415.521 370.915 415.209 370.716C414.898 370.517 414.631 370.253 414.428 369.942C414.226 369.631 414.091 369.28 414.032 368.913C413.974 368.545 413.994 368.169 414.092 367.81V367.81C414.225 367.317 414.498 366.874 414.877 366.535C415.256 366.197 415.725 365.978 416.226 365.905L418.567 365.563L425.968 361L432.091 362.648L433.906 368.057C434.046 368.698 434.03 369.363 433.859 369.997C433.689 370.631 433.369 371.213 432.927 371.695C432.486 372.177 431.935 372.543 431.322 372.764C430.71 372.984 430.054 373.052 429.41 372.961V372.961Z" fill="#2F2E41"/>
<path d="M406 237C403.504 231.528 399.194 229.408 392 232.619L392.97 225.484C393.334 222.804 394.476 220.29 396.254 218.249C398.033 216.209 400.371 214.732 402.98 214V214L406 237Z" fill="#575A88"/>
<path d="M402.064 191.611C402.064 191.611 400.405 178.59 413.946 182.86C413.946 182.86 423.617 181.071 426.789 193.266L430 206.05L428.435 205.191L427.705 206.799L425.169 207.447L424.084 205.275L423.559 207.912L402.786 210C402.786 210 412.09 204.453 412.237 194.512L410.465 196.4L402.064 191.611Z" fill="#2F2E41"/>
<path d="M425.5 188C428.538 188 431 185.538 431 182.5C431 179.462 428.538 177 425.5 177C422.462 177 420 179.462 420 182.5C420 185.538 422.462 188 425.5 188Z" fill="#2F2E41"/>
<path d="M419.676 181.194C419.763 179.798 420.362 178.489 421.352 177.533C422.341 176.577 423.646 176.047 425 176.051C424.89 176.036 424.781 176.019 424.669 176.011C423.259 175.918 421.871 176.406 420.81 177.37C419.749 178.334 419.102 179.694 419.011 181.15C418.92 182.607 419.393 184.041 420.326 185.137C421.259 186.233 422.575 186.901 423.985 186.995C424.097 187.002 424.208 186.999 424.319 187C422.975 186.824 421.747 186.125 420.884 185.047C420.021 183.968 419.589 182.59 419.676 181.194V181.194Z" fill="#2F2E41"/>
</svg>
