<svg width="640" height="389" viewBox="0 0 640 389" fill="none" xmlns="http://www.w3.org/2000/svg">
<path d="M562 348.5C562 350.527 560.179 352.496 556.769 354.365C539.28 363.948 479.975 371 409.5 371C406.727 371 403.973 370.988 401.239 370.965C320.856 370.332 257 360.516 257 348.5C257 336.073 325.275 326 409.5 326C432.565 326 454.429 326.757 474.026 328.107C478.951 328.448 483.726 328.825 488.353 329.239C490.276 329.407 492.172 329.585 494.04 329.773C502.846 330.638 511.005 331.637 518.387 332.75C521.971 333.289 525.366 333.853 528.571 334.441C536.92 335.979 543.924 337.68 549.334 339.505C557.478 342.264 562 345.305 562 348.5Z" fill="#F0F0F0"/>
<path d="M384 275C384 283.285 315.725 290 231.5 290C217.581 290 204.099 289.815 191.287 289.47C141.875 288.15 102.453 284.44 86.5765 279.68C81.6615 278.21 79 276.635 79 275C79 273.13 82.4871 271.335 88.8542 269.685C92.5695 268.72 97.2659 267.805 102.822 266.945C102.866 266.94 102.914 266.935 102.963 266.925C115.687 264.97 132.904 263.32 153.181 262.13C176.071 260.775 202.865 260 231.5 260C315.725 260 384 266.715 384 275Z" fill="#F0F0F0"/>
<path d="M378.336 165L367.492 161.725C367.492 161.725 363.245 160.805 365.84 151.805C368.435 142.806 373.583 145.324 373.583 145.324L383.202 148.356L387 149.629L381.656 157.762L381.208 163.183L378.336 165Z" fill="#3F3D56"/>
<path d="M399.392 142.696L403 156.481L384.517 173.619L382.928 174L378.689 172.861L375.081 159.075L378.735 155.399L375 154.463L382.971 147.06L387.13 147.895L390.466 144.726L388.214 143.865L388.002 143.054L390.73 141L399.392 142.696Z" fill="#3F3D56"/>
<path d="M382 162.504L384.316 172L395 161.628L392.325 152L382 162.504Z" fill="#318BAF"/>
<path d="M398.512 142.686L399 144.609L381.284 161.622L379.752 162L375.794 160.943L375.576 160.938L375.078 158.977L378.601 155.321L375 154.39L382.683 147.027L386.692 147.857L389.908 144.706L387.737 143.849L387.533 143.043L390.162 141L398.512 142.686Z" stroke="#3F3D56" stroke-width="0.448787" stroke-miterlimit="10"/>
<path d="M391.067 143.18C391.862 142.982 392.396 142.384 392.261 141.845C392.126 141.306 391.373 141.031 390.578 141.23C389.784 141.428 389.249 142.026 389.384 142.565C389.519 143.104 390.273 143.379 391.067 143.18Z" fill="#318BAF"/>
<path d="M379.742 158.126C380.537 157.927 381.071 157.329 380.936 156.79C380.801 156.252 380.048 155.976 379.253 156.175C378.459 156.374 377.924 156.972 378.059 157.51C378.194 158.049 378.947 158.325 379.742 158.126Z" fill="#318BAF"/>
<path d="M370.108 182L372.476 173.699C372.476 173.699 366.319 158.562 373.423 157.097C380.526 155.632 381 171.257 381 171.257L378.159 180.535L370.108 182Z" fill="#FFB6B6"/>
<path d="M415 166C425.493 166 434 157.493 434 147C434 136.507 425.493 128 415 128C404.507 128 396 136.507 396 147C396 157.493 404.507 166 415 166Z" fill="#FFB6B6"/>
<path d="M409.168 160.429C409.168 160.429 408.026 174.714 405.172 175.857C402.317 177 436 185 436 185L427.437 175.286C427.437 175.286 425.724 160.429 429.72 157L409.168 160.429Z" fill="#FFB6B6"/>
<path d="M381 178.965L373.632 178C373.632 178 364.882 182.823 364.882 189.092C364.882 195.361 359.816 205.489 359.816 205.489C359.816 205.489 356.132 218.992 364.421 219.957C372.711 220.921 380.079 205.489 380.079 205.489L381 178.965Z" fill="#F0F0F0"/>
<path d="M376.928 254.384C376.928 254.384 359.695 238.054 354.771 239.043C349.847 240.033 340 241.518 340 248.94C340 256.363 356.248 273.683 356.248 273.683C356.248 273.683 368.558 300.9 380.375 301.89C388.148 302.598 395.875 303.755 403.516 305.354C403.516 305.354 398.1 325.148 401.054 330.591C404.008 336.035 415.333 342.468 416.318 341.973C417.302 341.478 431.089 328.612 436.997 310.302C442.906 291.993 446.845 278.137 441.429 277.147C436.013 276.157 376.928 254.384 376.928 254.384Z" fill="#2F2E41"/>
<path d="M342.062 248.005C342.062 248.005 338.547 247.516 339.049 255.838C339.551 264.159 341.058 294.02 343.569 299.894C346.08 305.768 346.582 312.621 345.578 315.069C344.573 317.516 342.565 321.433 346.08 321.922C349.595 322.412 364.159 320.454 365.666 319.964C367.173 319.475 368.679 311.153 367.675 311.153C366.67 311.153 364.159 310.663 365.164 307.237C366.168 303.81 366.67 303.81 365.164 302.831C363.657 301.852 359.64 300.383 360.644 299.404C361.648 298.425 362.653 275.418 362.653 275.418L342.062 248.005Z" fill="#2F2E41"/>
<path d="M347.576 320.45C347.576 320.45 339.141 318 338.148 323.389C338.148 323.389 336.66 331.718 343.11 334.657C347.273 336.599 351.257 338.894 355.018 341.516C355.018 341.516 365.438 345.435 365.934 340.536C366.431 335.637 363.95 318 363.95 318L347.576 320.45Z" fill="#2F2E41"/>
<path d="M402.176 326.76L418.173 314C418.173 314 415.174 329.704 419.173 332.649L421 337.892L415.884 342C415.884 342 400.176 339.52 402.176 326.76Z" fill="#2F2E41"/>
<path d="M424.281 304.108C424.281 304.108 414.775 307.055 416.133 317.369C417.491 327.683 419.232 338.889 419.232 338.889C419.232 338.889 419.754 366.485 426.544 368.45C433.334 370.415 435.145 366.485 435.145 366.485C435.145 366.485 442.863 344.921 440.577 338.489C437.809 330.704 433.821 321.962 435.145 319.334C436.447 316.747 434.239 302.634 424.281 304.108Z" fill="#2F2E41"/>
<path d="M430.307 171.59C430.307 171.59 426.433 172.077 420.139 173.05C413.844 174.024 409.487 169.156 406.098 170.129C402.708 171.103 374.626 177.918 374.626 177.918L378.983 211.507C378.983 211.507 373.657 250.45 374.626 257.265C375.594 264.08 363.005 263.106 370.268 271.382C377.531 279.657 390.119 286.959 415.781 284.525C441.443 282.091 444.832 282.578 444.832 278.683C444.832 274.789 439.022 241.687 440.959 238.767C442.895 235.846 446.769 232.438 444.832 229.031C442.895 225.623 440.959 223.676 443.864 220.756C446.769 217.835 448.221 214.914 448.221 213.454C448.221 211.993 455 188.141 455 188.141C455 188.141 452.095 176.458 448.706 175.971C445.316 175.484 442.411 173.05 439.99 173.05C437.569 173.05 436.117 173.537 434.664 173.05L430.307 171.59Z" fill="#F0F0F0"/>
<path d="M387.277 143.211C389.541 142.927 391.875 141.634 393.128 140.842C394.554 142.156 403.333 149.728 418.42 151.926C418.42 151.926 418.454 151.641 418.54 151.159L423.71 152L433.273 151.113C433.225 151.268 433.195 151.353 433.195 151.353C433.195 151.353 434.563 151.001 435.037 148.056C435.128 147.492 435.238 146.931 435.367 146.372C436.136 143.029 438.002 130.979 427.415 122.925C419.707 117.062 410.823 118.913 405.206 121.15C402.924 122.05 400.855 123.381 399.126 125.061C397.396 126.741 396.04 128.737 395.139 130.929C394.68 132.025 394.373 133.174 394.227 134.346L394.007 134.941C392.302 135.167 388.878 133.803 387.038 134.449C384.523 135.331 383.286 138.949 383.033 140.03C382.78 141.112 383.962 143.626 387.277 143.211ZM419.847 146.611C421.209 143.271 423.779 139.624 428.487 139.805C433.37 139.994 434.227 143.689 434.054 146.849L421.906 147.27L419.847 146.611Z" fill="#2F2E41"/>
<path d="M420.863 119.187C420.938 118.749 420.059 118.234 418.901 118.036C417.742 117.839 416.743 118.034 416.668 118.472C416.593 118.91 417.471 119.425 418.63 119.623C419.788 119.82 420.788 119.625 420.863 119.187Z" fill="#2F2E41"/>
<path d="M259.5 74C266.404 74 272 68.4036 272 61.5C272 54.5964 266.404 49 259.5 49C252.596 49 247 54.5964 247 61.5C247 68.4036 252.596 74 259.5 74Z" fill="#318BAF"/>
<path d="M238.433 142C238.388 141.829 233.882 124.701 233.113 106.661C232.66 96.0395 233.571 87.1769 235.821 80.3187C238.663 71.6527 243.662 66.1621 250.678 64L251 64.9253C235.801 69.6097 233.446 90.1856 234.147 106.622C234.912 124.563 239.392 141.594 239.437 141.764L238.433 142Z" fill="#2F2E41"/>
<path d="M291.769 237.424C285.007 246.288 292.757 263.55 292.757 263.55C292.757 263.55 311.47 266.44 318.231 257.576C324.993 248.712 317.243 231.45 317.243 231.45C317.243 231.45 298.53 228.56 291.769 237.424Z" fill="#3F3D56"/>
<path d="M164.527 251.827C169.975 258.337 183.864 255.286 183.864 255.286C183.864 255.286 188.921 241.682 183.473 235.173C178.025 228.663 164.136 231.714 164.136 231.714C164.136 231.714 159.079 245.318 164.527 251.827Z" fill="#3F3D56"/>
<path d="M316.534 275C261.936 245.898 218.909 247.443 192.43 253.864C163.766 260.815 147.814 274.793 147.656 274.934L147 274.225C147.159 274.083 163.295 259.943 192.195 252.935C209.158 248.822 227.142 247.928 245.653 250.277C268.773 253.213 292.778 261.248 317 274.159L316.534 275Z" fill="#2F2E41"/>
<path d="M232 241C251.33 241 267 225.33 267 206C267 186.67 251.33 171 232 171C212.67 171 197 186.67 197 206C197 225.33 212.67 241 232 241Z" fill="#3F3D56"/>
<path d="M233 173C247.359 173 259 161.359 259 147C259 132.641 247.359 121 233 121C218.641 121 207 132.641 207 147C207 161.359 218.641 173 233 173Z" fill="#3F3D56"/>
<path d="M232.5 124C243.822 124 253 114.822 253 103.5C253 92.1782 243.822 83 232.5 83C221.178 83 212 92.1782 212 103.5C212 114.822 221.178 124 232.5 124Z" fill="#3F3D56"/>
</svg>
