<svg width="640" height="389" viewBox="0 0 640 389" fill="none" xmlns="http://www.w3.org/2000/svg">
<path d="M591 33H225V269H591V33Z" fill="#E6E6E6"/>
<path d="M580 63H235V254H580V63Z" fill="white"/>
<path d="M590 33H225V49H590V33Z" fill="#318BAF"/>
<path d="M236 45C237.657 45 239 43.433 239 41.5C239 39.567 237.657 38 236 38C234.343 38 233 39.567 233 41.5C233 43.433 234.343 45 236 45Z" fill="white"/>
<path d="M246.5 45C247.881 45 249 43.433 249 41.5C249 39.567 247.881 38 246.5 38C245.119 38 244 39.567 244 41.5C244 43.433 245.119 45 246.5 45Z" fill="white"/>
<path d="M257.5 45C259.433 45 261 43.433 261 41.5C261 39.567 259.433 38 257.5 38C255.567 38 254 39.567 254 41.5C254 43.433 255.567 45 257.5 45Z" fill="white"/>
<path d="M483.126 81H369.874C369.632 80.968 369.41 80.849 369.249 80.665C369.089 80.481 369 80.2447 369 80C369 79.7553 369.089 79.519 369.249 79.335C369.41 79.151 369.632 79.032 369.874 79H483.126C483.368 79.032 483.59 79.151 483.751 79.335C483.911 79.519 484 79.7553 484 80C484 80.2447 483.911 80.481 483.751 80.665C483.59 80.849 483.368 80.968 483.126 81V81Z" fill="#CCCCCC"/>
<path d="M405.123 92H332.877C332.634 91.968 332.412 91.849 332.25 91.665C332.089 91.481 332 91.2447 332 91C332 90.7553 332.089 90.519 332.25 90.335C332.412 90.151 332.634 90.032 332.877 90H405.123C405.366 90.032 405.588 90.151 405.75 90.335C405.911 90.519 406 90.7553 406 91C406 91.2447 405.911 91.481 405.75 91.665C405.588 91.849 405.366 91.968 405.123 92V92Z" fill="#CCCCCC"/>
<path d="M483.123 92H410.877C410.634 91.968 410.412 91.849 410.25 91.665C410.089 91.481 410 91.2447 410 91C410 90.7553 410.089 90.519 410.25 90.335C410.412 90.151 410.634 90.032 410.877 90H483.123C483.366 90.032 483.588 90.151 483.75 90.335C483.911 90.519 484 90.7553 484 91C484 91.2447 483.911 91.481 483.75 91.665C483.588 91.849 483.366 91.968 483.123 92H483.123Z" fill="#CCCCCC"/>
<path d="M405.123 103H332.877C332.634 102.968 332.412 102.849 332.25 102.665C332.089 102.481 332 102.245 332 102C332 101.755 332.089 101.519 332.25 101.335C332.412 101.151 332.634 101.032 332.877 101H405.123C405.366 101.032 405.588 101.151 405.75 101.335C405.911 101.519 406 101.755 406 102C406 102.245 405.911 102.481 405.75 102.665C405.588 102.849 405.366 102.968 405.123 103V103Z" fill="#CCCCCC"/>
<path d="M405.123 113H332.877C332.634 112.984 332.412 112.924 332.25 112.832C332.089 112.741 332 112.622 332 112.5C332 112.378 332.089 112.259 332.25 112.168C332.412 112.076 332.634 112.016 332.877 112H405.123C405.366 112.016 405.588 112.076 405.75 112.168C405.911 112.259 406 112.378 406 112.5C406 112.622 405.911 112.741 405.75 112.832C405.588 112.924 405.366 112.984 405.123 113V113Z" fill="#CCCCCC"/>
<path d="M438.102 103H416.898C416.65 102.968 416.422 102.849 416.256 102.665C416.091 102.481 416 102.245 416 102C416 101.755 416.091 101.519 416.256 101.335C416.422 101.151 416.65 101.032 416.898 101H438.102C438.35 101.032 438.578 101.151 438.744 101.335C438.909 101.519 439 101.755 439 102C439 102.245 438.909 102.481 438.744 102.665C438.578 102.849 438.35 102.968 438.102 103V103Z" fill="#CCCCCC"/>
<path d="M438.102 113H416.898C416.65 112.968 416.422 112.849 416.256 112.665C416.091 112.481 416 112.245 416 112C416 111.755 416.091 111.519 416.256 111.335C416.422 111.151 416.65 111.032 416.898 111H438.102C438.35 111.032 438.578 111.151 438.744 111.335C438.909 111.519 439 111.755 439 112C439 112.245 438.909 112.481 438.744 112.665C438.578 112.849 438.35 112.968 438.102 113V113Z" fill="#CCCCCC"/>
<path d="M471.18 113H451.82C451.593 112.968 451.385 112.849 451.234 112.665C451.083 112.481 451 112.245 451 112C451 111.755 451.083 111.519 451.234 111.335C451.385 111.151 451.593 111.032 451.82 111H471.18C471.407 111.032 471.615 111.151 471.766 111.335C471.917 111.519 472 111.755 472 112C472 112.245 471.917 112.481 471.766 112.665C471.615 112.849 471.407 112.968 471.18 113V113Z" fill="#CCCCCC"/>
<path d="M353.141 81H332.859C332.622 80.968 332.403 80.849 332.245 80.665C332.087 80.481 332 80.2447 332 80C332 79.7553 332.087 79.519 332.245 79.335C332.403 79.151 332.622 79.032 332.859 79H353.141C353.378 79.032 353.597 79.151 353.755 79.335C353.913 79.519 354 79.7553 354 80C354 80.2447 353.913 80.481 353.755 80.665C353.597 80.849 353.378 80.968 353.141 81Z" fill="#CCCCCC"/>
<path d="M404.135 206H332.865C332.626 205.968 332.406 205.849 332.247 205.665C332.088 205.481 332 205.245 332 205C332 204.755 332.088 204.519 332.247 204.335C332.406 204.151 332.626 204.032 332.865 204H404.135C404.374 204.032 404.594 204.151 404.753 204.335C404.912 204.519 405 204.755 405 205C405 205.245 404.912 205.481 404.753 205.665C404.594 205.849 404.374 205.968 404.135 206H404.135Z" fill="#CCCCCC"/>
<path d="M404.123 228H331.877C331.634 227.968 331.412 227.849 331.25 227.665C331.089 227.481 331 227.245 331 227C331 226.755 331.089 226.519 331.25 226.335C331.412 226.151 331.634 226.032 331.877 226H404.123C404.366 226.032 404.588 226.151 404.75 226.335C404.911 226.519 405 226.755 405 227C405 227.245 404.911 227.481 404.75 227.665C404.588 227.849 404.366 227.968 404.123 228H404.123Z" fill="#CCCCCC"/>
<path d="M404.135 239H332.865C332.626 238.968 332.406 238.849 332.247 238.665C332.088 238.481 332 238.245 332 238C332 237.755 332.088 237.519 332.247 237.335C332.406 237.151 332.626 237.032 332.865 237H404.135C404.374 237.032 404.594 237.151 404.753 237.335C404.912 237.519 405 237.755 405 238C405 238.245 404.912 238.481 404.753 238.665C404.594 238.849 404.374 238.968 404.135 239H404.135Z" fill="#CCCCCC"/>
<path d="M434.141 228H413.859C413.622 227.968 413.403 227.849 413.245 227.665C413.087 227.481 413 227.245 413 227C413 226.755 413.087 226.519 413.245 226.335C413.403 226.151 413.622 226.032 413.859 226H434.141C434.378 226.032 434.597 226.151 434.755 226.335C434.913 226.519 435 226.755 435 227C435 227.245 434.913 227.481 434.755 227.665C434.597 227.849 434.378 227.968 434.141 228V228Z" fill="#CCCCCC"/>
<path d="M434.141 239H413.859C413.622 238.968 413.403 238.849 413.245 238.665C413.087 238.481 413 238.245 413 238C413 237.755 413.087 237.519 413.245 237.335C413.403 237.151 413.622 237.032 413.859 237H434.141C434.378 237.032 434.597 237.151 434.755 237.335C434.913 237.519 435 237.755 435 238C435 238.245 434.913 238.481 434.755 238.665C434.597 238.849 434.378 238.968 434.141 239V239Z" fill="#CCCCCC"/>
<path d="M469.141 228H448.859C448.622 227.968 448.403 227.849 448.245 227.665C448.087 227.481 448 227.245 448 227C448 226.755 448.087 226.519 448.245 226.335C448.403 226.151 448.622 226.032 448.859 226H469.141C469.378 226.032 469.597 226.151 469.755 226.335C469.913 226.519 470 226.755 470 227C470 227.245 469.913 227.481 469.755 227.665C469.597 227.849 469.378 227.968 469.141 228V228Z" fill="#CCCCCC"/>
<path d="M483.126 216H369.874C369.632 215.968 369.41 215.849 369.249 215.665C369.089 215.481 369 215.245 369 215C369 214.755 369.089 214.519 369.249 214.335C369.41 214.151 369.632 214.032 369.874 214H483.126C483.368 214.032 483.59 214.151 483.751 214.335C483.911 214.519 484 214.755 484 215C484 215.245 483.911 215.481 483.751 215.665C483.59 215.849 483.368 215.968 483.126 216V216Z" fill="#CCCCCC"/>
<path d="M353.141 216H332.859C332.622 215.968 332.403 215.849 332.245 215.665C332.087 215.481 332 215.245 332 215C332 214.755 332.087 214.519 332.245 214.335C332.403 214.151 332.622 214.032 332.859 214H353.141C353.378 214.032 353.597 214.151 353.755 214.335C353.913 214.519 354 214.755 354 215C354 215.245 353.913 215.481 353.755 215.665C353.597 215.849 353.378 215.968 353.141 216V216Z" fill="#CCCCCC"/>
<path d="M387.615 132L360 159L387.615 186L393.828 179.848L372.944 159.171L394 138.323L387.615 132Z" fill="#E6E6E6"/>
<path d="M427.574 132L456 159L427.574 186L421.178 179.848L442.675 159.171L421 138.323L427.574 132Z" fill="#E6E6E6"/>
<path d="M387.615 132L360 159L387.615 186L393.828 179.848L372.944 159.171L394 138.323L387.615 132Z" fill="#318BAF"/>
<path d="M427.574 132L456 159L427.574 186L421.178 179.848L442.675 159.171L421 138.323L427.574 132Z" fill="#318BAF"/>
<path d="M340.592 361.181C349.214 372.779 367.112 374 367.112 374C367.112 374 371.03 356.417 362.408 344.819C353.786 333.221 335.888 332 335.888 332C335.888 332 331.97 349.583 340.592 361.181Z" fill="#699182"/>
<path d="M384.442 365.454C378.955 373.186 367.565 374 367.565 374C367.565 374 365.072 362.278 370.558 354.546C376.045 346.814 387.435 346 387.435 346C387.435 346 389.928 357.722 384.442 365.454Z" fill="#699182"/>
<path d="M149 309.455V340H140.6L135 308L149 309.455Z" fill="#FFB9B9"/>
<path d="M80 309.455V340H71.6002L66 308L80 309.455Z" fill="#FFB9B9"/>
<path d="M127 88.0534C127 88.0534 112.051 77.2233 110.183 82.4029C108.314 87.5825 121.394 97 121.394 97L127 88.0534Z" fill="#FFB9B9"/>
<path d="M77 100.584C77 117.475 84.2889 118 96.163 118C108.037 118 120 117.475 120 100.584C120 83.693 110.374 70 98.5 70C86.6259 70 77 83.693 77 100.584Z" fill="#2F2E41"/>
<path d="M106.557 101.129C106.557 101.129 104.893 113.782 112.799 114.626C120.705 115.469 87 118 87 118C87 118 95.7383 109.986 91.1611 103.66C86.5839 97.3335 106.557 101.129 106.557 101.129Z" fill="#FFB9B9"/>
<path d="M150.258 332L153.273 357.392C153.273 357.392 168.347 375.898 158.872 374.607C149.397 373.316 143.367 374.881 143.367 373.16C143.367 371.438 143.145 365.288 141.853 365.288C140.561 365.288 139.491 375 139.491 375C139.491 375 135.615 374.707 135.184 374.277C134.754 373.846 134.323 349.215 134.323 349.215C134.323 349.215 133.031 341.899 135.615 338.456C138.199 335.013 137.769 332 137.769 332L150.258 332Z" fill="#2F2E41"/>
<path d="M81.8391 332L84.9616 357.392C84.9616 357.392 100.574 375.898 90.7605 374.607C80.947 373.316 74.702 374.881 74.702 373.16C74.702 371.438 74.4713 365.288 73.1331 365.288C71.7948 365.288 70.6874 375 70.6874 375C70.6874 375 66.6728 374.707 66.2267 374.277C65.7806 373.846 65.3346 349.215 65.3346 349.215C65.3346 349.215 63.9963 341.899 66.6728 338.456C69.3492 335.013 68.9031 332 68.9031 332H81.8391Z" fill="#2F2E41"/>
<path d="M127.822 181C127.822 181 141.683 220.184 142.55 228.796C143.416 237.408 141.683 266.689 141.683 266.689C141.683 266.689 154.245 317.28 151.646 317.711C149.047 318.142 134.574 320.183 134.141 318.03C133.708 315.877 132.163 312.544 132.596 311.252C133.03 309.96 131.297 305.224 131.297 302.64C131.297 300.057 125.223 286.496 125.657 284.343C126.09 282.19 118.293 250.326 116.993 247.743C115.694 245.159 112.229 227.074 112.229 227.074C112.229 227.074 92.7366 280.037 92.3035 281.329C91.8703 282.621 90.1377 284.774 91.004 285.205C91.8703 285.635 89.7045 288.649 89.7045 288.649C89.7045 288.649 85.2161 306.516 85.2161 307.377C85.2161 308.238 86.0824 317.986 84.3498 318.416C82.6172 318.847 64.9192 318.819 64.0529 315.805C63.1866 312.791 73.2446 277.884 73.2446 277.884C73.2446 277.884 80.6083 255.924 78.4425 250.326C76.2767 244.728 80.6083 211.142 82.3409 208.558C84.0735 205.975 84.5067 190.473 84.5067 190.473L127.822 181Z" fill="#2F2E41"/>
<path d="M99.5 108C106.956 108 113 101.732 113 94C113 86.268 106.956 80 99.5 80C92.0442 80 86 86.268 86 94C86 101.732 92.0442 108 99.5 108Z" fill="#FFB9B9"/>
<path d="M106.933 111.097C106.933 111.097 91.3595 111.532 90.4944 110.228C89.6292 108.924 68 113.27 68 121.962C68 130.655 80.5449 164.555 80.5449 164.555C80.5449 164.555 85.3034 188.894 84.0056 191.501C82.7079 194.109 132.022 185.851 130.725 181.505C129.427 177.159 122.073 167.597 131.59 159.34C141.107 151.082 145 142.389 145 142.389L133.753 112.401C133.753 112.401 122.506 110.662 119.91 112.401C117.315 114.139 106.933 111.097 106.933 111.097Z" fill="#318BAF"/>
<path d="M140.956 145L143.987 142.816C143.987 142.816 172.134 113.115 164.772 107.437C157.411 101.759 146.585 96.5174 141.389 96.0806C136.193 95.6438 131.862 91.7128 131.862 91.7128C131.862 91.7128 126.233 81.6668 121.903 88.2185C117.573 94.7702 112.809 96.9541 118.872 99.138C124.934 101.322 128.831 100.448 131.862 102.632C134.894 104.816 146.585 108.31 141.389 109.621C138.409 110.349 135.508 111.373 132.729 112.678L127.099 122.724L140.956 145Z" fill="#318BAF"/>
<path d="M93.0138 217C93.0138 217 104.174 233.853 96.0184 232.966C87.8631 232.079 84 220.548 84 220.548L93.0138 217Z" fill="#FFB9B9"/>
<path d="M70.5724 120L67.4946 122.167C67.4946 122.167 57.3818 176.767 67.4946 191.067C77.6074 205.367 78.4867 204.5 78.4867 204.5C78.4867 204.5 80.2455 203.2 81.1248 211.867C82.0042 220.533 80.6852 224 83.3233 224C85.9614 224 97.8329 221.4 96.9536 219.233C96.0742 217.067 90.3583 204.5 89.9186 201.467C89.4789 198.433 87.2805 191.5 86.4011 187.6C85.5217 183.7 90.3583 181.533 88.1598 173.3C85.9614 165.067 82.8836 150.333 82.8836 147.3C82.8836 144.267 70.5724 120 70.5724 120Z" fill="#318BAF"/>
<path d="M86 81.6573C86 86.4387 92.3009 90.3147 100.074 90.3147C107.846 90.3147 115 92.8762 115 88.0948C115 83.3135 107.846 73 100.074 73C92.3009 73 86 76.876 86 81.6573Z" fill="#2F2E41"/>
<path d="M119.997 104C119.997 104 120.568 118.783 105.293 117.967C90.0166 117.152 107.357 105.331 107.357 105.331L119.997 104Z" fill="#2F2E41"/>
<path d="M479 374H59V375H479V374Z" fill="#3F3D56"/>
</svg>
