<svg width="640" height="389" viewBox="0 0 640 389" fill="none" xmlns="http://www.w3.org/2000/svg">
<path opacity="0.1" d="M579 107.594C573.648 97.1964 566.631 87.7446 558.227 79.6129L270.075 77.2124L507.321 49.0415C491.797 43.8469 475.555 41.1228 459.186 40.9688C436.346 25.3749 406.992 16 374.973 16C346.244 16 319.679 23.549 298.02 36.3578C279.597 28.3268 258.625 23.79 236.341 23.79C172.317 23.79 118.969 61.2802 107 111L579 107.594Z" fill="#318BAF"/>
<path opacity="0.1" d="M590 149.097C589.98 135.562 586.909 122.203 581.013 110L81.2377 154.047C76.1658 161.725 72.2231 170.083 69.5289 178.867L224.294 198.231L66 212.352C70.7624 268.267 127.874 312.424 197.64 312.424C232.757 312.424 264.666 301.232 288.31 282.986C312.03 301.577 344.23 313 379.742 313C432.406 313 477.864 287.83 499.033 251.435C541.5 240.123 574.489 211.712 585.78 176.178L390.059 150.709H590C590 150.179 590 149.645 590 149.097Z" fill="#318BAF"/>
<path d="M197 271C197 271 176.022 240.317 179.585 211.358C181.153 199.222 178.796 186.898 172.867 176.235C170.014 171.194 166.711 166.429 163 162" stroke="#535461" stroke-width="0.625618" stroke-miterlimit="10"/>
<path d="M164.677 143.408C166.074 147.538 162.485 162 162.485 162C162.485 162 150.804 152.494 149.407 148.359C148.737 146.374 148.899 144.21 149.857 142.342C150.816 140.474 152.491 139.055 154.516 138.399C156.541 137.742 158.75 137.901 160.655 138.84C162.561 139.78 164.007 141.423 164.677 143.408V143.408Z" fill="#318BAF"/>
<path d="M184.71 162.808C183.595 166.948 172.585 177 172.585 177C172.585 177 168.058 163.042 169.178 158.902C169.432 157.904 169.888 156.966 170.52 156.14C171.153 155.315 171.949 154.619 172.863 154.093C173.777 153.567 174.789 153.222 175.843 153.077C176.896 152.933 177.968 152.991 178.998 153.25C180.027 153.509 180.993 153.963 181.839 154.586C182.685 155.208 183.395 155.986 183.926 156.876C184.458 157.765 184.801 158.748 184.935 159.766C185.07 160.785 184.994 161.819 184.71 162.808V162.808Z" fill="#318BAF"/>
<path d="M197.701 202.515C194.602 205.615 180 209 180 209C180 209 183.361 194.424 186.437 191.328C187.924 189.84 189.942 189.003 192.048 189C194.154 188.997 196.175 189.829 197.666 191.312C199.157 192.796 199.997 194.809 200 196.91C200.003 199.011 199.169 201.027 197.682 202.515H197.701Z" fill="#318BAF"/>
<path d="M200.532 234.566C197.975 238.162 184 244 184 244C184 244 184.851 228.973 187.408 225.377C188.635 223.649 190.504 222.477 192.602 222.116C194.701 221.756 196.858 222.239 198.598 223.457C200.338 224.676 201.52 226.531 201.883 228.614C202.245 230.697 201.76 232.839 200.532 234.566V234.566Z" fill="#318BAF"/>
<path d="M157.227 183.055C161.156 184.979 176 183.37 176 183.37C176 183.37 168.051 170.606 164.095 168.678C162.22 167.843 160.096 167.777 158.173 168.493C156.249 169.209 154.676 170.651 153.786 172.516C152.895 174.381 152.756 176.522 153.398 178.488C154.04 180.454 155.413 182.092 157.227 183.055V183.055Z" fill="#318BAF"/>
<path d="M160.808 220.951C165.174 221.601 179 215.556 179 215.556C179 215.556 167.518 205.737 163.162 205.087C162.124 204.932 161.067 204.984 160.049 205.24C159.032 205.495 158.074 205.95 157.231 206.577C155.53 207.843 154.398 209.736 154.087 211.84C153.775 213.944 154.309 216.085 155.57 217.794C156.832 219.503 158.717 220.638 160.813 220.951H160.808Z" fill="#318BAF"/>
<path d="M169.433 256.7C173.567 258.01 188 254.604 188 254.604C188 254.604 178.475 243.687 174.328 242.377C173.346 242.068 172.31 241.947 171.279 242.021C170.248 242.096 169.243 242.364 168.32 242.811C167.398 243.258 166.576 243.875 165.902 244.626C165.229 245.377 164.716 246.248 164.393 247.189C164.071 248.13 163.945 249.123 164.022 250.111C164.1 251.098 164.38 252.062 164.847 252.946C165.313 253.83 165.956 254.617 166.74 255.263C167.524 255.908 168.433 256.4 169.415 256.709L169.433 256.7Z" fill="#318BAF"/>
<path opacity="0.25" d="M164.677 143.408C166.074 147.538 162.485 162 162.485 162C162.485 162 150.804 152.494 149.407 148.359C148.737 146.374 148.899 144.21 149.857 142.342C150.816 140.474 152.491 139.055 154.516 138.399C156.541 137.742 158.75 137.901 160.655 138.84C162.561 139.78 164.007 141.423 164.677 143.408V143.408Z" fill="black"/>
<path opacity="0.25" d="M184.71 162.808C183.595 166.948 172.585 177 172.585 177C172.585 177 168.058 163.042 169.178 158.902C169.432 157.904 169.888 156.966 170.52 156.14C171.153 155.315 171.949 154.619 172.863 154.093C173.777 153.567 174.789 153.222 175.843 153.077C176.896 152.933 177.968 152.991 178.998 153.25C180.027 153.509 180.993 153.963 181.839 154.586C182.685 155.208 183.395 155.986 183.926 156.876C184.458 157.765 184.801 158.748 184.935 159.766C185.07 160.785 184.994 161.819 184.71 162.808V162.808Z" fill="black"/>
<path opacity="0.25" d="M197.701 202.515C194.602 205.615 180 209 180 209C180 209 183.361 194.424 186.437 191.328C187.924 189.84 189.942 189.003 192.048 189C194.154 188.997 196.175 189.829 197.666 191.312C199.157 192.796 199.997 194.809 200 196.91C200.003 199.011 199.169 201.027 197.682 202.515H197.701Z" fill="black"/>
<path opacity="0.25" d="M200.532 234.566C197.975 238.162 184 244 184 244C184 244 184.851 228.973 187.408 225.377C188.635 223.649 190.504 222.477 192.602 222.116C194.701 221.756 196.858 222.239 198.598 223.457C200.338 224.676 201.52 226.531 201.883 228.614C202.245 230.697 201.76 232.839 200.532 234.566V234.566Z" fill="black"/>
<path opacity="0.25" d="M157.227 183.055C161.156 184.979 176 183.37 176 183.37C176 183.37 168.051 170.606 164.095 168.678C162.22 167.843 160.096 167.777 158.173 168.493C156.249 169.209 154.676 170.651 153.786 172.516C152.895 174.381 152.756 176.522 153.398 178.488C154.04 180.454 155.413 182.092 157.227 183.055V183.055Z" fill="black"/>
<path opacity="0.25" d="M160.808 220.951C165.174 221.601 179 215.556 179 215.556C179 215.556 167.518 205.737 163.162 205.087C162.124 204.932 161.067 204.984 160.049 205.24C159.032 205.495 158.074 205.95 157.231 206.577C155.53 207.843 154.398 209.736 154.087 211.84C153.775 213.944 154.309 216.085 155.57 217.794C156.832 219.503 158.717 220.638 160.813 220.951H160.808Z" fill="black"/>
<path opacity="0.25" d="M169.433 256.7C173.567 258.01 188 254.604 188 254.604C188 254.604 178.475 243.687 174.328 242.377C173.346 242.068 172.31 241.947 171.279 242.021C170.248 242.096 169.243 242.364 168.32 242.811C167.398 243.258 166.576 243.875 165.902 244.626C165.229 245.377 164.716 246.248 164.393 247.189C164.071 248.13 163.945 249.123 164.022 250.111C164.1 251.098 164.38 252.062 164.847 252.946C165.313 253.83 165.956 254.617 166.74 255.263C167.524 255.908 168.433 256.4 169.415 256.709L169.433 256.7Z" fill="black"/>
<path d="M197 270C197 270 164.99 250.497 156.517 222.443C153.036 210.664 145.829 200.329 135.975 192.99C131.268 189.542 126.256 186.533 121 184" stroke="#535461" stroke-width="0.625618" stroke-miterlimit="10"/>
<path d="M115.515 166.655C118.397 169.963 121 185 121 185C121 185 106.896 180.839 104.014 177.531C102.631 175.941 101.909 173.844 102.009 171.7C102.109 169.556 103.022 167.542 104.547 166.099C106.072 164.657 108.084 163.905 110.141 164.01C112.198 164.114 114.131 165.065 115.515 166.655V166.655Z" fill="#318BAF"/>
<path d="M141.939 175.706C142.654 180.067 136.83 194 136.83 194C136.83 194 126.825 182.651 126.105 178.289C125.762 176.196 126.266 174.053 127.508 172.33C128.75 170.608 130.627 169.448 132.726 169.105C134.826 168.762 136.976 169.265 138.704 170.503C140.432 171.741 141.595 173.612 141.939 175.706V175.706Z" fill="#318BAF"/>
<path d="M169.466 206.832C167.872 210.944 155.77 220 155.77 220C155.77 220 152.889 205.231 154.478 201.114C155.242 199.14 156.764 197.548 158.709 196.688C160.654 195.829 162.864 195.772 164.851 196.53C166.839 197.289 168.441 198.8 169.307 200.732C170.172 202.664 170.23 204.858 169.466 206.832V206.832Z" fill="#318BAF"/>
<path d="M184.845 235.606C183.975 239.959 173.581 251 173.581 251C173.581 251 168.226 236.81 169.095 232.462C169.302 231.427 169.71 230.443 170.296 229.567C170.883 228.69 171.636 227.937 172.513 227.351C173.39 226.766 174.374 226.359 175.408 226.153C176.443 225.948 177.507 225.949 178.541 226.155C179.575 226.362 180.559 226.77 181.435 227.357C182.312 227.943 183.064 228.697 183.649 229.574C184.235 230.452 184.642 231.436 184.847 232.471C185.052 233.506 185.051 234.571 184.845 235.606V235.606Z" fill="#318BAF"/>
<path d="M124.658 205.998C129.039 206.15 142 198.591 142 198.591C142 198.591 129.58 190.167 125.2 190.005C124.16 189.969 123.122 190.14 122.147 190.508C121.172 190.877 120.278 191.435 119.517 192.152C118.756 192.868 118.143 193.729 117.712 194.684C117.28 195.64 117.04 196.672 117.005 197.721C116.969 198.77 117.139 199.816 117.504 200.799C117.87 201.782 118.423 202.683 119.134 203.451C119.845 204.218 120.699 204.836 121.646 205.271C122.594 205.706 123.618 205.948 124.658 205.984V205.998Z" fill="#318BAF"/>
<path d="M143.334 238.686C147.65 237.505 158 226.339 158 226.339C158 226.339 143.329 222.011 139.031 223.21C137.995 223.482 137.024 223.954 136.173 224.6C135.323 225.246 134.61 226.053 134.076 226.973C133.543 227.894 133.199 228.911 133.064 229.964C132.93 231.017 133.007 232.087 133.293 233.11C133.578 234.134 134.066 235.091 134.727 235.926C135.388 236.762 136.21 237.459 137.146 237.978C138.081 238.496 139.11 238.826 140.175 238.947C141.24 239.069 142.318 238.98 143.348 238.686H143.334Z" fill="#318BAF"/>
<path d="M165.745 267.96C170.12 267.496 182 258.268 182 258.268C182 258.268 168.531 251.58 164.161 252.021C163.122 252.126 162.113 252.435 161.193 252.933C160.273 253.43 159.459 254.105 158.797 254.919C157.462 256.563 156.83 258.674 157.04 260.788C157.144 261.835 157.451 262.85 157.945 263.777C158.439 264.704 159.109 265.524 159.917 266.19C161.55 267.535 163.646 268.172 165.745 267.96V267.96Z" fill="#318BAF"/>
<path opacity="0.1" d="M328 360C373.84 360 411 357.761 411 355C411 352.239 373.84 350 328 350C282.16 350 245 352.239 245 355C245 357.761 282.16 360 328 360Z" fill="#318BAF"/>
<path opacity="0.1" d="M412 381C424.15 381 434 379.209 434 377C434 374.791 424.15 373 412 373C399.85 373 390 374.791 390 377C390 379.209 399.85 381 412 381Z" fill="#318BAF"/>
<path d="M366 346.07V349H278V346.614C283.368 344.656 288.024 341.173 291.381 336.607C294.738 332.04 296.643 326.596 296.856 320.963C297.069 315.329 295.581 309.76 292.578 304.961C289.576 300.161 285.196 296.347 279.991 294H365.42C360.336 296.298 356.036 299.997 353.042 304.65C350.048 309.304 348.487 314.712 348.549 320.221C348.61 325.729 350.291 331.102 353.388 335.69C356.485 340.278 360.866 343.883 366 346.07V346.07Z" fill="#C8CAD7"/>
<path opacity="0.1" d="M366 294C362.046 295.785 358.549 298.418 355.763 301.706C352.978 304.993 350.974 308.852 349.901 313H296.099C295.026 308.852 293.022 304.993 290.237 301.706C287.451 298.418 283.954 295.785 280 294H366Z" fill="black"/>
<path d="M178 279V295.5C178 304.612 184.726 312 193.024 312H450.976C459.274 312 466 304.612 466 295.5V279H178Z" fill="#C8CAD7"/>
<path opacity="0.1" d="M366 346.042V349H278V346.591C280.412 345.7 282.694 344.492 284.785 343H360.617C362.297 344.202 364.102 345.222 366 346.042Z" fill="black"/>
<path d="M390.597 344H253.403C250.971 344 249 346.015 249 348.5C249 350.985 250.971 353 253.403 353H390.597C393.029 353 395 350.985 395 348.5C395 346.015 393.029 344 390.597 344Z" fill="#C8CAD7"/>
<path d="M466 96.0518C466 92.0598 464.417 88.2314 461.6 85.4086C458.782 82.5858 454.961 81 450.976 81H193.024C189.039 81 185.218 82.5858 182.4 85.4086C179.583 88.2314 178 92.0598 178 96.0518V282H466V96.0518Z" fill="#474157"/>
<path d="M451.584 96H193.416C189.32 96 186 99.3062 186 103.385V262.615C186 266.694 189.32 270 193.416 270H451.584C455.68 270 459 266.694 459 262.615V103.385C459 99.3062 455.68 96 451.584 96Z" fill="#EDEDF4"/>
<path d="M322.5 92C324.433 92 326 90.433 326 88.5C326 86.567 324.433 85 322.5 85C320.567 85 319 86.567 319 88.5C319 90.433 320.567 92 322.5 92Z" fill="white"/>
<path d="M322.5 304C327.194 304 331 300.194 331 295.5C331 290.806 327.194 287 322.5 287C317.806 287 314 290.806 314 295.5C314 300.194 317.806 304 322.5 304Z" fill="white"/>
<path d="M459 103H186C186 101.143 186.781 99.363 188.172 98.0503C189.563 96.7375 191.449 96 193.416 96H451.584C453.551 96 455.437 96.7375 456.828 98.0503C458.219 99.363 459 101.143 459 103Z" fill="#C8CAD7"/>
<path d="M193 101C194.105 101 195 100.328 195 99.5C195 98.6716 194.105 98 193 98C191.895 98 191 98.6716 191 99.5C191 100.328 191.895 101 193 101Z" fill="#EDEDF4"/>
<path d="M198.5 101C199.328 101 200 100.328 200 99.5C200 98.6716 199.328 98 198.5 98C197.672 98 197 98.6716 197 99.5C197 100.328 197.672 101 198.5 101Z" fill="#EDEDF4"/>
<path d="M204 101C205.105 101 206 100.328 206 99.5C206 98.6716 205.105 98 204 98C202.895 98 202 98.6716 202 99.5C202 100.328 202.895 101 204 101Z" fill="#EDEDF4"/>
<path d="M266 109H196V114H266V109Z" fill="#318BAF"/>
<path d="M266 231H196V235H266V231Z" fill="#318BAF"/>
<path opacity="0.2" d="M326 240H196V244H326V240Z" fill="#318BAF"/>
<path opacity="0.2" d="M326 246H196V250H326V246Z" fill="#318BAF"/>
<path opacity="0.2" d="M326 252H196V256H326V252Z" fill="#318BAF"/>
<path opacity="0.2" d="M325 120H196V190H325V120Z" fill="#318BAF"/>
<path opacity="0.2" d="M227 197H197V224H227V197Z" fill="#318BAF"/>
<path opacity="0.2" d="M325 197H295V224H325V197Z" fill="#318BAF"/>
<path opacity="0.2" d="M275 197H245V224H275V197Z" fill="#318BAF"/>
<path opacity="0.2" d="M441 141H352V206H441V141Z" fill="#318BAF"/>
<path d="M431 154H361V158H431V154Z" fill="#EDEDF4"/>
<path d="M431 163H361V167H431V163Z" fill="#EDEDF4"/>
<path d="M431 171H361V175H431V171Z" fill="#EDEDF4"/>
<path d="M431 180H361V184H431V180Z" fill="#EDEDF4"/>
<path d="M431 188H361V193H431V188Z" fill="#EDEDF4"/>
<path d="M430 213H363V225H430V213Z" fill="#318BAF"/>
<path d="M404 252H359V260H404V252Z" fill="#318BAF"/>
<path opacity="0.1" d="M185.5 375C192.956 375 199 374.552 199 374C199 373.448 192.956 373 185.5 373C178.044 373 172 373.448 172 374C172 374.552 178.044 375 185.5 375Z" fill="#318BAF"/>
<path opacity="0.1" d="M457 356C461.418 356 465 355.552 465 355C465 354.448 461.418 354 457 354C452.582 354 449 354.448 449 355C449 355.552 452.582 356 457 356Z" fill="#318BAF"/>
<path d="M190.261 352C190.261 352 172.419 360.683 181.651 370.925C181.651 370.925 182.517 373.178 185.028 372.989C185.028 372.989 184.526 372.128 186.463 371.443C187.139 371.193 187.781 370.869 188.377 370.479C189.187 369.951 189.794 369.188 190.104 368.307C190.104 368.307 193.753 363.706 190.926 355.195C190.926 355.195 191.29 352.789 190.969 352.401L188.779 355.154C188.779 355.154 191.022 356.569 191.276 358.651C191.276 358.651 188.941 355.159 188.434 355.555C188.334 355.636 187.358 357.087 187.358 357.087C187.358 357.087 191.242 359.57 191.534 362.792C191.534 362.792 189.343 358.286 186.98 357.632L185.645 359.908C185.645 359.908 189.893 362.341 190.371 366C190.371 366 187.908 361.359 185.392 360.422L184.397 362.823C184.397 362.823 188.487 365.275 188.865 368.321C188.865 368.321 185.445 363.229 184.21 363.364C184.21 363.364 183.44 365.617 183.541 366.315C183.541 366.315 186.435 368.118 186.487 369.92C186.487 369.92 183.818 366.743 183.407 366.955C183.407 366.955 183.235 370.145 184.057 371.808C184.057 371.808 182.651 369.438 182.876 366.955C182.045 367.651 181.449 368.561 181.163 369.573C181.163 369.573 180.393 367.816 182.928 366.203C182.928 366.203 183.168 363.72 183.459 363.414C183.459 363.414 180.719 364.671 179.556 366.221C179.556 366.221 179.982 363.914 183.699 362.769L184.655 360.336C184.655 360.336 180.943 361.818 179.8 363.125C179.8 363.125 180.623 360.836 184.947 359.741L186.229 357.488C186.229 357.488 182.928 358.534 181.321 359.741C181.321 359.741 182.57 357.777 186.626 356.871L187.669 355.47C187.669 355.47 185.277 356.276 184.607 356.565C183.938 356.853 183.804 356.709 183.804 356.709C185.03 355.733 186.521 355.098 188.109 354.875C188.109 354.875 190.429 352.131 190.261 352Z" fill="#318BAF"/>
<path opacity="0.1" d="M144.5 355C150.299 355 155 354.552 155 354C155 353.448 150.299 353 144.5 353C138.701 353 134 353.448 134 354C134 354.552 138.701 355 144.5 355Z" fill="#318BAF"/>
<path d="M147.813 337C147.813 337 135.444 343.619 141.832 351.423C142.012 351.907 142.336 352.321 142.756 352.603C143.177 352.886 143.673 353.024 144.173 352.997C144.173 352.997 143.827 352.342 145.156 351.817C145.625 351.625 146.073 351.378 146.489 351.082C147.051 350.678 147.472 350.095 147.688 349.422V349.422C147.688 349.422 150.215 345.915 148.255 339.426C148.255 339.426 148.51 337.587 148.285 337.292L146.783 339.431C146.783 339.431 148.337 340.511 148.514 342.095C148.514 342.095 146.896 339.435 146.545 339.736C146.476 339.798 145.801 340.906 145.801 340.906C145.801 340.906 148.493 342.799 148.696 345.256C148.696 345.256 147.177 341.812 145.537 341.323L144.615 343.054C144.615 343.054 147.554 344.911 147.887 347.7C147.887 347.7 146.177 344.162 144.424 343.449L143.736 345.279C143.736 345.279 146.575 347.149 146.835 349.472C146.835 349.472 144.463 345.588 143.606 345.709C143.606 345.709 143.074 347.431 143.143 347.951C143.143 347.951 145.152 349.342 145.186 350.705C145.186 350.705 143.334 348.283 143.048 348.463C143.048 348.463 142.931 350.893 143.503 352.163C142.922 351.024 142.639 349.749 142.68 348.463C142.108 348.989 141.696 349.676 141.494 350.44C141.494 350.44 140.962 349.095 142.719 347.871C142.719 347.871 142.884 345.978 143.087 345.745C143.087 345.745 141.187 346.705 140.382 347.884C140.382 347.884 140.676 346.126 143.252 345.252L143.905 343.395C143.905 343.395 141.33 344.525 140.534 345.525C140.534 345.525 141.105 343.776 144.104 342.942L144.996 341.233C144.996 341.233 142.706 342.032 141.59 342.942C141.59 342.942 142.455 341.44 145.268 340.754L145.991 339.682C145.991 339.682 144.334 340.296 143.87 340.52C143.407 340.745 143.312 340.628 143.312 340.628C144.161 339.885 145.192 339.401 146.29 339.229C146.29 339.229 147.908 337.09 147.813 337Z" fill="#318BAF"/>
<path d="M460.95 342C460.95 342 449.948 346.986 455.629 352.819C455.789 353.182 456.077 353.492 456.451 353.703C456.825 353.915 457.266 354.018 457.711 353.997C457.711 353.997 457.401 353.507 458.587 353.111C459.006 352.969 459.404 352.784 459.773 352.561C460.272 352.257 460.645 351.821 460.837 351.317V351.317C460.837 351.317 463.086 348.685 461.329 343.82C461.329 343.82 461.55 342.443 461.354 342.219L460.02 343.82C460.02 343.82 461.403 344.633 461.56 345.824C461.56 345.824 460.118 343.824 459.808 344.052C459.744 344.099 459.143 344.912 459.143 344.912C459.143 344.912 461.541 346.332 461.718 348.173C461.718 348.173 460.369 345.592 458.912 345.226L458.124 346.555C458.124 346.555 460.738 347.945 461.034 350.04C461.034 350.04 459.517 347.386 457.962 346.848L457.352 348.225C457.352 348.225 459.872 349.623 460.108 351.369C460.108 351.369 457.996 348.453 457.238 348.547C457.022 349.092 456.883 349.659 456.825 350.233C456.825 350.233 458.607 351.274 458.641 352.298C458.641 352.298 456.992 350.483 456.741 350.603C456.741 350.603 456.633 352.427 457.14 353.378C456.627 352.524 456.376 351.568 456.411 350.603C455.903 350.998 455.537 351.514 455.358 352.087C455.358 352.087 454.866 351.081 456.446 350.16C456.446 350.16 456.594 348.741 456.771 348.564C456.771 348.564 455.082 349.283 454.369 350.169C454.369 350.169 454.63 348.848 456.918 348.194L457.499 346.805C457.499 346.805 455.21 347.665 454.502 348.397C454.502 348.397 454.994 347.106 457.681 346.461L458.469 345.17C457.401 345.485 456.383 345.919 455.442 346.461C455.442 346.461 456.215 345.338 458.715 344.822L459.355 344.017C459.355 344.017 457.878 344.482 457.47 344.646C457.061 344.809 456.978 344.727 456.978 344.727C457.732 344.17 458.649 343.806 459.626 343.678C459.626 343.678 461.048 342.086 460.95 342Z" fill="#318BAF"/>
<path opacity="0.1" d="M499.5 385C510.27 385 519 384.328 519 383.5C519 382.672 510.27 382 499.5 382C488.73 382 480 382.672 480 383.5C480 384.328 488.73 385 499.5 385Z" fill="#318BAF"/>
<path d="M515.126 332.442C514.678 333.052 514.32 333.722 514.061 334.431C513.995 334.602 513.934 334.801 513.869 334.99C513.749 334.935 513.624 334.892 513.495 334.861C512.952 334.725 512.391 334.678 511.832 334.722C511.832 334.505 511.856 334.283 511.865 334.042C511.93 331.604 511.641 328.205 509.291 329.648C507.039 331.036 508.646 333.348 510.099 334.828C510.225 334.958 510.351 335.078 510.473 335.194C509.151 336.119 508.894 338.307 508.674 340.578C508.455 342.849 506.507 345.332 505.218 346.743L504.849 347.136C504.329 346.725 503.727 346.428 503.083 346.263C502.439 346.098 501.767 346.069 501.111 346.179C501.055 345.98 500.999 345.772 500.934 345.554C499.892 341.812 497.72 335.332 494.945 333.912C495.067 333.769 495.188 333.616 495.314 333.45C496.491 331.924 497.813 329.662 495.856 329.084C493.899 328.506 493.726 331.045 493.833 332.95C493.833 333.191 493.852 333.418 493.889 333.63C493.497 333.648 493.113 333.745 492.761 333.915C492.408 334.085 492.094 334.325 491.839 334.62L491.54 334.264C489.951 332.414 487.037 329.468 486.158 331.692C485.336 333.764 487.896 336.456 489.699 338.015L489.816 338.112C488.601 342.973 493.885 346.937 496.73 348.672L497.099 348.894C493.175 353.473 490.755 362.057 490.755 362.057L501.742 364C501.742 364 509.025 357.774 508.095 351.928H508.17C515.448 350.485 517.106 342.798 515.971 338.233L516.097 338.182C517.424 337.644 518.587 336.774 519.47 335.656C521.488 332.844 517.242 329.666 515.126 332.442Z" fill="#318BAF"/>
<path opacity="0.1" d="M515.126 332.442C514.678 333.052 514.32 333.722 514.061 334.431C513.995 334.602 513.934 334.801 513.869 334.99C513.749 334.935 513.624 334.892 513.495 334.861C512.952 334.725 512.391 334.678 511.832 334.722C511.832 334.505 511.856 334.283 511.865 334.042C511.93 331.604 511.641 328.205 509.291 329.648C507.039 331.036 508.646 333.348 510.099 334.828C510.225 334.958 510.351 335.078 510.473 335.194C509.151 336.119 508.894 338.307 508.674 340.578C508.455 342.849 506.507 345.332 505.218 346.743L504.849 347.136C504.329 346.725 503.727 346.428 503.083 346.263C502.439 346.098 501.767 346.069 501.111 346.179C501.055 345.98 500.999 345.772 500.934 345.554C499.892 341.812 497.72 335.332 494.945 333.912C495.067 333.769 495.188 333.616 495.314 333.45C496.491 331.924 497.813 329.662 495.856 329.084C493.899 328.506 493.726 331.045 493.833 332.95C493.833 333.191 493.852 333.418 493.889 333.63C493.497 333.648 493.113 333.745 492.761 333.915C492.408 334.085 492.094 334.325 491.839 334.62L491.54 334.264C489.951 332.414 487.037 329.468 486.158 331.692C485.336 333.764 487.896 336.456 489.699 338.015L489.816 338.112C488.601 342.973 493.885 346.937 496.73 348.672L497.099 348.894C493.175 353.473 490.755 362.057 490.755 362.057L501.742 364C501.742 364 509.025 357.774 508.095 351.928H508.17C515.448 350.485 517.106 342.798 515.971 338.233L516.097 338.182C517.424 337.644 518.587 336.774 519.47 335.656C521.488 332.844 517.242 329.666 515.126 332.442Z" fill="black"/>
<path d="M493 335.479L491.832 339C491.832 339 491.182 338.525 490.363 337.776C488.728 336.293 486.396 333.732 487.144 331.76C487.942 329.643 490.592 332.438 492.036 334.207C492.614 334.933 493 335.479 493 335.479Z" fill="#318BAF"/>
<path d="M496.487 333.516C496.099 334.032 495.686 334.527 495.249 335C495.138 334.341 495.063 333.676 495.023 333.009C494.917 331.074 495.115 328.505 497.022 329.083C498.929 329.66 497.659 331.966 496.487 333.516Z" fill="#318BAF"/>
<path d="M512.991 333.776C512.946 335.012 512.815 336 512.815 336C512.204 335.559 511.625 335.081 511.083 334.569C509.512 333.063 507.776 330.741 510.209 329.348C512.749 327.893 513.062 331.32 512.991 333.776Z" fill="#318BAF"/>
<path d="M520.426 335.742C519.483 336.982 518.242 337.949 516.826 338.548C516.432 338.722 516.029 338.873 515.618 339L514 336.662C514.168 335.889 514.39 335.13 514.664 334.39C514.941 333.603 515.325 332.859 515.803 332.18C518.04 329.112 522.604 332.643 520.426 335.742Z" fill="#318BAF"/>
<path opacity="0.1" d="M492.269 334C492.707 334.738 493 335.31 493 335.31L492.114 339C492.114 339 491.622 338.502 491 337.718C491.14 336.529 491.483 335.409 491.998 334.457C492.083 334.298 492.174 334.146 492.269 334V334Z" fill="black"/>
<path opacity="0.1" d="M496 333.509C495.735 334.027 495.453 334.525 495.155 335C495.079 334.338 495.027 333.67 495 333C495.36 333.012 495.71 333.19 496 333.509V333.509Z" fill="black"/>
<path d="M502 348.613L499.072 350C499.072 350 498.43 349.667 497.51 349.047C494.437 347.003 488.248 341.856 492.374 335.789C496.5 329.721 499.98 340.603 501.362 345.926C501.769 347.521 502 348.613 502 348.613Z" fill="#318BAF"/>
<path opacity="0.1" d="M511 334.713C511.527 334.281 512.243 334.026 513 334C512.952 335.111 512.815 336 512.815 336C512.175 335.603 511.569 335.173 511 334.713Z" fill="black"/>
<path opacity="0.1" d="M517 338.608C516.582 338.759 516.153 338.89 515.717 339L514 336.971C514.179 336.301 514.414 335.642 514.705 335C515.792 335.544 516.608 336.9 517 338.608Z" fill="black"/>
<path d="M509.171 351.634C509.001 351.669 508.826 351.701 508.651 351.723C498.37 353.282 505.26 347.757 505.26 347.757C505.26 347.757 505.708 347.332 506.354 346.635C507.592 345.295 509.458 342.888 509.673 340.681C509.996 337.363 510.369 334.25 514.302 335.161C518.236 336.072 518.896 349.691 509.171 351.634Z" fill="#318BAF"/>
<path d="M509 378H488V384H509V378Z" fill="#D4DFEC"/>
<path d="M512 361H485V380H512V361Z" fill="#D4DFEC"/>
<path opacity="0.1" d="M509 378H488V384H509V378Z" fill="black"/>
<path opacity="0.1" d="M512 361H485V380H512V361Z" fill="black"/>
<path d="M510 378H490V384H510V378Z" fill="#D4DFEC"/>
<path opacity="0.1" d="M501.432 346C501.813 347.564 502 348.636 502 348.636L499.392 350C499.392 350 498.82 349.673 498 349.064C499.022 347.523 500.177 346.359 501.432 346Z" fill="black"/>
<path opacity="0.1" d="M509 351.658C508.834 351.692 508.664 351.721 508.494 351.742C498.498 353.195 505.197 348.045 505.197 348.045C505.197 348.045 505.633 347.649 506.261 347C508.128 348.428 508.891 350.035 509 351.658Z" fill="black"/>
<path d="M492 362.052C492 362.052 497.852 340.666 506.055 347.263C514.259 353.86 502.719 364 502.719 364L492 362.052Z" fill="#318BAF"/>
<path opacity="0.1" d="M494.5 339C494.776 339 495 338.776 495 338.5C495 338.224 494.776 338 494.5 338C494.224 338 494 338.224 494 338.5C494 338.776 494.224 339 494.5 339Z" fill="black"/>
<path opacity="0.1" d="M494.5 343C494.776 343 495 342.552 495 342C495 341.448 494.776 341 494.5 341C494.224 341 494 341.448 494 342C494 342.552 494.224 343 494.5 343Z" fill="black"/>
<path opacity="0.1" d="M514 340C514.552 340 515 339.776 515 339.5C515 339.224 514.552 339 514 339C513.448 339 513 339.224 513 339.5C513 339.776 513.448 340 514 340Z" fill="black"/>
<path opacity="0.1" d="M498.5 356C498.776 356 499 355.776 499 355.5C499 355.224 498.776 355 498.5 355C498.224 355 498 355.224 498 355.5C498 355.776 498.224 356 498.5 356Z" fill="black"/>
<path opacity="0.1" d="M512.5 345C512.776 345 513 344.776 513 344.5C513 344.224 512.776 344 512.5 344C512.224 344 512 344.224 512 344.5C512 344.776 512.224 345 512.5 345Z" fill="black"/>
<path opacity="0.1" d="M505.5 352C505.776 352 506 351.776 506 351.5C506 351.224 505.776 351 505.5 351C505.224 351 505 351.224 505 351.5C505 351.776 505.224 352 505.5 352Z" fill="black"/>
<path opacity="0.1" d="M497 341C497.552 341 498 340.552 498 340C498 339.448 497.552 339 497 339C496.448 339 496 339.448 496 340C496 340.552 496.448 341 497 341Z" fill="black"/>
<path opacity="0.1" d="M512 342C512.552 342 513 341.776 513 341.5C513 341.224 512.552 341 512 341C511.448 341 511 341.224 511 341.5C511 341.776 511.448 342 512 342Z" fill="black"/>
<path opacity="0.1" d="M509.5 347C509.776 347 510 346.776 510 346.5C510 346.224 509.776 346 509.5 346C509.224 346 509 346.224 509 346.5C509 346.776 509.224 347 509.5 347Z" fill="black"/>
<path opacity="0.1" d="M502.5 356C502.776 356 503 355.552 503 355C503 354.448 502.776 354 502.5 354C502.224 354 502 354.448 502 355C502 355.552 502.224 356 502.5 356Z" fill="black"/>
<path opacity="0.1" d="M501.5 352C501.776 352 502 351.776 502 351.5C502 351.224 501.776 351 501.5 351C501.224 351 501 351.224 501 351.5C501 351.776 501.224 352 501.5 352Z" fill="black"/>
<path opacity="0.1" d="M498 345C498.552 345 499 344.776 499 344.5C499 344.224 498.552 344 498 344C497.448 344 497 344.224 497 344.5C497 344.776 497.448 345 498 345Z" fill="black"/>
<path opacity="0.1" d="M510 378H490V380H510V378Z" fill="black"/>
<path d="M513 361H487V380H513V361Z" fill="#D4DFEC"/>
<path opacity="0.1" d="M503.5 359C503.776 359 504 358.552 504 358C504 357.448 503.776 357 503.5 357C503.224 357 503 357.448 503 358C503 358.552 503.224 359 503.5 359Z" fill="black"/>
<path opacity="0.1" d="M499.5 359C499.776 359 500 358.776 500 358.5C500 358.224 499.776 358 499.5 358C499.224 358 499 358.224 499 358.5C499 358.776 499.224 359 499.5 359Z" fill="black"/>
<path d="M453.454 280.81C452.9 280.414 452.669 279.46 452.586 278.505C452.586 278.289 452.553 278.077 452.544 277.874C452.793 277.722 453.011 277.525 453.186 277.293C454.28 275.744 451.667 270.124 451.667 270.124C451.667 270.124 452.678 267.192 451.667 264.665C450.655 262.139 450.194 261.65 450.194 261.65C450.194 261.65 446.776 254.642 447.284 253.813C447.792 252.983 446.439 246.436 445.437 245.122C445.018 244.554 444.568 244.009 444.089 243.49C444.089 243.49 444.26 240.641 442.824 238.419C441.388 236.197 439.79 230.028 439.79 230.028C439.79 230.028 438.021 224.242 436.756 222.191C436.24 221.47 435.617 220.831 434.909 220.296C435.107 219.374 435.564 218.152 434.253 210.923C433.717 207.954 434.553 206.184 435.241 203.247C435.929 200.31 435.781 196.913 433.671 194.695C431.561 192.478 428.287 192.063 425.668 190.546C423.36 189.213 421.305 186.959 418.608 187.001C416.627 187.033 416.631 187.342 414.807 188.084C411.653 189.366 408.107 188.978 404.902 190.039C402.021 190.993 398.359 194.128 399.231 197.452C399.369 198.205 399.741 198.895 400.294 199.425C400.917 199.992 401.679 199.997 402.533 199.826C402.533 199.882 402.533 199.932 402.501 199.988C402.426 200.445 402.389 200.908 402.39 201.371C402.39 206.299 406.505 210.301 411.593 210.333C411.621 210.439 411.644 210.55 411.672 210.66C411.741 210.956 411.806 211.251 411.87 211.555C411.63 211.873 411.381 212.191 411.145 212.509C410.561 213.253 410.093 214.082 409.76 214.966C407.091 215.51 402.616 216.391 401.91 217.544C400.986 219.093 397.19 226.764 397.611 230.254C397.634 230.448 397.652 230.715 397.671 230.992C397.671 230.992 395.334 235.141 394.997 236.446C394.66 237.75 393.903 242.637 392.466 243.776C391.03 244.915 388.084 248.585 388.504 249.308C388.925 250.032 384.542 250.936 384.542 250.936C384.542 250.936 381.596 252.075 381.772 252.974C381.822 253.246 381.615 253.504 381.31 253.753C377.957 252.651 373.686 251.909 370.375 253.587C365.757 255.924 373.857 257.533 378.687 258.238C379.481 258.358 380.183 258.451 380.728 258.515C380.765 258.672 380.917 258.81 381.305 258.944C381.61 259.05 382.062 259.216 382.589 259.405L382.783 258.806C384.385 259.373 388.758 261.138 388.758 261.138C388.758 261.138 392.554 261.756 393.649 259.557C394.11 258.667 395.371 257.252 396.742 255.869L396.59 256.362L393.395 266.887C393.395 266.887 388.338 274.725 388.592 276.417C388.846 278.109 386.99 282.447 386.569 282.871C386.149 283.295 381.952 295.66 379.74 296.476C377.528 297.292 374.595 300.141 375.584 301.04C376.572 301.939 380.663 304.867 382.51 303.889C384.358 302.912 387.59 304.705 387.59 304.705C387.59 304.705 391.127 304.125 394.009 305.508C394.041 305.826 394.078 306.172 394.115 306.536C394.415 309.302 394.905 313.124 395.426 314.235C396.271 316.028 397.029 319.205 396.35 320.426C395.671 321.648 396.941 344.949 398.197 348.941C399.185 352.067 400.538 357.097 400.307 360.379C400.169 362.375 400.086 364.372 400.072 366.372C400.072 366.483 400.072 366.594 400.072 366.704C400.072 366.815 399.993 366.88 399.956 366.972V367.152C399.664 367.843 399.418 368.553 399.222 369.277C399.222 369.277 397.047 374.736 397.781 376.16C397.868 376.316 397.986 376.453 398.128 376.561C399.176 377.4 401.822 377.58 402.746 377.617L402.704 379H403.946C403.946 379 403.979 377.617 404.062 375.893C404.424 374.923 404.606 373.894 404.597 372.859C404.58 371.052 404.958 369.263 405.706 367.617C405.706 367.617 405.733 367.474 405.761 367.244C405.824 366.769 405.851 366.289 405.84 365.81C405.89 364.971 405.732 364.133 405.378 363.371C405.341 362.873 405.372 362.372 405.47 361.882C405.807 360.66 404.962 352.108 404.962 352.108L406.394 336.383C406.394 336.383 407.239 324.244 406.902 321.067C406.813 320.217 406.833 319.359 406.962 318.513C407.491 315.06 407.799 311.577 407.885 308.085C407.885 307.757 407.885 307.435 407.885 307.107C410.951 308.159 416.151 307.296 416.151 307.296C416.151 307.296 417.361 307.269 418.968 307.296C419.01 307.628 419.056 307.956 419.102 308.274C419.347 309.984 419.638 311.501 419.938 312.151C420.778 313.944 421.54 317.121 420.861 318.343C420.183 319.564 421.448 342.865 422.708 346.857C423.701 349.983 425.054 355.008 424.823 358.295C424.685 360.287 424.602 362.283 424.588 364.289V364.657C424.546 364.745 424.505 364.833 424.468 364.925C424.431 365.017 424.468 365.049 424.468 365.105C424.188 365.8 423.955 366.513 423.771 367.239C423.771 367.239 421.591 372.702 422.33 374.127C422.415 374.283 422.533 374.418 422.676 374.523C423.724 375.367 426.37 375.542 427.294 375.579L427.252 376.962H428.495C428.495 376.962 428.527 375.579 428.61 373.855C428.972 372.885 429.154 371.857 429.146 370.821C429.124 369.016 429.496 367.227 430.235 365.579C430.337 364.986 430.382 364.384 430.369 363.781C430.416 362.936 430.25 362.093 429.885 361.329C429.85 360.832 429.881 360.333 429.977 359.844C430.314 358.623 429.474 350.066 429.474 350.066L430.905 334.345C430.905 334.345 431.75 322.206 431.408 319.03C431.324 318.179 431.345 317.321 431.473 316.475C431.981 313.195 432.289 309.886 432.397 306.568C432.397 306.236 432.397 305.909 432.397 305.577C432.701 305.203 433.32 304.908 435.029 304.337C437.98 303.359 443.881 298.468 446.241 298.145C448.601 297.822 450.706 296.269 450.032 295.047C449.358 293.825 445.65 293.009 445.987 291.137C446.324 289.266 443.71 288.122 442.533 285.029C441.355 281.935 436.206 279.496 436.123 277.191C436.04 274.886 431.265 267.842 431.265 267.842C431.265 267.842 426.467 259.875 425.405 255.007C425.405 254.896 425.364 254.795 425.345 254.693H425.405C425.323 254.328 425.265 253.959 425.23 253.587C425.23 253.481 425.253 253.37 425.271 253.273H425.207V253.098C425.207 253.098 425.207 253.098 425.207 253.066C425.239 253.042 425.273 253.02 425.308 253.001L425.585 252.84L425.493 252.877C426.046 252.518 426.558 252.101 427.021 251.632C427.785 250.957 428.386 250.118 428.781 249.179C429.153 248.139 429.384 247.054 429.469 245.952L430.069 245.03C430.651 247.46 431.501 250.945 431.769 251.724C433.043 255.015 434.059 258.4 434.807 261.848C435.556 265.192 436.801 268.406 438.501 271.382C438.501 271.382 442.801 277.002 446.088 277.247C449.376 277.491 447.525 278.385 448.028 278.551L448.171 278.584L448.222 279.243L448.365 281.156C448.365 281.156 451.736 294.844 455.532 292.889C459.328 290.935 454.71 281.705 453.454 280.81Z" fill="url(#paint0_linear_127_494)"/>
<path d="M454.546 292.813C450.771 294.72 447.416 281.396 447.416 281.396L447.272 279.53L447 276L451.612 276.556C451.542 277.318 451.542 278.085 451.612 278.847C451.693 279.751 451.927 280.696 452.477 281.076C453.705 281.952 458.317 290.91 454.546 292.813Z" fill="#A1616A"/>
<path d="M399 373L400 372C399.698 372.384 399.362 372.719 399 373V373Z" fill="#A1616A"/>
<path d="M408 298V307.233C408 307.634 408 308.033 408 308.43C407.908 311.879 407.612 315.32 407.113 318.732C406.994 319.565 406.975 320.41 407.055 321.248C407.366 324.389 406.612 336.378 406.612 336.378L405.281 351.906C405.281 351.906 406.057 360.351 405.725 361.533C405.637 362.018 405.608 362.513 405.64 363.005C405.685 364.38 405.915 366.145 405.991 366.673V366.833L405.942 366.87L399.435 372C400.473 371.023 400.739 368.75 400.735 366.641C400.735 366.411 400.735 366.182 400.735 365.953C400.735 363.982 400.809 362.01 400.957 360.039C401.17 356.797 399.919 351.832 399.005 348.742C397.839 344.804 396.668 321.794 397.293 320.588C397.918 319.383 397.213 316.242 396.437 314.472C395.98 313.395 395.537 309.627 395.271 306.876C395.102 305.207 395 303.942 395 303.942L408 298Z" fill="#A1616A"/>
<path d="M432 296V305.235C432 305.804 432 306.377 432 306.945C431.891 310.223 431.584 313.492 431.079 316.735C430.951 317.569 430.93 318.414 431.017 319.253C431.351 322.394 430.54 334.385 430.54 334.385L429.108 349.916C429.108 349.916 429.948 358.362 429.614 359.545C429.517 360.028 429.487 360.522 429.524 361.012C429.571 362.388 429.824 364.181 429.9 364.681C429.9 364.782 429.924 364.832 429.924 364.832L429.872 364.869L422.862 370C423.945 369 424.227 366.754 424.222 364.672C424.222 364.442 424.222 364.213 424.222 363.979C424.222 362.008 424.318 360.036 424.456 358.064C424.68 354.822 423.339 349.861 422.357 346.77C421.097 342.831 419.842 319.817 420.515 318.611C421.187 317.405 420.429 314.264 419.594 312.494C419.293 311.87 419.007 310.352 418.759 308.665C418.315 305.602 418 301.956 418 301.956L432 296Z" fill="#A1616A"/>
<path opacity="0.1" d="M419 207.144L418.935 207.25C418.262 208.256 417.398 209.102 416.398 209.736C415.398 210.369 414.284 210.774 413.127 210.926C412.789 210.977 412.447 211.001 412.105 211C412.079 210.89 412.057 210.779 412.031 210.674C411.531 208.376 411 206.538 411 206.538C411 206.538 411.57 205.669 412.401 204.562C414.659 201.547 418.817 196.782 418.491 203.151C418.421 204.441 418.568 205.734 418.926 206.97C418.957 207.002 418.974 207.066 419 207.144Z" fill="black"/>
<path d="M421 202C421.001 204.195 420.198 206.315 418.744 207.96C417.29 209.605 415.284 210.661 413.105 210.93C412.737 210.977 412.366 211 411.995 211H411.93C410.153 210.986 408.42 210.447 406.949 209.449C405.478 208.452 404.336 207.042 403.665 205.396C402.995 203.75 402.826 201.943 403.182 200.202C403.537 198.46 404.399 196.863 405.661 195.611C406.922 194.36 408.526 193.51 410.27 193.168C412.014 192.826 413.82 193.009 415.46 193.692C417.101 194.375 418.502 195.528 419.488 197.007C420.474 198.486 421 200.223 421 202V202Z" fill="#A1616A"/>
<path d="M430 227.644L421.235 235C421.235 235 411.679 221.612 412.807 218.867C413.168 218.007 413.126 216.481 412.896 214.78C412.77 213.86 412.587 212.844 412.381 211.888C412.32 211.589 412.255 211.295 412.189 211.005C412.161 210.895 412.138 210.784 412.11 210.679C411.571 208.38 411 206.541 411 206.541C411 206.541 411.613 205.672 412.508 204.564C414.938 201.548 419.414 196.78 419.063 203.152C418.987 204.443 419.146 205.737 419.531 206.973C419.531 207.047 419.573 207.12 419.601 207.189C420.846 210.95 423.88 213.952 426.212 215.814C427.167 216.585 428.176 217.289 429.232 217.92L430 227.644Z" fill="#A1616A"/>
<path opacity="0.1" d="M395 303.714L408 298V306.853C408 307.237 408 307.619 408 308C407.706 307.899 407.424 307.768 407.157 307.609C404.589 306.035 401.391 307.257 401.165 307.257C400.939 307.257 398.362 308.338 395.639 306.716C395.519 306.646 395.399 306.58 395.284 306.523C395.093 304.927 395 303.714 395 303.714Z" fill="black"/>
<path opacity="0.1" d="M432 296V305.088C432 305.648 432 306.212 432 306.771C431.815 307.085 431.666 307.42 431.556 307.768C431.085 308.878 427.892 309.275 425.085 308.806C423.301 308.569 421.505 308.455 419.706 308.463C419.293 305.449 419 301.862 419 301.862L432 296Z" fill="black"/>
<path d="M445.267 298.302C442.989 298.626 437.305 303.495 434.463 304.471C431.621 305.447 431.945 305.604 431.459 306.742C430.973 307.879 427.64 308.281 424.714 307.801C421.789 307.32 416.267 307.472 416.267 307.472C416.267 307.472 410.115 308.536 407.416 306.866C404.718 305.197 401.399 306.496 401.163 306.496C400.927 306.496 398.237 307.634 395.395 305.928C392.553 304.221 388.734 304.873 388.734 304.873C388.734 304.873 385.647 303.088 383.86 304.064C382.073 305.04 378.176 302.117 377.199 301.225C376.222 300.332 379.05 297.493 381.18 296.679C383.309 295.865 387.355 283.532 387.757 283.13C388.16 282.727 389.951 278.422 389.706 276.72C389.461 275.019 394.335 267.222 394.335 267.222L397.418 256.743L398.344 253.506L398.381 251.578C398.381 250.709 398.422 249.594 398.445 248.341C398.529 243.162 398.617 235.481 398.445 232.008C398.418 231.471 398.39 231.037 398.353 230.722C397.946 227.236 401.593 219.624 402.496 218.066C403.162 216.914 407.476 216.04 410.045 215.499C410.658 215.388 411.264 215.243 411.86 215.064C412.093 215.006 412.334 214.987 412.573 215.009C414.998 215.106 422.15 216.604 422.15 216.604C421.502 236.161 422.803 232.752 422.803 232.752C424.913 231.129 423.613 216.766 423.613 216.766C424.668 217.252 425.747 216.031 425.747 216.031L429.866 217.737C431.121 218.49 432.334 219.31 433.5 220.193C434.478 220.881 435.336 221.724 436.041 222.69C437.259 224.72 438.967 230.482 438.967 230.482L437.504 232.794C436.227 234.843 434.264 237.992 432.25 241.183L428.677 246.866C427.08 249.4 425.779 251.458 425.238 252.295C425.115 252.496 425.029 252.716 424.983 252.947C424.952 253.099 424.932 253.254 424.923 253.409C424.9 254.056 424.964 254.703 425.113 255.333C426.136 260.179 430.76 268.119 430.76 268.119C430.76 268.119 435.389 275.176 435.472 277.446C435.555 279.717 440.508 282.154 441.647 285.238C442.786 288.323 445.299 289.456 444.975 291.324C444.651 293.192 448.215 294.002 448.873 295.218C449.53 296.434 447.54 297.978 445.267 298.302Z" fill="#708EC7"/>
<path opacity="0.1" d="M451.99 279.174C450.586 280.096 448.114 280.06 447.295 279.934L447 276L452 276.62C451.921 277.469 451.918 278.324 451.99 279.174V279.174Z" fill="black"/>
<path d="M435.544 228L438.867 230.366C438.867 230.366 440.403 236.562 441.779 238.766C443.154 240.969 442.992 243.823 442.992 243.823C443.456 244.341 443.889 244.886 444.289 245.455C445.263 246.761 446.555 253.311 446.071 254.157C445.586 255.003 448.867 262.012 448.867 262.012C448.867 262.012 449.329 262.477 450.284 265.029C451.239 267.581 450.284 270.496 450.284 270.496C450.284 270.496 452.795 276.125 451.742 277.673C450.69 279.221 447.284 279.068 446.8 278.896C446.315 278.724 448.097 277.836 444.954 277.589C441.811 277.343 437.662 271.718 437.662 271.718C436.019 268.729 434.819 265.514 434.099 262.175C433.381 258.735 432.408 255.354 431.187 252.06C430.781 250.838 429 242.926 429 242.926L435.544 228Z" fill="#708EC7"/>
<path opacity="0.1" d="M411 228C411 228 410.708 247.195 408 251L411 228Z" fill="black"/>
<path opacity="0.1" d="M424 235C424 235 421.938 253.987 420.31 254.967C418.682 255.946 424 235 424 235Z" fill="black"/>
<path opacity="0.1" d="M421 232C421 232 420.472 250.108 417.72 251.895C414.967 253.683 421 232 421 232Z" fill="black"/>
<path opacity="0.1" d="M398 266C398 266 394.652 275.498 395.03 279.422C395.408 283.346 398 266 398 266Z" fill="black"/>
<path opacity="0.1" d="M425 256.012C420.727 257 409.166 258.773 399 252.248C399 251.376 399.04 250.258 399.063 249C402.922 251.19 413.763 256.889 419.283 255.293C422.036 254.48 423.781 253.965 424.874 253.631C424.765 254.426 424.808 255.234 425 256.012V256.012Z" fill="black"/>
<path opacity="0.1" d="M425 255.015C420.727 255.999 409.166 257.773 399 251.25C399 250.377 399.04 249.253 399.063 248C402.922 250.191 413.763 255.892 419.283 254.295C422.036 253.487 423.781 252.968 424.874 252.638C424.765 253.431 424.808 254.239 425 255.015V255.015Z" fill="black"/>
<path d="M425 255.015C420.727 255.999 409.166 257.773 399 251.25C399 250.377 399.04 249.258 399.063 248C402.922 250.191 413.763 255.892 419.283 254.295C422.036 253.487 423.781 252.968 424.874 252.638C424.765 253.431 424.808 254.239 425 255.015V255.015Z" fill="#605D82"/>
<path opacity="0.1" d="M425 255.015C420.727 255.999 409.166 257.773 399 251.25C399 250.377 399.04 249.258 399.063 248C402.922 250.191 413.763 255.892 419.283 254.295C422.036 253.487 423.781 252.968 424.874 252.638C424.765 253.431 424.808 254.239 425 255.015V255.015Z" fill="black"/>
<path opacity="0.1" d="M405.918 366.744C405.918 366.848 405.898 366.916 405.894 366.939L400 372C400.94 371.037 401.181 368.793 401.177 366.712C401.177 366.486 401.177 366.26 401.177 366.034C401.696 364.596 402.433 363.271 403.355 362.117C404.359 361.823 404.99 362.117 405.364 362.628C405.364 362.678 405.364 362.727 405.364 362.773C405.444 362.882 405.514 363 405.572 363.126C406.163 364.27 405.994 366.138 405.918 366.744Z" fill="black"/>
<path opacity="0.1" d="M406 364.104L401 368C401 368 401.032 367.544 401.077 366.872C401.672 365.13 402.54 363.523 403.638 362.13C404.767 361.802 405.476 362.13 405.896 362.71C405.937 363.55 406 364.104 406 364.104Z" fill="black"/>
<path d="M405.885 367.629C405.251 369.181 404.931 370.857 404.946 372.55C404.973 373.941 404.641 375.313 403.986 376.517C403.895 376.687 403.789 376.849 403.672 377C403.672 377 400.531 376.974 399.432 376.003C399.308 375.904 399.205 375.778 399.13 375.633C398.501 374.296 400.355 369.175 400.355 369.175C401.327 365.226 403.304 363.118 403.304 363.118C406.829 362.134 405.885 367.629 405.885 367.629Z" fill="#5A5773"/>
<path opacity="0.1" d="M404 376.505C403.899 376.679 403.784 376.845 403.655 377C403.655 377 400.206 376.973 399 375.978C399.592 374.023 401.489 368.11 402.372 369.114C403.256 370.118 403.789 374.617 404 376.505Z" fill="black"/>
<path d="M403.245 369.518L403 379H404.191C404.191 379 404.381 370.683 404.916 369.518C405.452 368.353 403.245 369.518 403.245 369.518Z" fill="#5A5773"/>
<path opacity="0.1" d="M429.901 364.773L429.873 364.959L423 370C424.069 369.011 424.346 366.787 424.342 364.727C424.342 364.501 424.342 364.274 424.342 364.042C424.948 362.602 425.81 361.274 426.888 360.117C428.065 359.822 428.809 360.117 429.266 360.626C429.266 360.68 429.266 360.725 429.266 360.775C429.361 360.883 429.443 361 429.511 361.125C430.193 362.291 429.991 364.169 429.901 364.773Z" fill="black"/>
<path opacity="0.1" d="M429 362.102L424 366C424 366 424.032 365.544 424.081 364.873C424.673 363.13 425.539 361.525 426.638 360.134C427.767 359.807 428.476 360.109 428.919 360.713C428.937 361.553 429 362.102 429 362.102Z" fill="black"/>
<path d="M429.87 364.961C429.14 366.622 428.772 368.419 428.791 370.232C428.821 371.723 428.442 373.193 427.693 374.482C427.586 374.664 427.466 374.837 427.333 375C427.333 375 423.74 374.972 422.484 373.932C422.345 373.822 422.231 373.686 422.147 373.531C421.433 372.098 423.549 366.612 423.549 366.612C424.661 362.381 426.922 360.123 426.922 360.123C430.944 359.083 429.87 364.961 429.87 364.961Z" fill="#5A5773"/>
<path opacity="0.1" d="M428 374.505C427.898 374.679 427.783 374.844 427.655 375C427.655 375 424.206 374.973 423 373.979C423.592 372.025 425.489 366.11 426.372 367.114C427.256 368.117 427.789 372.605 428 374.505Z" fill="black"/>
<path d="M427.249 367.518L427 377H428.191C428.191 377 428.38 368.684 428.916 367.518C429.452 366.352 427.249 367.518 427.249 367.518Z" fill="#5A5773"/>
<path opacity="0.1" d="M437.997 235.624C437.941 237.952 436.667 240.434 434.433 241.128C433.78 241.328 433.085 241.374 432.418 241.509C432.097 241.569 431.785 241.664 431.485 241.793C430.053 242.45 429.34 244.08 429.051 245.626C428.948 246.156 428.883 246.692 428.817 247.232C428.74 248.26 428.525 249.274 428.178 250.245C427.539 251.741 426.438 252.994 425.034 253.821C423.405 254.788 421.648 255.521 419.815 256C420.741 254.576 421.346 252.968 421.587 251.288C421.829 249.607 421.702 247.895 421.214 246.268C420.916 245.314 420.281 244.247 419.269 244.275C418.481 244.299 417.917 244.997 417.329 245.528C414.437 248.126 409.913 246.967 406.251 245.658C412.781 239.032 414.596 228.271 410.659 219.867C410.301 219.211 410.031 218.511 409.857 217.785C409.741 217.063 409.81 216.323 410.057 215.634C410.375 214.752 410.822 213.922 411.382 213.171C411.61 212.849 411.848 212.533 412.091 212.212C412.403 211.788 412.716 211.359 412.996 210.917C413.41 210.298 413.725 209.617 413.929 208.901C414.344 207.318 413.761 205.315 412.226 204.775L412.142 204.743C410.444 204.212 409.917 204.054 408.761 202.694C407.986 201.791 407.548 200.366 406.223 200.1C405.206 199.891 404.068 200.342 403 200.617C403.208 199.276 403.717 197.998 404.49 196.881C405.263 195.765 406.279 194.837 407.462 194.168C408.645 193.499 409.965 193.106 411.322 193.019C412.679 192.931 414.038 193.152 415.298 193.664C416.557 194.176 417.684 194.966 418.594 195.975C419.504 196.983 420.173 198.185 420.552 199.489C420.93 200.792 421.008 202.165 420.78 203.503C420.551 204.841 420.022 206.11 419.232 207.215C420.426 211.127 423.519 214.246 425.888 216.169L430.039 217.888C431.303 218.646 432.526 219.471 433.701 220.36C434.342 223.267 435.225 226.116 436.341 228.877C436.91 230.237 437.378 231.638 437.74 233.067C437.932 233.905 438.018 234.764 437.997 235.624V235.624Z" fill="black"/>
<path d="M412.568 204.558C414.136 205.048 414.742 207.065 414.324 208.65C413.907 210.236 412.783 211.519 411.834 212.853C410.885 214.186 410.041 215.781 410.33 217.394C410.502 218.109 410.767 218.797 411.119 219.443C414.989 227.714 413.182 238.301 406.785 244.826C410.385 246.114 414.838 247.255 417.677 244.698C418.254 244.176 418.809 243.488 419.584 243.465C420.57 243.433 421.208 244.487 421.497 245.427C421.976 247.027 422.101 248.712 421.863 250.365C421.626 252.018 421.031 253.599 420.121 255C423.437 254.038 427.078 252.548 428.348 249.34C428.917 247.906 428.917 246.311 429.201 244.79C429.486 243.268 430.187 241.669 431.595 241.023C432.513 240.61 433.544 240.661 434.494 240.367C436.691 239.685 437.943 237.247 437.998 234.951C438.053 232.655 437.172 230.45 436.347 228.31C431.76 216.395 436.071 225.941 433.558 211.602C433.045 208.673 433.847 206.923 434.503 204.026C435.159 201.13 435.017 197.776 433.003 195.585C430.99 193.394 427.862 192.987 425.363 191.502C423.148 190.182 421.199 187.959 418.621 188.001C416.732 188.028 416.736 188.335 414.994 189.068C411.981 190.333 408.601 189.953 405.537 190.998C402.786 191.942 399.291 195.03 400.126 198.33C401.249 202.771 404.331 199.503 406.734 200.003C408.037 200.278 408.468 201.662 409.229 202.555C410.385 203.875 410.898 204.036 412.568 204.558Z" fill="#4A4347"/>
<path d="M383.352 259C383.352 259 382.043 258.862 380.283 258.589C375.676 257.888 367.886 256.283 372.318 253.977C376.386 251.846 381.992 253.654 385.273 255.103C386.206 255.515 387.116 255.977 388 256.486L383.352 259Z" fill="#A1616A"/>
<path opacity="0.1" d="M408 231.235C408 231.235 405.989 241.794 404.984 244.122C403.979 246.45 402.339 252.583 402.339 252.583C402.339 252.583 399.962 254.824 398 257L398.882 253.786L398.917 251.872C398.917 251.009 398.957 249.902 398.979 248.658C399.058 243.516 399.142 235.89 398.979 232.442C399.151 232.107 399.261 231.901 399.261 231.901L400.826 229.316C400.826 229.316 403.379 222.227 404.847 220.212C406.316 218.196 408 231.235 408 231.235Z" fill="black"/>
<path opacity="0.1" d="M385 257.681C385 257.681 384.749 258.668 384.326 260C383.79 259.783 383.342 259.61 383.012 259.507C381.536 259.013 383.273 258.382 382.84 257.084C382.471 255.969 381.787 256.319 381 256.008C381.515 255.306 382.072 254.635 382.668 254L385 257.681Z" fill="black"/>
<path d="M400.537 229.346L398.901 231.943C398.901 231.943 396.681 236.063 396.335 237.341C395.989 238.619 395.298 243.509 393.916 244.644C392.534 245.779 389.71 249.419 390.116 250.148C390.521 250.876 386.315 251.767 386.315 251.767C386.315 251.767 383.486 252.902 383.647 253.792C383.808 254.682 381.302 255.411 382.191 256.057C383.081 256.703 383.891 256.057 384.297 257.27C384.702 258.484 383.081 259.056 384.458 259.54C385.836 260.025 390.36 261.921 390.36 261.921C390.36 261.921 393.995 262.534 395.045 260.348C396.095 258.161 402.08 252.74 402.08 252.74C402.08 252.74 403.775 246.586 404.844 244.238C405.913 241.89 408 231.288 408 231.288C408 231.288 406.3 218.173 404.775 220.216C403.25 222.26 400.537 229.346 400.537 229.346Z" fill="#708EC7"/>
<path opacity="0.1" d="M395.978 250C395.978 250 387.978 251.161 392.261 253.126C396.545 255.092 398 253.126 398 253.126L395.978 250Z" fill="black"/>
<path opacity="0.1" d="M386 254.5C386 254.5 390.658 253.375 391.862 254.5C393.066 255.625 386 254.5 386 254.5Z" fill="black"/>
<path opacity="0.1" d="M438 265C438 265 438.491 271.775 440.488 271.995C442.484 272.215 438 265 438 265Z" fill="black"/>
<path opacity="0.1" d="M442.976 248C442.976 248 443.392 250.508 440.778 250.959C438.164 251.41 442.976 248 442.976 248Z" fill="black"/>
<path opacity="0.1" d="M419 270C419 270 418.907 293.149 423 296L419 270Z" fill="black"/>
<path opacity="0.1" d="M425 271C425 271 424.927 294.144 429 297L425 271Z" fill="black"/>
<path opacity="0.1" d="M424 318.498C425.188 317.834 426.383 317.834 427.571 318.498C429.557 319.627 424 318.498 424 318.498Z" fill="black"/>
<g opacity="0.1">
<path opacity="0.1" d="M408.466 244.285C414.953 237.714 416.755 227.049 412.845 218.71C412.489 218.06 412.221 217.366 412.048 216.646C411.756 215.021 412.604 213.414 413.567 212.071C414.531 210.727 415.666 209.434 416.083 207.837C416.5 206.239 415.893 204.208 414.309 203.718C412.622 203.192 412.099 203.031 410.95 201.682C410.181 200.787 409.745 199.374 408.429 199.115C406.002 198.612 402.87 201.885 401.753 197.425C401.114 194.923 402.981 192.531 405.135 191.104C402.443 192.217 399.33 195.172 400.127 198.298C401.262 202.772 404.375 199.485 406.803 199.988C408.119 200.26 408.554 201.659 409.323 202.555C410.477 203.903 410.996 204.065 412.682 204.591C414.267 205.081 414.878 207.112 414.457 208.71C414.035 210.307 412.9 211.6 411.941 212.943C410.982 214.287 410.13 215.894 410.421 217.524C410.596 218.242 410.864 218.934 411.218 219.583C415.129 227.921 413.303 238.587 406.84 245.157C410.343 246.408 414.638 247.516 417.496 245.3C414.786 246.251 411.357 245.314 408.466 244.285Z" fill="black"/>
<path opacity="0.1" d="M433.545 240.457C433.2 240.613 432.887 240.829 432.618 241.094C433.35 240.914 434.124 240.891 434.842 240.665C435.399 240.493 435.913 240.207 436.352 239.824C435.43 240.083 434.42 240.055 433.545 240.457Z" fill="black"/>
<path opacity="0.1" d="M425.474 253.269C424.333 253.778 423.156 254.202 421.953 254.539C422.873 253.128 423.473 251.535 423.713 249.869C423.953 248.204 423.827 246.506 423.343 244.894C423.051 243.971 422.417 242.886 421.411 242.913C420.807 243.006 420.259 243.318 419.873 243.791C420.8 243.823 421.434 244.848 421.726 245.767C422.21 247.379 422.337 249.076 422.097 250.742C421.857 252.407 421.256 254.001 420.336 255.412C422.139 254.936 423.868 254.215 425.474 253.269V253.269Z" fill="black"/>
</g>
<defs>
<linearGradient id="paint0_linear_127_494" x1="413.016" y1="379.074" x2="413.016" y2="187.051" gradientUnits="userSpaceOnUse">
<stop stop-color="#808080" stop-opacity="0.25"/>
<stop offset="0.54" stop-color="#808080" stop-opacity="0.12"/>
<stop offset="1" stop-color="#808080" stop-opacity="0.1"/>
</linearGradient>
</defs>
</svg>
