<svg width="640" height="389" viewBox="0 0 640 389" fill="none" xmlns="http://www.w3.org/2000/svg">
<path d="M607.668 360.942C590.566 373.306 568.403 373.927 546.981 372.408C543.989 372.196 541.019 371.948 538.076 371.68C538.059 371.675 538.035 371.677 538.017 371.672C537.876 371.659 537.734 371.645 537.599 371.637C536.991 371.58 536.384 371.523 535.782 371.466L535.924 371.738L536.37 372.582C536.21 372.3 536.05 372.023 535.889 371.74C535.842 371.655 535.789 371.571 535.742 371.486C530.193 361.794 524.689 351.746 523.285 340.679C521.833 329.192 525.912 316.185 535.986 310.539C537.307 309.8 538.706 309.212 540.157 308.785C540.76 308.602 541.37 308.453 541.988 308.321C545.766 307.479 549.7 307.662 553.384 308.851C557.068 310.041 560.37 312.193 562.951 315.088C565.531 317.983 567.296 321.515 568.066 325.322C568.835 329.128 568.58 333.072 567.327 336.747C575.868 327.957 574.275 313.699 571.329 301.782C568.377 289.866 564.803 276.606 570.807 265.903C574.144 259.946 580.014 256.249 586.6 254.76C586.802 254.717 587.004 254.673 587.207 254.635C595.054 253.04 603.213 254.475 610.052 258.653C622.647 266.617 629.115 281.719 631.214 296.512C634.597 320.317 627.111 346.883 607.668 360.942Z" fill="#699182"/>
<path d="M601.565 323.184C601.067 328.436 599.807 333.588 597.825 338.476C595.998 342.802 593.536 346.83 590.519 350.427C584.358 357.849 576.211 363.43 567.363 367.149C560.597 369.924 553.508 371.831 546.265 372.826C543.267 372.614 540.289 372.365 537.339 372.097C537.322 372.092 537.298 372.094 537.28 372.089C537.138 372.076 536.996 372.062 536.861 372.054C536.252 371.997 535.643 371.94 535.04 371.883L535.182 372.155L535.629 373C535.469 372.717 535.308 372.44 535.147 372.158C535.1 372.073 535.047 371.988 535 371.903C540.43 366.485 544.484 359.842 546.823 352.532C549.162 345.221 549.717 337.455 548.442 329.886C547.107 322.369 544.018 315.275 539.426 309.182C540.029 308.998 540.642 308.849 541.261 308.717C543.006 311.107 544.537 313.646 545.836 316.306C550.495 325.791 551.982 336.526 550.075 346.923C548.303 356.331 543.887 365.038 537.346 372.02C537.919 371.98 538.497 371.933 539.063 371.881C549.782 370.972 560.48 368.664 570.203 363.937C578.513 359.994 585.728 354.065 591.212 346.672C597.101 338.539 599.695 328.756 600.141 318.814C600.614 308.169 599.235 297.337 596.809 286.986C594.332 276.373 590.568 266.104 585.6 256.408C585.489 256.188 585.467 255.933 585.538 255.697C585.608 255.461 585.767 255.262 585.981 255.14C586.159 255.019 586.378 254.974 586.589 255.014C586.692 255.042 586.788 255.092 586.869 255.162C586.95 255.231 587.015 255.318 587.058 255.416C587.67 256.614 588.272 257.813 588.85 259.025C593.669 269.121 597.216 279.777 599.411 290.749C601.542 301.333 602.68 312.405 601.565 323.184Z" fill="white"/>
<path d="M378.278 366.819C386.907 373.157 398.09 373.475 408.9 372.697C410.409 372.588 411.908 372.461 413.393 372.323C413.402 372.321 413.413 372.322 413.423 372.319C413.494 372.312 413.565 372.305 413.634 372.301C413.94 372.272 414.247 372.243 414.55 372.213L414.479 372.353L414.254 372.786C414.334 372.641 414.415 372.499 414.496 372.354C414.52 372.311 414.547 372.267 414.57 372.224C417.371 367.256 420.148 362.105 420.856 356.432C421.589 350.544 419.531 343.876 414.447 340.982C413.781 340.603 413.075 340.302 412.343 340.083C412.039 339.989 411.731 339.913 411.419 339.845C409.513 339.413 407.528 339.507 405.669 340.117C403.81 340.727 402.144 341.83 400.842 343.314C399.539 344.798 398.649 346.609 398.26 348.56C397.872 350.511 398.001 352.533 398.633 354.416C394.323 349.911 395.127 342.602 396.614 336.493C398.104 330.385 399.907 323.588 396.877 318.102C396.019 316.63 394.866 315.36 393.492 314.376C392.119 313.391 390.557 312.715 388.908 312.39C388.806 312.367 388.704 312.345 388.602 312.326C384.642 311.508 380.526 312.243 377.074 314.385C370.72 318.468 367.456 326.209 366.396 333.792C364.69 345.994 368.467 359.612 378.278 366.819Z" fill="#699182"/>
<path d="M381.193 346.67C381.445 349.34 382.085 351.96 383.092 354.446C384.02 356.645 385.271 358.693 386.802 360.522C389.987 364.26 394.021 367.176 398.563 369.025C402 370.436 405.6 371.406 409.278 371.911C410.801 371.804 412.314 371.677 413.812 371.541C413.821 371.538 413.833 371.539 413.842 371.537C413.914 371.53 413.986 371.523 414.055 371.519C414.364 371.49 414.674 371.461 414.98 371.432L414.908 371.57L414.68 372C414.762 371.856 414.844 371.715 414.925 371.572C414.949 371.529 414.976 371.486 415 371.442C412.242 368.687 410.183 365.31 408.995 361.592C407.807 357.875 407.525 353.927 408.173 350.078C408.851 346.256 410.42 342.649 412.752 339.55C412.446 339.457 412.135 339.381 411.82 339.314C410.934 340.529 410.156 341.82 409.497 343.172C407.13 347.995 406.375 353.454 407.343 358.74C408.244 363.524 410.487 367.951 413.809 371.502C413.518 371.481 413.224 371.457 412.937 371.431C407.462 371.068 402.101 369.699 397.121 367.391C392.9 365.387 389.236 362.372 386.45 358.613C383.46 354.478 382.142 349.503 381.916 344.448C381.741 339.001 382.311 333.556 383.608 328.264C384.866 322.868 386.778 317.646 389.301 312.716C389.357 312.604 389.369 312.475 389.333 312.355C389.297 312.235 389.216 312.133 389.107 312.071C389.017 312.01 388.906 311.987 388.799 312.007C388.746 312.021 388.698 312.047 388.656 312.082C388.615 312.118 388.582 312.162 388.561 312.212C388.249 312.821 387.944 313.43 387.65 314.047C385.203 319.18 383.401 324.598 382.286 330.177C381.1 335.589 380.731 341.148 381.193 346.67Z" fill="white"/>
<path d="M144.481 82H53.5193C50.7306 82.0039 48.0573 83.1136 46.0854 85.0858C44.1135 87.058 43.0039 89.7317 43 92.5208V235.479C43.0039 238.268 44.1135 240.942 46.0854 242.914C48.0573 244.886 50.7306 245.996 53.5193 246H144.481C147.269 245.996 149.943 244.886 151.915 242.914C153.887 240.942 154.996 238.268 155 235.479V92.5208C154.996 89.7317 153.887 87.058 151.915 85.0858C149.943 83.1137 147.269 82.0039 144.481 82ZM153.762 235.479C153.759 237.94 152.781 240.3 151.041 242.04C149.301 243.78 146.941 244.759 144.481 244.762H53.5193C51.0586 244.759 48.6995 243.78 46.9594 242.04C45.2194 240.3 44.2406 237.94 44.2376 235.479V92.5208C44.2406 90.0597 45.2194 87.7002 46.9594 85.96C48.6995 84.2197 51.0586 83.2407 53.5193 83.2377H144.481C146.941 83.2407 149.301 84.2197 151.041 85.96C152.781 87.7002 153.759 90.0597 153.762 92.5208V235.479Z" fill="#3F3D56"/>
<path d="M340.387 246H248.613C245.799 245.997 243.102 244.887 241.112 242.915C239.122 240.943 238.003 238.269 238 235.479V92.5208C238.003 89.7314 239.122 87.0573 241.112 85.0849C243.102 83.1126 245.799 82.0031 248.613 82H340.387C343.201 82.0031 345.898 83.1126 347.888 85.0849C349.878 87.0573 350.997 89.7314 351 92.5208V235.479C350.997 238.269 349.878 240.943 347.888 242.915C345.898 244.887 343.201 245.997 340.387 246ZM248.613 83.2377C246.13 83.2405 243.75 84.2194 241.995 85.9597C240.239 87.7 239.251 90.0596 239.249 92.5208V235.479C239.251 237.94 240.239 240.3 241.995 242.04C243.75 243.781 246.13 244.759 248.613 244.762H340.387C342.87 244.759 345.25 243.781 347.005 242.04C348.761 240.3 349.749 237.94 349.751 235.479V92.5208C349.749 90.0596 348.761 87.7 347.005 85.9597C345.25 84.2194 342.87 83.2405 340.387 83.2377H248.613Z" fill="#3F3D56"/>
<path d="M209.381 165H171.619C171.455 165 171.297 164.947 171.181 164.854C171.065 164.76 171 164.633 171 164.5C171 164.367 171.065 164.24 171.181 164.146C171.297 164.053 171.455 164 171.619 164H209.381C209.545 164 209.703 164.053 209.819 164.146C209.935 164.24 210 164.367 210 164.5C210 164.633 209.935 164.76 209.819 164.854C209.703 164.947 209.545 165 209.381 165Z" fill="#3F3D56"/>
<path d="M201.622 182C201.492 182 201.365 181.96 201.259 181.885C201.154 181.81 201.074 181.704 201.033 181.581C200.991 181.459 200.989 181.327 201.027 181.204C201.065 181.081 201.141 180.973 201.245 180.895L221.023 165.969C221.251 165.797 221.436 165.574 221.563 165.319C221.691 165.065 221.757 164.784 221.757 164.5C221.757 164.215 221.691 163.935 221.563 163.68C221.436 163.425 221.251 163.203 221.023 163.031L201.245 148.105C201.114 148.006 201.028 147.859 201.006 147.698C200.984 147.536 201.028 147.372 201.128 147.243C201.227 147.113 201.375 147.028 201.538 147.006C201.702 146.984 201.867 147.027 201.998 147.125L221.776 162.051C222.156 162.339 222.465 162.709 222.677 163.134C222.89 163.558 223 164.026 223 164.5C223 164.974 222.89 165.441 222.677 165.866C222.465 166.291 222.156 166.661 221.776 166.948L201.998 181.874C201.89 181.956 201.758 182 201.622 182V182Z" fill="#3F3D56"/>
<path d="M404.365 165H365.635C365.467 165 365.305 164.947 365.186 164.854C365.067 164.76 365 164.633 365 164.5C365 164.367 365.067 164.24 365.186 164.146C365.305 164.053 365.467 164 365.635 164H404.365C404.533 164 404.695 164.053 404.814 164.146C404.933 164.24 405 164.367 405 164.5C405 164.633 404.933 164.76 404.814 164.854C404.695 164.947 404.533 165 404.365 165Z" fill="#3F3D56"/>
<path d="M395.622 182C395.492 182 395.365 181.96 395.259 181.885C395.154 181.81 395.074 181.704 395.033 181.581C394.991 181.459 394.989 181.327 395.027 181.204C395.065 181.081 395.141 180.973 395.245 180.895L415.022 165.969C415.251 165.797 415.436 165.574 415.563 165.319C415.691 165.065 415.757 164.784 415.757 164.5C415.757 164.215 415.691 163.935 415.563 163.68C415.436 163.425 415.251 163.203 415.022 163.031L395.245 148.105C395.114 148.006 395.028 147.859 395.006 147.698C394.984 147.536 395.028 147.372 395.128 147.243C395.227 147.113 395.375 147.028 395.538 147.006C395.702 146.984 395.867 147.027 395.998 147.125L415.776 162.051C416.156 162.339 416.465 162.709 416.677 163.134C416.89 163.558 417 164.026 417 164.5C417 164.974 416.89 165.441 416.677 165.866C416.465 166.291 416.156 166.661 415.776 166.948L395.998 181.874C395.89 181.956 395.758 182 395.622 182V182Z" fill="#3F3D56"/>
<path d="M305.769 140H284.231C282.844 139.998 281.514 139.454 280.534 138.485C279.553 137.516 279.002 136.203 279 134.833V114.167C279.002 112.797 279.553 111.484 280.534 110.515C281.514 109.546 282.844 109.002 284.231 109H305.769C307.156 109.002 308.486 109.546 309.466 110.515C310.447 111.484 310.998 112.797 311 114.167V134.833C310.998 136.203 310.447 137.516 309.466 138.485C308.486 139.454 307.156 139.998 305.769 140V140Z" fill="#318BAF"/>
<path d="M309.38 140C309.299 140 309.218 139.984 309.143 139.953C309.068 139.922 308.999 139.876 308.942 139.818L279.182 110.058C279.124 110.001 279.078 109.932 279.047 109.857C279.016 109.782 279 109.701 279 109.62C279 109.539 279.016 109.458 279.047 109.383C279.078 109.307 279.124 109.239 279.182 109.182C279.239 109.124 279.307 109.078 279.383 109.047C279.458 109.016 279.539 109 279.62 109C279.701 109 279.782 109.016 279.857 109.047C279.932 109.078 280.001 109.124 280.058 109.182L309.818 138.942C309.905 139.028 309.964 139.139 309.988 139.259C310.012 139.379 310 139.504 309.953 139.617C309.906 139.73 309.826 139.827 309.725 139.895C309.623 139.964 309.503 140 309.38 140L309.38 140Z" fill="white"/>
<path d="M279.62 140C279.497 140 279.377 139.964 279.275 139.895C279.174 139.827 279.094 139.731 279.047 139.617C279 139.504 278.988 139.379 279.012 139.259C279.036 139.139 279.095 139.028 279.182 138.942L308.942 109.182C308.999 109.124 309.068 109.078 309.143 109.047C309.218 109.016 309.299 109 309.38 109C309.461 109 309.542 109.016 309.617 109.047C309.692 109.078 309.761 109.124 309.818 109.182C309.876 109.239 309.922 109.307 309.953 109.383C309.984 109.458 310 109.539 310 109.62C310 109.701 309.984 109.782 309.953 109.857C309.922 109.932 309.876 110.001 309.818 110.058L280.058 139.818C280.001 139.876 279.932 139.922 279.857 139.953C279.782 139.984 279.701 140 279.62 140V140Z" fill="white"/>
<path d="M314.361 173H274.639C272.613 173 270.67 172.157 269.237 170.657C267.805 169.157 267 167.122 267 165C267 162.878 267.805 160.843 269.237 159.343C270.67 157.843 272.613 157 274.639 157H314.361C316.387 157 318.33 157.843 319.763 159.343C321.195 160.843 322 162.878 322 165C322 167.122 321.195 169.157 319.763 170.657C318.33 172.157 316.387 173 314.361 173ZM274.639 158.28C272.937 158.28 271.305 158.988 270.102 160.248C268.898 161.508 268.222 163.218 268.222 165C268.222 166.782 268.898 168.492 270.102 169.752C271.305 171.012 272.937 171.72 274.639 171.72H314.361C316.063 171.72 317.695 171.012 318.898 169.752C320.102 168.492 320.778 166.782 320.778 165C320.778 163.218 320.102 161.508 318.898 160.248C317.695 158.988 316.063 158.28 314.361 158.28H274.639Z" fill="#3F3D56"/>
<path d="M314.361 196H274.639C272.613 196 270.67 195.21 269.237 193.803C267.805 192.397 267 190.489 267 188.5C267 186.511 267.805 184.603 269.237 183.197C270.67 181.79 272.613 181 274.639 181H314.361C316.387 181 318.33 181.79 319.763 183.197C321.195 184.603 322 186.511 322 188.5C322 190.489 321.195 192.397 319.763 193.803C318.33 195.21 316.387 196 314.361 196V196ZM274.639 182.2C272.937 182.2 271.305 182.864 270.102 184.045C268.898 185.227 268.222 186.829 268.222 188.5C268.222 190.171 268.898 191.773 270.102 192.955C271.305 194.136 272.937 194.8 274.639 194.8H314.361C316.063 194.8 317.695 194.136 318.898 192.955C320.102 191.773 320.778 190.171 320.778 188.5C320.778 186.829 320.102 185.227 318.898 184.045C317.695 182.864 316.063 182.2 314.361 182.2H274.639Z" fill="#3F3D56"/>
<path d="M314.361 220H274.639C272.613 220 270.67 219.157 269.237 217.657C267.805 216.157 267 214.122 267 212C267 209.878 267.805 207.843 269.237 206.343C270.67 204.843 272.613 204 274.639 204H314.361C316.387 204 318.33 204.843 319.763 206.343C321.195 207.843 322 209.878 322 212C322 214.122 321.195 216.157 319.763 217.657C318.33 219.157 316.387 220 314.361 220ZM274.639 205.28C272.937 205.28 271.305 205.988 270.102 207.248C268.898 208.508 268.222 210.218 268.222 212C268.222 213.782 268.898 215.492 270.102 216.752C271.305 218.012 272.937 218.72 274.639 218.72H314.361C316.063 218.72 317.695 218.012 318.898 216.752C320.102 215.492 320.778 213.782 320.778 212C320.778 210.218 320.102 208.508 318.898 207.248C317.695 205.988 316.063 205.28 314.361 205.28H274.639Z" fill="#3F3D56"/>
<path d="M527.137 74.1398L436.849 89.0378C434.082 89.4985 431.611 91.0313 429.979 93.3003C428.346 95.5692 427.685 98.3892 428.141 101.142L451.688 242.202C452.151 244.953 453.693 247.41 455.975 249.033C458.258 250.656 461.094 251.313 463.863 250.86L554.151 235.962C556.918 235.501 559.389 233.969 561.021 231.7C562.654 229.431 563.315 226.611 562.859 223.858L539.312 82.798C538.849 80.0466 537.307 77.5901 535.025 75.9671C532.742 74.3441 529.906 73.687 527.137 74.1398V74.1398ZM561.631 224.061C562.033 226.49 561.45 228.978 560.01 230.98C558.569 232.982 556.389 234.335 553.947 234.741L463.659 249.639C461.216 250.039 458.713 249.459 456.699 248.027C454.685 246.595 453.325 244.427 452.917 241.999L429.369 100.939C428.967 98.5102 429.55 96.0218 430.99 94.0197C432.431 92.0175 434.611 90.6651 437.053 90.2592L527.341 75.3611C529.784 74.961 532.287 75.5406 534.301 76.9728C536.315 78.405 537.675 80.5728 538.083 83.0007L561.631 224.061Z" fill="#3F3D56"/>
<path d="M511.553 132.327L471.978 138.896C469.959 139.231 467.891 138.75 466.226 137.56C464.562 136.369 463.439 134.566 463.104 132.547C462.769 130.529 463.25 128.46 464.44 126.795C465.63 125.131 467.433 124.007 469.452 123.672L509.027 117.103C511.045 116.77 513.112 117.251 514.776 118.442C516.439 119.632 517.561 121.435 517.896 123.453C518.231 125.471 517.751 127.539 516.561 129.203C515.372 130.867 513.57 131.991 511.553 132.327V132.327ZM469.654 124.89C467.959 125.172 466.445 126.116 465.445 127.514C464.445 128.912 464.042 130.65 464.323 132.345C464.605 134.041 465.548 135.555 466.945 136.555C468.343 137.555 470.08 137.959 471.776 137.678L511.351 131.109C513.046 130.827 514.56 129.883 515.56 128.485C516.559 127.087 516.963 125.35 516.681 123.654C516.4 121.959 515.457 120.444 514.059 119.444C512.662 118.444 510.924 118.04 509.229 118.321L469.654 124.89Z" fill="#CCCCCC"/>
<path d="M515.549 160.327L475.981 166.895C474.981 167.062 473.959 167.03 472.972 166.801C471.984 166.572 471.052 166.151 470.228 165.561C469.403 164.972 468.703 164.226 468.167 163.365C467.631 162.505 467.27 161.548 467.104 160.548C466.938 159.548 466.971 158.525 467.2 157.538C467.43 156.551 467.851 155.618 468.441 154.794C469.031 153.97 469.777 153.27 470.638 152.734C471.498 152.199 472.455 151.838 473.455 151.673L513.024 145.104C515.042 144.769 517.11 145.25 518.774 146.44C520.438 147.631 521.561 149.434 521.896 151.452C522.231 153.471 521.75 155.54 520.56 157.204C519.37 158.868 517.568 159.991 515.549 160.327V160.327ZM473.657 152.891C471.963 153.173 470.449 154.116 469.45 155.514C468.451 156.912 468.048 158.649 468.329 160.345C468.61 162.04 469.553 163.554 470.95 164.554C472.347 165.554 474.084 165.958 475.779 165.677L515.347 159.109C517.042 158.827 518.555 157.883 519.554 156.485C520.553 155.087 520.957 153.35 520.675 151.655C520.394 149.96 519.451 148.446 518.054 147.446C516.657 146.446 514.921 146.041 513.226 146.322L473.657 152.891Z" fill="#CCCCCC"/>
<path d="M520.554 188.326L480.982 194.895C479.982 195.062 478.959 195.03 477.972 194.801C476.985 194.572 476.052 194.151 475.228 193.561C474.404 192.972 473.703 192.226 473.167 191.365C472.631 190.505 472.27 189.548 472.104 188.548C471.938 187.548 471.971 186.525 472.2 185.538C472.43 184.55 472.851 183.618 473.441 182.794C474.031 181.969 474.778 181.27 475.638 180.734C476.498 180.198 477.456 179.838 478.456 179.672L518.027 173.103C520.045 172.77 522.113 173.251 523.776 174.442C525.439 175.632 526.561 177.434 526.896 179.452C527.231 181.47 526.751 183.539 525.561 185.203C524.372 186.867 522.571 187.99 520.554 188.326ZM478.658 180.89C477.818 181.029 477.014 181.332 476.292 181.782C475.569 182.232 474.943 182.82 474.447 183.513C473.952 184.205 473.598 184.988 473.405 185.817C473.213 186.646 473.185 187.505 473.325 188.345C473.464 189.185 473.768 189.989 474.218 190.711C474.668 191.434 475.256 192.06 475.948 192.556C476.64 193.051 477.423 193.405 478.252 193.597C479.081 193.79 479.94 193.817 480.78 193.677L520.351 187.108C521.191 186.969 521.995 186.666 522.718 186.216C523.441 185.766 524.067 185.179 524.563 184.486C525.058 183.794 525.412 183.011 525.605 182.181C525.798 181.352 525.825 180.493 525.686 179.653C525.546 178.813 525.243 178.009 524.793 177.287C524.343 176.564 523.755 175.937 523.062 175.442C522.37 174.947 521.587 174.593 520.757 174.401C519.928 174.208 519.069 174.181 518.23 174.321L478.658 180.89Z" fill="#CCCCCC"/>
<path d="M525.553 216.327L485.978 222.896C484.978 223.062 483.956 223.029 482.969 222.8C481.982 222.571 481.05 222.149 480.226 221.56C479.402 220.97 478.703 220.224 478.167 219.364C477.631 218.504 477.27 217.547 477.104 216.547C476.938 215.548 476.971 214.525 477.2 213.538C477.429 212.551 477.851 211.619 478.44 210.795C479.029 209.971 479.775 209.271 480.635 208.735C481.495 208.2 482.452 207.838 483.452 207.672L523.027 201.103C525.045 200.77 527.112 201.251 528.776 202.442C530.439 203.632 531.561 205.435 531.896 207.453C532.231 209.471 531.751 211.539 530.561 213.203C529.372 214.867 527.57 215.991 525.553 216.327V216.327ZM483.654 208.89C482.814 209.03 482.01 209.333 481.288 209.783C480.566 210.233 479.939 210.821 479.444 211.513C478.444 212.911 478.04 214.65 478.322 216.345C478.603 218.041 479.547 219.556 480.944 220.556C482.342 221.556 484.08 221.959 485.776 221.678L525.351 215.109C527.046 214.827 528.56 213.883 529.56 212.485C530.559 211.088 530.963 209.35 530.681 207.654C530.4 205.959 529.457 204.444 528.059 203.444C526.662 202.444 524.924 202.04 523.229 202.321L483.654 208.89Z" fill="#CCCCCC"/>
<path d="M539.483 91.2059L430.719 108.991C430.639 109.005 430.557 109.002 430.478 108.985C430.399 108.967 430.324 108.934 430.258 108.887C430.192 108.841 430.136 108.782 430.093 108.714C430.051 108.647 430.022 108.571 430.008 108.492C429.995 108.414 429.998 108.333 430.016 108.255C430.035 108.178 430.068 108.104 430.116 108.039C430.163 107.974 430.223 107.919 430.292 107.877C430.361 107.835 430.437 107.807 430.517 107.794L539.281 90.0085C539.361 89.9952 539.443 89.9975 539.522 90.0154C539.601 90.0333 539.676 90.0663 539.742 90.1127C539.808 90.159 539.864 90.2178 539.907 90.2855C539.949 90.3533 539.978 90.4287 539.992 90.5075C540.005 90.5863 540.002 90.6669 539.984 90.7447C539.965 90.8225 539.932 90.8959 539.884 90.9608C539.837 91.0257 539.777 91.0807 539.708 91.1228C539.639 91.1648 539.563 91.1931 539.483 91.2059V91.2059Z" fill="#3F3D56"/>
<path d="M442.5 102C444.985 102 447 99.9853 447 97.5C447 95.0147 444.985 93 442.5 93C440.015 93 438 95.0147 438 97.5C438 99.9853 440.015 102 442.5 102Z" fill="#318BAF"/>
<path d="M528.501 81.1298L516.694 82.9926C516.538 83.0168 516.378 82.981 516.249 82.8932C516.121 82.8054 516.034 82.6728 516.008 82.5243C515.982 82.3757 516.019 82.2235 516.111 82.1009C516.203 81.9783 516.342 81.8954 516.498 81.8702L528.305 80.0074C528.462 79.9832 528.622 80.0189 528.75 80.1067C528.879 80.1945 528.966 80.3272 528.992 80.4757C529.018 80.6243 528.981 80.7765 528.889 80.8991C528.797 81.0217 528.658 81.1047 528.501 81.1298V81.1298Z" fill="#3F3D56"/>
<path d="M529.463 84.1298L516.748 85.9926C516.579 86.0168 516.407 85.981 516.269 85.8932C516.13 85.8054 516.037 85.6728 516.009 85.5242C515.981 85.3757 516.021 85.2235 516.12 85.1009C516.219 84.9783 516.369 84.8954 516.537 84.8702L529.252 83.0074C529.421 82.9832 529.593 83.019 529.731 83.1068C529.87 83.1946 529.963 83.3272 529.991 83.4757C530.019 83.6243 529.979 83.7765 529.88 83.8991C529.781 84.0217 529.631 84.1046 529.463 84.1298V84.1298Z" fill="#3F3D56"/>
<path d="M530.459 88.1299L517.752 89.992C517.668 90.0045 517.582 90.0023 517.5 89.9856C517.417 89.9688 517.339 89.9378 517.27 89.8944C517.201 89.8509 517.143 89.7959 517.098 89.7324C517.053 89.6689 517.023 89.5983 517.009 89.5244C516.995 89.4506 516.998 89.3751 517.017 89.3022C517.036 89.2294 517.071 89.1606 517.121 89.0998C517.17 89.039 517.233 88.9874 517.305 88.948C517.377 88.9086 517.457 88.8821 517.541 88.8701L530.248 87.008C530.332 86.9955 530.417 86.9977 530.5 87.0144C530.583 87.0312 530.661 87.0621 530.73 87.1056C530.799 87.149 530.857 87.2041 530.902 87.2675C530.947 87.331 530.977 87.4017 530.991 87.4755C531.005 87.5494 531.002 87.6249 530.983 87.6978C530.964 87.7707 530.929 87.8395 530.879 87.9003C530.83 87.9611 530.767 88.0127 530.695 88.0521C530.623 88.0915 530.543 88.1179 530.459 88.1299Z" fill="#3F3D56"/>
<path d="M122.734 175H76.2663C74.8701 174.998 73.5315 174.449 72.5442 173.472C71.5569 172.496 71.0016 171.172 71 169.79V123.21C71.0016 121.828 71.5569 120.504 72.5442 119.528C73.5315 118.551 74.8701 118.002 76.2663 118H122.734C124.13 118.002 125.469 118.551 126.456 119.528C127.443 120.504 127.998 121.828 128 123.21V169.79C127.998 171.172 127.443 172.496 126.456 173.472C125.469 174.449 124.13 174.998 122.734 175V175Z" fill="#318BAF"/>
<path d="M119.222 211H78.7778C76.715 211 74.7367 210.157 73.2781 208.657C71.8194 207.157 71 205.122 71 203C71 200.878 71.8194 198.843 73.2781 197.343C74.7367 195.843 76.715 195 78.7778 195H119.222C121.285 195 123.263 195.843 124.722 197.343C126.181 198.843 127 200.878 127 203C127 205.122 126.181 207.157 124.722 208.657C123.263 210.157 121.285 211 119.222 211ZM78.7778 196.28C77.045 196.28 75.3833 196.988 74.158 198.248C72.9328 199.508 72.2444 201.218 72.2444 203C72.2444 204.782 72.9328 206.492 74.158 207.752C75.3833 209.012 77.045 209.72 78.7778 209.72H119.222C120.955 209.72 122.617 209.012 123.842 207.752C125.067 206.492 125.756 204.782 125.756 203C125.756 201.218 125.067 199.508 123.842 198.248C122.617 196.988 120.955 196.28 119.222 196.28H78.7778Z" fill="#3F3D56"/>
<path d="M126.389 175C126.309 175 126.229 174.984 126.155 174.953C126.081 174.921 126.014 174.876 125.957 174.818L72.1817 120.065C72.1244 120.007 72.0788 119.939 72.0476 119.863C72.0164 119.787 72.0003 119.706 72 119.624C71.9998 119.542 72.0154 119.461 72.0462 119.385C72.0769 119.309 72.122 119.24 72.179 119.182C72.236 119.124 72.3037 119.078 72.3782 119.047C72.4527 119.016 72.5325 119 72.6131 119C72.6937 119 72.7734 119.017 72.8477 119.049C72.922 119.08 72.9894 119.127 73.046 119.185L126.821 173.938C126.907 174.025 126.965 174.136 126.988 174.256C127.012 174.377 127 174.502 126.953 174.616C126.907 174.73 126.829 174.827 126.728 174.895C126.628 174.963 126.51 175 126.389 175V175Z" fill="white"/>
<path d="M72.6111 175C72.4902 175 72.3721 174.963 72.2716 174.895C72.1711 174.827 72.0928 174.73 72.0465 174.616C72.0003 174.502 71.9882 174.377 72.0117 174.256C72.0353 174.136 72.0935 174.025 72.1789 173.938L125.954 119.185C126.011 119.127 126.078 119.08 126.152 119.049C126.227 119.017 126.306 119 126.387 119C126.468 119 126.547 119.016 126.622 119.047C126.696 119.078 126.764 119.124 126.821 119.182C126.878 119.24 126.923 119.309 126.954 119.385C126.985 119.461 127 119.542 127 119.624C127 119.706 126.984 119.787 126.952 119.863C126.921 119.939 126.876 120.007 126.818 120.065L73.0432 174.818C72.9865 174.876 72.9191 174.921 72.845 174.953C72.7708 174.984 72.6913 175 72.6111 175V175Z" fill="white"/>
<path d="M550.705 238.192C550.991 237.253 551.07 236.261 550.937 235.288C550.804 234.314 550.461 233.382 549.933 232.557C549.405 231.732 548.705 231.034 547.882 230.512C547.058 229.991 546.132 229.658 545.167 229.537L513.407 192L506 199.867L537.635 235.859C537.542 237.511 538.052 239.14 539.068 240.437C540.083 241.734 541.534 242.61 543.145 242.897C544.756 243.185 546.416 242.865 547.809 241.997C549.202 241.13 550.232 239.776 550.705 238.192V238.192Z" fill="#A0616A"/>
<path d="M522.84 200.219L511.297 208.467C510.969 208.702 510.592 208.864 510.194 208.944C509.795 209.024 509.384 209.018 508.988 208.929C508.591 208.839 508.219 208.666 507.897 208.423C507.575 208.181 507.311 207.873 507.121 207.521L500.488 195.186C499.27 193.536 498.77 191.482 499.099 189.472C499.427 187.463 500.557 185.663 502.241 184.467C503.925 183.272 506.026 182.777 508.082 183.093C510.138 183.409 511.982 184.509 513.209 186.152L523.185 196.042C523.471 196.325 523.691 196.666 523.83 197.039C523.969 197.413 524.024 197.812 523.991 198.208C523.958 198.605 523.838 198.989 523.64 199.336C523.441 199.683 523.168 199.985 522.84 200.219V200.219Z" fill="#318BAF"/>
<path d="M500.5 175C509.06 175 516 168.284 516 160C516 151.716 509.06 145 500.5 145C491.94 145 485 151.716 485 160C485 168.284 491.94 175 500.5 175Z" fill="#A0616A"/>
<path d="M507.295 229C507.138 229 506.982 228.987 506.827 228.96L480.316 224.438C479.678 224.33 479.097 223.998 478.675 223.5C478.253 223.003 478.017 222.371 478.008 221.715C477.927 215.567 478.381 200.049 484.323 188.747C486.181 185.214 489.242 182.485 492.937 181.069C496.632 179.652 500.708 179.644 504.408 181.045C508.109 182.447 511.181 185.163 513.053 188.688C514.925 192.213 515.471 196.308 514.587 200.21C512.598 208.892 511.078 217.678 510.034 226.528C509.954 227.208 509.631 227.835 509.127 228.29C508.622 228.745 507.971 228.998 507.295 229L507.295 229Z" fill="#2F2E41"/>
<path d="M450.844 178.115C450.92 178.456 450.97 178.802 450.992 179.151L477.625 194.801L484.099 191.005L491 200.208L480.181 208.062C479.307 208.697 478.255 209.025 477.182 208.999C476.109 208.972 475.073 208.591 474.23 207.914L446.767 185.846C445.528 186.313 444.178 186.385 442.898 186.052C441.617 185.719 440.467 184.996 439.599 183.981C438.731 182.966 438.188 181.705 438.041 180.367C437.893 179.03 438.149 177.678 438.775 176.492C439.4 175.306 440.365 174.342 441.542 173.729C442.718 173.115 444.05 172.881 445.36 173.057C446.67 173.233 447.897 173.812 448.876 174.715C449.856 175.619 450.542 176.805 450.844 178.115V178.115Z" fill="#A0616A"/>
<path d="M478.057 193.395C478.136 192.999 478.299 192.626 478.535 192.3C478.77 191.974 479.072 191.703 479.421 191.506L491.581 184.625C493.197 183.364 495.241 182.802 497.265 183.063C499.29 183.324 501.129 184.386 502.381 186.018C503.632 187.649 504.193 189.716 503.941 191.766C503.689 193.815 502.644 195.68 501.035 196.951L491.34 207.14C491.063 207.43 490.728 207.657 490.357 207.805C489.985 207.953 489.587 208.018 489.189 207.996C488.79 207.974 488.401 207.865 488.048 207.677C487.695 207.489 487.386 207.227 487.143 206.907L478.578 195.674C478.335 195.354 478.162 194.985 478.072 194.592C477.982 194.199 477.976 193.79 478.057 193.395Z" fill="#318BAF"/>
<path d="M465.999 365H457.905L456 336.094L466 336L465.999 365Z" fill="#A0616A"/>
<path d="M467 373L443 372.999V372.684C443 371.413 443.242 370.153 443.711 368.978C444.18 367.803 444.869 366.736 445.736 365.836C446.603 364.937 447.633 364.224 448.767 363.737C449.9 363.25 451.115 363 452.341 363H452.342L467 363.001L467 373Z" fill="#2F2E41"/>
<path d="M537.999 365H530.545L527 336H538L537.999 365Z" fill="#A0616A"/>
<path d="M540 373L515 372.999V372.684C515 371.413 515.252 370.153 515.741 368.978C516.23 367.803 516.946 366.736 517.85 365.836C518.754 364.937 519.826 364.224 521.007 363.737C522.187 363.25 523.453 363 524.731 363H524.731L540 363.001L540 373Z" fill="#2F2E41"/>
<path d="M529.76 350C529.181 349.999 528.616 349.818 528.143 349.483C527.67 349.148 527.312 348.675 527.119 348.128L502.855 278.796C502.762 278.531 502.598 278.295 502.382 278.115C502.166 277.935 501.905 277.818 501.626 277.775C501.348 277.732 501.064 277.765 500.803 277.871C500.543 277.977 500.316 278.152 500.147 278.378L476.479 309.938C476.295 310.185 476.164 310.467 476.097 310.767L468.555 344.419C468.42 345.017 468.092 345.554 467.623 345.948C467.153 346.342 466.567 346.57 465.955 346.599L456.922 347.01C456.532 347.03 456.143 346.967 455.779 346.825C455.416 346.683 455.086 346.467 454.813 346.188C454.538 345.912 454.324 345.581 454.185 345.217C454.046 344.853 453.984 344.464 454.004 344.075L455.579 313.36C456.076 303.424 458.636 293.7 463.095 284.807C473.01 265.034 478.747 243.431 479.947 221.344L479.967 221L507.76 225.422L511.932 231.2C513.794 233.806 515.811 236.298 517.971 238.663C523.285 244.424 524.88 252.13 525.283 257.579C525.803 264.276 526.751 270.933 528.121 277.51L541.904 345.248C542.008 345.633 542.028 346.035 541.963 346.428C541.898 346.821 541.75 347.195 541.529 347.527C541.307 347.858 541.018 348.137 540.68 348.348C540.341 348.558 539.962 348.693 539.567 348.744L530.118 349.977C529.999 349.992 529.88 350 529.76 350Z" fill="#2F2E41"/>
<path d="M517.693 149.126C516.487 145.435 515.596 141.645 515.031 137.8C514.854 135.561 515.422 133.152 517.037 131.607C520.06 128.717 525.195 130.094 528.356 132.829C532.924 136.783 535.203 142.86 536.064 148.872C536.925 154.884 536.546 160.997 536.753 167.068C536.96 173.139 537.821 179.382 540.887 184.608C543.953 189.835 549.642 193.847 555.644 193.403C558.066 193.27 560.366 192.286 562.145 190.621C563.018 189.783 563.679 188.745 564.073 187.595C564.467 186.446 564.582 185.217 564.409 184.013C567.477 189.558 565.922 197.073 561.346 201.431C556.771 205.79 549.733 207.022 543.718 205.161C537.704 203.3 532.753 198.634 529.796 193.029C526.839 187.423 525.756 180.948 525.913 174.599C526.033 169.724 526.854 164.809 526.038 160.002C525.222 155.196 522.242 150.315 517.543 149.183L517.693 149.126Z" fill="#2F2E41"/>
<path d="M496.009 155.729C495.201 158.463 492.108 160.148 489.325 159.686C486.543 159.224 484.255 156.905 483.41 154.183C482.645 151.403 482.958 148.432 484.284 145.878C485.015 144.346 486.037 142.976 487.292 141.845C488.547 140.714 490.01 139.844 491.597 139.286C493.194 138.751 494.894 138.611 496.554 138.88C498.215 139.149 499.787 139.817 501.139 140.829C501.283 140.215 501.586 139.651 502.017 139.195C502.448 138.738 502.992 138.407 503.591 138.234C504.799 137.904 506.074 137.923 507.271 138.289C510.722 139.284 513.713 141.485 515.711 144.502C517.683 147.509 518.988 150.913 519.536 154.479C520.477 159.827 520.13 165.672 517.161 170.198C514.193 174.725 508.12 177.398 503.194 175.24C502.886 173.651 503.614 172.05 504.456 170.673C505.298 169.296 506.296 167.954 506.619 166.368C506.943 164.782 506.323 162.843 504.807 162.324C503.513 161.881 502.135 162.598 500.772 162.685C499.998 162.734 499.225 162.576 498.531 162.228C497.836 161.879 497.244 161.352 496.815 160.699C496.385 160.046 496.133 159.29 496.083 158.507C496.033 157.724 496.188 156.942 496.531 156.238L496.009 155.729Z" fill="#2F2E41"/>
<path d="M608.381 373H372.619C372.455 373 372.297 372.947 372.181 372.854C372.065 372.76 372 372.633 372 372.5C372 372.367 372.065 372.24 372.181 372.146C372.297 372.053 372.455 372 372.619 372H608.381C608.545 372 608.703 372.053 608.819 372.146C608.935 372.24 609 372.367 609 372.5C609 372.633 608.935 372.76 608.819 372.854C608.703 372.947 608.545 373 608.381 373Z" fill="#CCCCCC"/>
</svg>
